<?xml version="1.0" encoding="UTF-8"?>
<svg version="1.1" xmlns="http://www.w3.org/2000/svg" width="1024" height="1024">
<path d="M0 0 C337.92 0 675.84 0 1024 0 C1024 337.92 1024 675.84 1024 1024 C686.08 1024 348.16 1024 0 1024 C0 686.08 0 348.16 0 0 Z " fill="#6088BC" transform="translate(0,0)"/>
<path d="M0 0 C0.74701172 0.00725098 1.49402344 0.01450195 2.26367188 0.02197266 C21.9867351 0.3149386 42.37021436 4.63098691 61 11 C61.81001465 11.26619141 62.6200293 11.53238281 63.45458984 11.80664062 C83.75515342 18.51169163 103.56483261 27.51524702 121 40 C121.62777344 40.44811035 122.25554687 40.8962207 122.90234375 41.35791016 C142.87203898 55.73667463 162.20053195 72.21034523 177 92 C178.17369141 93.55847656 178.17369141 93.55847656 179.37109375 95.1484375 C201.72277871 125.35923496 216.6329985 159.15885334 224 196 C224.17789062 196.87027832 224.35578125 197.74055664 224.5390625 198.63720703 C229.1802831 222.42806701 229.21915341 250.11034165 225 274 C224.82758789 275.0012793 224.65517578 276.00255859 224.47753906 277.03417969 C218.12141082 312.65563403 204.45426764 346.74279773 183 376 C182.5673584 376.59796387 182.1347168 377.19592773 181.68896484 377.81201172 C176.45675857 385.00202395 170.74574481 391.67331066 164.6640625 398.1484375 C162.16102656 400.82764019 159.73319394 403.55906463 157.3125 406.3125 C153.46796843 410.58495647 149.40960147 414.32533211 145 418 C144.19820312 418.71285156 143.39640625 419.42570312 142.5703125 420.16015625 C112.98058111 445.93591376 77.0050436 461.91204048 39.25 471.3125 C37.81563599 471.67649902 37.81563599 471.67649902 36.35229492 472.04785156 C21.75088208 475.52513961 6.98294207 476.33796912 -7.97680664 476.26074219 C-10.43335715 476.25001809 -12.88917437 476.26072331 -15.34570312 476.2734375 C-31.07961263 476.28939342 -46.55276579 475.03439023 -61.875 471.3125 C-62.97521484 471.04904785 -64.07542969 470.7855957 -65.20898438 470.51416016 C-90.6289843 464.26207515 -115.03575714 454.35394416 -137 440 C-138.01449219 439.35804688 -139.02898437 438.71609375 -140.07421875 438.0546875 C-152.69424229 429.90528668 -164.1699207 420.3885576 -175 410 C-175.61633301 409.41621582 -176.23266602 408.83243164 -176.86767578 408.23095703 C-187.03196596 398.56297498 -195.88558503 388.43923256 -204 377 C-204.5048291 376.29681641 -205.0096582 375.59363281 -205.52978516 374.86914062 C-217.39555269 358.2151645 -226.90014936 340.16732842 -234 321 C-234.62068359 319.53626953 -234.62068359 319.53626953 -235.25390625 318.04296875 C-254.13655586 272.87851217 -253.68349129 218.42826522 -240 172 C-239.67177246 170.87706543 -239.67177246 170.87706543 -239.33691406 169.73144531 C-225.84673946 124.52271796 -197.35872792 81.91662577 -160 53 C-158.74679627 51.99553925 -157.49423721 50.99027386 -156.2421875 49.984375 C-121.47708147 22.36374898 -80.33689497 6.21317393 -36.35522461 1.26660156 C-34.83620799 1.09465524 -33.31854644 0.91003813 -31.80297852 0.70996094 C-21.27255282 -0.62866252 -10.59151715 -0.14934953 0 0 Z " fill="#6089BC" transform="translate(523,325)"/>
<path d="M0 0 C0.74701172 0.00725098 1.49402344 0.01450195 2.26367188 0.02197266 C21.9867351 0.3149386 42.37021436 4.63098691 61 11 C61.81001465 11.26619141 62.6200293 11.53238281 63.45458984 11.80664062 C83.75515342 18.51169163 103.56483261 27.51524702 121 40 C121.62777344 40.44811035 122.25554687 40.8962207 122.90234375 41.35791016 C142.87203898 55.73667463 162.20053195 72.21034523 177 92 C178.17369141 93.55847656 178.17369141 93.55847656 179.37109375 95.1484375 C201.72277871 125.35923496 216.6329985 159.15885334 224 196 C224.17789062 196.87027832 224.35578125 197.74055664 224.5390625 198.63720703 C229.1802831 222.42806701 229.21915341 250.11034165 225 274 C224.82758789 275.0012793 224.65517578 276.00255859 224.47753906 277.03417969 C218.12141082 312.65563403 204.45426764 346.74279773 183 376 C182.5673584 376.59796387 182.1347168 377.19592773 181.68896484 377.81201172 C176.45675857 385.00202395 170.74574481 391.67331066 164.6640625 398.1484375 C162.16102656 400.82764019 159.73319394 403.55906463 157.3125 406.3125 C153.46796843 410.58495647 149.40960147 414.32533211 145 418 C144.19820312 418.71285156 143.39640625 419.42570312 142.5703125 420.16015625 C112.98058111 445.93591376 77.0050436 461.91204048 39.25 471.3125 C37.81563599 471.67649902 37.81563599 471.67649902 36.35229492 472.04785156 C21.75088208 475.52513961 6.98294207 476.33796912 -7.97680664 476.26074219 C-10.43335715 476.25001809 -12.88917437 476.26072331 -15.34570312 476.2734375 C-31.07961263 476.28939342 -46.55276579 475.03439023 -61.875 471.3125 C-62.97521484 471.04904785 -64.07542969 470.7855957 -65.20898438 470.51416016 C-90.6289843 464.26207515 -115.03575714 454.35394416 -137 440 C-138.01449219 439.35804688 -139.02898437 438.71609375 -140.07421875 438.0546875 C-152.69424229 429.90528668 -164.1699207 420.3885576 -175 410 C-175.61633301 409.41621582 -176.23266602 408.83243164 -176.86767578 408.23095703 C-187.03196596 398.56297498 -195.88558503 388.43923256 -204 377 C-204.5048291 376.29681641 -205.0096582 375.59363281 -205.52978516 374.86914062 C-217.39555269 358.2151645 -226.90014936 340.16732842 -234 321 C-234.62068359 319.53626953 -234.62068359 319.53626953 -235.25390625 318.04296875 C-254.13655586 272.87851217 -253.68349129 218.42826522 -240 172 C-239.67177246 170.87706543 -239.67177246 170.87706543 -239.33691406 169.73144531 C-225.84673946 124.52271796 -197.35872792 81.91662577 -160 53 C-158.74679627 51.99553925 -157.49423721 50.99027386 -156.2421875 49.984375 C-121.47708147 22.36374898 -80.33689497 6.21317393 -36.35522461 1.26660156 C-34.83620799 1.09465524 -33.31854644 0.91003813 -31.80297852 0.70996094 C-21.27255282 -0.62866252 -10.59151715 -0.14934953 0 0 Z M-54 26 C-55.38735352 26.28085449 -55.38735352 26.28085449 -56.80273438 26.56738281 C-101.67309292 35.81291221 -145.86310759 61.2273764 -175 97 C-175.8891959 98.05349263 -176.7785316 99.10686728 -177.66796875 100.16015625 C-201.62495949 128.91170464 -216.81403469 162.41145998 -224 199 C-224.26683594 200.2679541 -224.26683594 200.2679541 -224.5390625 201.56152344 C-229.77158023 226.73782402 -228.45717225 255.60733409 -223.375 280.625 C-223.24372711 281.27474792 -223.11245422 281.92449585 -222.97720337 282.59393311 C-220.62173705 294.13584152 -217.51254811 305.11666308 -213 316 C-212.65565918 316.83176758 -212.31131836 317.66353516 -211.95654297 318.52050781 C-200.23739417 346.38709375 -183.74793504 370.08841611 -163 392 C-162.360625 392.68191406 -161.72125 393.36382813 -161.0625 394.06640625 C-156.11552214 399.19176072 -150.60321828 403.6154817 -145 408 C-144.4534375 408.42829102 -143.906875 408.85658203 -143.34375 409.29785156 C-133.1368044 417.22563261 -122.34316406 423.82575066 -111 430 C-110.3076123 430.37785645 -109.61522461 430.75571289 -108.90185547 431.14501953 C-68.02465333 453.17578513 -16.52910017 460.89864431 29 451 C30.82724609 450.65775391 30.82724609 450.65775391 32.69140625 450.30859375 C36.1569423 449.63097497 39.572393 448.84814793 43 448 C44.22847656 447.69835937 45.45695312 447.39671875 46.72265625 447.0859375 C77.0712075 439.1223458 105.34719063 423.47942153 129 403 C129.81597656 402.29488281 130.63195312 401.58976562 131.47265625 400.86328125 C162.49234825 373.48139782 185.25080952 338.78393841 197 299 C197.34417969 297.90042969 197.68835938 296.80085938 198.04296875 295.66796875 C203.54425834 276.88770428 205.37787853 257.98018086 205.375 238.5 C205.37771912 237.31904251 205.37771912 237.31904251 205.38049316 236.11422729 C205.37633733 220.18761058 204.02005643 204.58250367 200.3125 189.0625 C199.92167236 187.40637695 199.92167236 187.40637695 199.52294922 185.71679688 C197.10237792 175.81641634 193.91203023 166.40125892 190 157 C189.69336426 156.2481543 189.38672852 155.49630859 189.07080078 154.72167969 C178.15714595 128.16455382 161.58269768 105.81035916 142 85 C141.38382813 84.34128906 140.76765625 83.68257812 140.1328125 83.00390625 C135.16246608 77.85519812 129.61736967 73.41734842 124 69 C123.4210498 68.53932129 122.84209961 68.07864258 122.24560547 67.60400391 C73.0238684 28.63081924 7.49847303 13.15113703 -54 26 Z " fill="#FBFDFE" transform="translate(523,325)"/>
<path d="M0 0 C0.9065332 0.00427002 1.81306641 0.00854004 2.74707031 0.01293945 C22.87285328 0.51378333 37.5219434 10.66214717 51.8125 24 C61.83133893 33.31319634 71.08674391 41.26900536 85.32421875 40.85546875 C90.81287062 40.09058771 94.24685563 36.4072324 97.875 32.5 C99.375 33.5 99.375 33.5 100.875 35.5 C102.19913894 44.43793788 98.19205624 53.65146053 93.0625 60.875 C86.62331951 68.66115192 78.98731324 74.57902293 68.875 76.5 C54.00635549 77.40961119 42.28684146 74.86936625 30.82421875 64.91015625 C26.4761159 61.01176372 22.2932522 56.96449582 18.25 52.75 C11.80075832 46.1903801 3.22874092 39.43712053 -6.1875 39.1875 C-9.88382499 39.29342787 -12.81015971 39.73208518 -16.125 41.5 C-15.6166752 37.05215797 -14.28930777 34.66430777 -11.125 31.5 C-6.12154135 28.08300385 -1.21385259 26.4254966 4.875 27.5 C14.87590837 30.13181799 21.81164671 36.60410634 29.1887207 43.53271484 C38.86699333 52.60402625 50.47452149 63.36132407 64.3125 64 C71.17079544 63.73029175 77.26524766 61.73693058 82.5 57.25 C82.95375 56.6725 83.4075 56.095 83.875 55.5 C83.30007813 55.65855469 82.72515625 55.81710937 82.1328125 55.98046875 C74.39372832 57.76126148 67.77523297 56.24439113 60.875 52.5 C53.49292654 47.70368029 47.12255571 41.97496878 40.7421875 35.9609375 C28.73180266 24.72820348 16.43406099 15.81032832 -0.5859375 16.1328125 C-9.25255705 17.03199819 -15.09364721 21.48926768 -20.49609375 28.125 C-25.59636926 35.56137293 -26.05022716 43.67806663 -25.125 52.5 C-22.4045291 65.05043908 -12.39929592 72.86393319 -2.125 79.5 C3.23892897 82.68376516 8.69309338 85.70567221 14.15429688 88.71875 C21.71815083 92.98485288 28.34137095 97.78493649 34.875 103.5 C35.62869873 104.15564941 36.38239746 104.81129883 37.15893555 105.48681641 C48.85834321 115.93930759 54.93117968 131.95045802 55.796875 147.296875 C55.82265625 148.02390625 55.8484375 148.7509375 55.875 149.5 C71.41512029 148.69090131 71.41512029 148.69090131 85.875 143.5 C87.009375 142.901875 88.14375 142.30375 89.3125 141.6875 C92.61621517 138.86725534 93.4662576 136.56970026 94.875 132.5 C97.875 133.5 97.875 133.5 99.875 136.5 C101.45138163 151.00574251 98.89773132 162.10165241 90.0625 174 C83.06952632 182.06171116 74.12616013 186.68155451 63.875 189.5 C61.54192597 189.53478524 59.20800712 189.53901581 56.875 189.5 C56.88499275 191.08161926 56.88499275 191.08161926 56.89518738 192.69519043 C56.95635645 202.69715115 57.00114291 212.69907325 57.03043652 222.7011795 C57.04600357 227.84171933 57.06707542 232.98210656 57.10131836 238.12255859 C57.13423482 243.09576387 57.15192012 248.0688236 57.15963173 253.04212952 C57.16511792 254.92686754 57.17582848 256.81159881 57.19219017 258.6962738 C57.38550378 281.91547854 53.75631229 303.03061959 37.3125 320.6875 C27.4514048 330.07192595 15.7688615 334.80925095 2.875 338.5 C2.26390381 338.67813232 1.65280762 338.85626465 1.02319336 339.03979492 C-12.82746743 342.0070066 -29.41564753 340.63608786 -42.125 334.5 C-43.69894531 333.75556641 -43.69894531 333.75556641 -45.3046875 332.99609375 C-61.42739012 324.48347086 -71.03479633 310.33593355 -76.43359375 293.31640625 C-80.86148136 275.27964374 -78.66593272 257.14511522 -69.4296875 241.125 C-64.13009734 232.47037215 -57.06488796 225.3521905 -48.125 220.5 C-47.43792969 220.08878906 -46.75085938 219.67757812 -46.04296875 219.25390625 C-36.87550181 214.6139799 -24.78524759 215.28538963 -14.890625 217.08984375 C-8.37219686 219.28627062 -3.97130326 223.90966218 -0.125 229.5 C2.82959332 235.4864309 3.06052309 242.53330382 1.15234375 248.91796875 C-1.24623186 254.09384243 -4.41149393 257.03323996 -9.4375 259.75 C-14.02663822 261.03068974 -17.95843188 261.50590663 -22.3125 259.484375 C-25.56900584 257.49694864 -28.66254548 255.44736865 -31.125 252.5 C-31.125 251.51 -31.125 250.52 -31.125 249.5 C-31.785 249.5 -32.445 249.5 -33.125 249.5 C-37.66687323 263.77445872 -38.01780856 278.17548737 -31.22265625 291.73828125 C-30.169813 293.58068203 -30.169813 293.58068203 -28.49609375 295.10546875 C-27.125 296.5 -27.125 296.5 -27.125 298.5 C-25.80241528 299.18774405 -24.46513497 299.84711373 -23.125 300.5 C-22.031875 301.03625 -20.93875 301.5725 -19.8125 302.125 C-13.39722217 304.5171375 -8.40765338 303.55147865 -2.125 301.5 C-4.58802183 306.01554002 -6.9000257 308.70271654 -11.65625 310.796875 C-17.61072356 312.49276937 -23.92903284 312.82080694 -29.71484375 310.4296875 C-39.32566713 304.41676211 -44.70805611 295.71250966 -49.125 285.5 C-49.46789062 284.73300781 -49.81078125 283.96601562 -50.1640625 283.17578125 C-54.75876204 270.87315116 -53.23910481 255.31309193 -48.125 243.5 C-46.59611118 240.4032422 -44.96678276 237.42118823 -43.125 234.5 C-53.9828353 243.38368343 -61.92920997 254.3214701 -64.125 268.5 C-65.06297921 283.95861892 -62.52786398 298.06425802 -52.4375 310.25 C-48.26312747 314.71689485 -43.57918171 317.78625543 -38.125 320.5 C-37.38765625 320.87253906 -36.6503125 321.24507812 -35.890625 321.62890625 C-27.12462059 324.38995001 -15.64762385 323.85846081 -7.375 320 C2.59332161 314.03569042 7.86129199 305.3002759 10.73298645 294.17651367 C13.06517338 282.69340266 13.34983093 271.50333814 13.38671875 259.8125 C13.40360564 257.77269439 13.42176111 255.73289892 13.44111633 253.69311523 C13.48818759 248.37999649 13.51827228 243.06691891 13.54455566 237.75366211 C13.57458004 232.3096504 13.62103395 226.86578003 13.66601562 221.421875 C13.7515596 210.7813246 13.81911978 200.14074471 13.875 189.5 C6.42398877 189.5850981 -1.0268402 189.68023607 -8.47756386 189.78752708 C-11.93877943 189.83706756 -15.39997053 189.88339369 -18.86132812 189.921875 C-22.85825098 189.96646137 -26.85484124 190.02592536 -30.8515625 190.0859375 C-32.67900497 190.10326431 -32.67900497 190.10326431 -34.54336548 190.12094116 C-55.35781605 190.36618768 -55.35781605 190.36618768 -72.9453125 200.34375 C-74.86672174 202.93490761 -76.10621814 205.44365441 -77.125 208.5 C-80.125 207.5 -80.125 207.5 -81.2890625 205.3203125 C-84.82113929 193.4036796 -80.57371072 182.79770728 -75 172.375 C-67.54691303 160.18478148 -56.3185277 153.28952178 -42.54238892 149.93009949 C-37.72299787 149.07263811 -32.85149846 149.13739199 -27.96875 149.0859375 C-26.82587524 149.06657135 -25.68300049 149.0472052 -24.50549316 149.0272522 C-20.87873647 148.96778649 -17.25194747 148.92120315 -13.625 148.875 C-11.15623666 148.83678986 -8.68748622 148.79773639 -6.21875 148.7578125 C-0.18761506 148.66211221 5.84359848 148.57696929 11.875 148.5 C8.54136318 136.41468924 1.56048641 130.97014285 -9.07080078 124.78662109 C-12.18266002 123.06713283 -15.30824092 121.37509112 -18.4375 119.6875 C-38.32589946 108.73149559 -53.42719887 96.81845119 -61.0703125 74.7734375 C-61.65350902 72.3174409 -61.95153769 70.01897444 -62.125 67.5 C-62.20492188 66.35015625 -62.28484375 65.2003125 -62.3671875 64.015625 C-62.93880373 47.53962764 -56.92927655 33.47090158 -46.4453125 20.9140625 C-34.32624559 8.30533632 -17.59157228 -0.12764333 0 0 Z " fill="#FAFCFE" transform="translate(503.125,393.5)"/>
<path d="M0 0 C0.33 0.66 0.66 1.32 1 2 C0.30003906 3.51980469 0.30003906 3.51980469 -0.4140625 5.0703125 C-2.36037631 9.36019232 -2.46040592 13.21792303 -2.375 17.875 C-2.36484863 18.67292969 -2.35469727 19.47085937 -2.34423828 20.29296875 C-2.19379749 25.993392 -1.63551661 30.86926044 1 36 C1.58587891 37.2065625 1.58587891 37.2065625 2.18359375 38.4375 C10.58004509 54.04110362 27.53638129 62.16793279 42.51074219 70.32861328 C48.73437829 73.7595234 54.44083827 77.55451139 60 82 C60.99257813 82.76441406 61.98515625 83.52882813 63.0078125 84.31640625 C66.18287536 86.98538026 68.44284532 90.1211495 70.625 93.625 C71.01107422 94.23601562 71.39714844 94.84703125 71.79492188 95.4765625 C77.82145948 105.29910257 80.19695427 114.93604422 80.0625 126.375 C80.05798828 127.11105469 80.05347656 127.84710937 80.04882812 128.60546875 C80.03715142 130.40368158 80.01922011 132.20185197 80 134 C84.45903699 133.91829462 88.91678816 133.80552459 93.375 133.6875 C94.62667969 133.66494141 95.87835937 133.64238281 97.16796875 133.61914062 C107.07021666 133.33399736 115.27407634 131.82222097 124 127 C121.49834919 134.73237522 116.59419106 138.82351207 109.71875 142.67578125 C102.40885532 146.23620409 95.66315146 147.17634451 87.6328125 147.0703125 C86.52788452 147.06269897 86.52788452 147.06269897 85.40063477 147.05493164 C83.60037802 147.04179108 81.80017491 147.02161811 80 147 C80.00999275 148.89561676 80.00999275 148.89561676 80.02018738 150.82952881 C80.08116649 162.77527327 80.12605312 174.72098589 80.15543652 186.66685104 C80.17105093 192.80742664 80.19221185 198.94787596 80.22631836 205.08837891 C80.25906264 211.02117392 80.27688474 216.95384793 80.28463173 222.88672638 C80.29014826 225.14319003 80.3009203 227.39964753 80.31719017 229.65605927 C80.4733763 252.22733755 80.4733763 252.22733755 77 262 C76.69978439 262.9054657 76.39956879 263.8109314 76.09025574 264.74383545 C72.1714741 276.14058925 63.26939511 285.36621441 53.0625 291.5625 C51.5465625 292.2740625 51.5465625 292.2740625 50 293 C49.34 292.67 48.68 292.34 48 292 C48.886875 291.071875 49.77375 290.14375 50.6875 289.1875 C64.03232484 273.45630648 63.60266609 252.41788733 63.609375 233.03515625 C63.62437993 230.54551633 63.64111187 228.05588627 63.65948486 225.56626892 C63.70291053 219.06120306 63.72310236 212.55627143 63.73822021 206.05108643 C63.75788108 199.39399748 63.79984064 192.73707322 63.83984375 186.08007812 C63.91487716 173.0534342 63.96608997 160.02681265 64 147 C54.03709037 147.03821089 44.07455204 147.09779452 34.11193466 147.18390274 C29.48476593 147.22324069 24.85778361 147.25549575 20.23046875 147.27099609 C15.75630607 147.28625349 11.28265636 147.32085768 6.80872345 147.36830902 C5.11054214 147.38302986 3.41228756 147.39103561 1.71404266 147.39188385 C-10.35397336 147.40396237 -20.49749972 148.41072137 -31 155 C-28.04254678 146.51019648 -20.98101876 141.18950926 -13.11112976 137.28463745 C-3.50885635 133.31969835 7.39757872 133.72147096 17.61328125 133.8046875 C18.96233406 133.80843049 20.31138964 133.81127136 21.66044617 133.81326294 C25.16368486 133.82079842 28.66675033 133.84035642 32.16992188 133.8626709 C35.76364806 133.88335038 39.35740299 133.89231127 42.95117188 133.90234375 C49.96751759 133.92361494 56.98374732 133.9576243 64 134 C63.56822604 130.80270792 63.11775784 127.60831161 62.6640625 124.4140625 C62.54297119 123.5156665 62.42187988 122.61727051 62.29711914 121.69165039 C60.39842601 108.50929521 54.09992651 98.88800569 43.9375 90.24609375 C38.18232206 85.98109581 31.85520775 82.63280072 25.625 79.125 C9.67137423 70.12798629 -4.91782136 60.27850189 -11.3125 42.3125 C-14.04679428 28.95958716 -11.45408973 17.21553217 -4.3125 5.8125 C-1.29310345 1.29310345 -1.29310345 1.29310345 0 0 Z " fill="#648ABB" transform="translate(466,423)"/>
<path d="M0 0 C8.80887088 6.42853261 14.65926976 16.74471939 16.765625 27.34765625 C18.40223439 39.33430466 17.23936727 50.39382516 9.875 60.3125 C8.6739121 61.71209406 7.44629062 63.08956756 6.1875 64.4375 C5.71054687 64.96730469 5.23359375 65.49710937 4.7421875 66.04296875 C-5.27224416 75.8214583 -21.18405409 80.30172212 -34.14501953 84.59521484 C-36.73749566 85.4540628 -39.32406411 86.32916567 -41.91015625 87.20703125 C-43.56219253 87.76393376 -45.21452502 88.31995854 -46.8671875 88.875 C-47.63787567 89.1342627 -48.40856384 89.39352539 -49.2026062 89.66064453 C-54.57599116 91.4375 -54.57599116 91.4375 -56.8125 91.4375 C-56.8125 90.1175 -56.8125 88.7975 -56.8125 87.4375 C-56.173125 87.14875 -55.53375 86.86 -54.875 86.5625 C-52.66043921 85.60926549 -52.66043921 85.60926549 -51.8125 83.4375 C-51.46998322 77.54977517 -52.23816188 73.04394765 -54.19140625 67.51953125 C-54.43898178 66.78776169 -54.68655731 66.05599213 -54.94163513 65.30204773 C-55.74120034 62.94723135 -56.55754406 60.59865894 -57.375 58.25 C-57.93008909 56.63056876 -58.48412118 55.01077484 -59.03710938 53.390625 C-59.8610005 50.97826234 -60.68604333 48.56635015 -61.51626587 46.15615845 C-63.0727915 41.63418669 -64.58127781 37.10183471 -66.02734375 32.54296875 C-66.33663818 31.57447998 -66.64593262 30.60599121 -66.96459961 29.6081543 C-67.51184426 27.88448335 -68.05102378 26.15822121 -68.58032227 24.42895508 C-69.93703448 20.2176733 -71.09188067 17.13565906 -74.8125 14.4375 C-78.4800213 14.10332071 -78.4800213 14.10332071 -81.8125 14.4375 C-81.8125 13.1175 -81.8125 11.7975 -81.8125 10.4375 C-76.839557 8.64952764 -71.863056 6.87193829 -66.88330078 5.10302734 C-65.19711648 4.50253436 -63.51185845 3.89943266 -61.82763672 3.29345703 C-19.86412291 -11.7953914 -19.86412291 -11.7953914 0 0 Z " fill="#F8FBFD" transform="translate(434.8125,218.5625)"/>
<path d="M0 0 C-0.875 4.875 -0.875 4.875 -2 6 C-2.34578544 9.83130269 -2.44798692 12.23020335 -0.48828125 15.59765625 C0.22972656 16.41105469 0.94773437 17.22445313 1.6875 18.0625 C2.91146484 19.46628906 2.91146484 19.46628906 4.16015625 20.8984375 C5.10373455 21.93506357 6.0505388 22.96875947 7 24 C7.78673096 24.85899902 7.78673096 24.85899902 8.58935547 25.73535156 C11.37290745 28.76583815 14.17552573 31.77762589 16.9921875 34.77734375 C20.42317717 38.43770026 23.71523866 42.20871004 27 46 C34.14993555 54.96452004 34.14993555 54.96452004 43 62 C46.70679825 62.01888555 46.70679825 62.01888555 50 61 C50.99 61 51.98 61 53 61 C51.40099665 65.18124479 48.31202711 67.76853629 45.0625 70.6875 C44.48709473 71.20916748 43.91168945 71.73083496 43.31884766 72.26831055 C41.55510782 73.85625834 39.78029131 75.43064368 38 77 C37.45939941 77.47856445 36.91879883 77.95712891 36.36181641 78.45019531 C29.88317691 84.13648322 29.88317691 84.13648322 27 86 C25.515 85.505 25.515 85.505 24 85 C24.33 84.484375 24.66 83.96875 25 83.4375 C26.48047363 79.82884553 26.63073456 77.91055428 26 74 C21.44606404 66.60961251 14.73573843 60.36487758 8.8203125 54.03515625 C6.05846412 51.07551213 3.38280466 48.0497086 0.734375 44.98828125 C-2.79167065 40.94603522 -6.40364278 36.97964245 -10 33 C-10 35.81003821 -9.64908817 37.4767709 -8.81005859 40.10986328 C-8.54913422 40.93567902 -8.28820984 41.76149475 -8.01937866 42.61233521 C-7.73196808 43.50596771 -7.4445575 44.39960022 -7.1484375 45.3203125 C-6.85192291 46.25237518 -6.55540833 47.18443787 -6.24990845 48.14474487 C-5.6180566 50.12759342 -4.98407322 52.10976379 -4.34814453 54.09130859 C-3.39484305 57.06314105 -2.44878833 60.03720021 -1.50390625 63.01171875 C-0.88613875 64.94814718 -0.26765411 66.88434697 0.3515625 68.8203125 C0.80755829 70.24673065 0.80755829 70.24673065 1.27276611 71.70196533 C2.71773046 76.1803628 4.20688934 80.63046691 5.83496094 85.04589844 C6.1200351 85.82214569 6.40510925 86.59839294 6.69882202 87.39816284 C7.23086288 88.82987473 7.77374502 90.2576265 8.32974243 91.6802063 C9.75818782 95.51161656 10.26380784 98.06532607 9 102 C7.45239258 102.70214844 7.45239258 102.70214844 5 103 C2.46772676 102.02416206 0.16883863 100.99117148 -2.23828125 99.765625 C-2.94800079 99.41622864 -3.65772034 99.06683228 -4.38894653 98.70684814 C-6.70224893 97.56522166 -9.00713217 96.40755271 -11.3125 95.25 C-12.89721626 94.46547933 -14.48258765 93.68228063 -16.06860352 92.90039062 C-19.23401705 91.33878905 -22.39686363 89.77218317 -25.55761719 88.20117188 C-31.49514485 85.2538966 -37.46063293 82.36668345 -43.4375 79.5 C-44.36409424 79.05043945 -45.29068848 78.60087891 -46.24536133 78.13769531 C-47.09122803 77.73131836 -47.93709473 77.32494141 -48.80859375 76.90625 C-49.52845459 76.55884766 -50.24831543 76.21144531 -50.98999023 75.85351562 C-52.97741287 75.00959123 -54.89394467 74.46150391 -57 74 C-55.83984375 75.34191406 -55.83984375 75.34191406 -54.65625 76.7109375 C-48.62791458 83.70174761 -42.73358896 90.76451517 -37 98 C-34.75854805 100.81943194 -32.50657718 103.63016394 -30.25 106.4375 C-29.69449463 107.13665527 -29.13898926 107.83581055 -28.56665039 108.55615234 C-24.81763589 113.36660192 -24.81763589 113.36660192 -20 117 C-16.41280475 116.748267 -13.40677809 116.1355927 -10 115 C-10 119 -10 119 -11.40527344 120.81518555 C-12.37255371 121.71684448 -12.37255371 121.71684448 -13.359375 122.63671875 C-14.06320312 123.29607422 -14.76703125 123.95542969 -15.4921875 124.63476562 C-16.23726563 125.31216797 -16.98234375 125.98957031 -17.75 126.6875 C-18.47960937 127.37650391 -19.20921875 128.06550781 -19.9609375 128.77539062 C-25.95182775 134.31424097 -25.95182775 134.31424097 -30 135 C-30 132 -30 132 -29 130 C-27.93278203 124.66391016 -28.17277708 122.27802965 -31.171875 117.64453125 C-33.53635785 114.55914876 -36.0409003 111.59587041 -38.58105469 108.65429688 C-40.49395802 106.42411226 -42.30860557 104.12160061 -44.125 101.8125 C-48.38088531 96.51206678 -52.66876212 91.23906533 -57 86 C-57.46937988 85.43216797 -57.93875977 84.86433594 -58.42236328 84.27929688 C-59.90170276 82.49457356 -61.38736352 80.71531072 -62.875 78.9375 C-63.571698 78.09674927 -63.571698 78.09674927 -64.2824707 77.23901367 C-66.40816104 74.71205894 -68.23003013 72.84664658 -71 71 C-74.41546894 71.36334776 -77.68637751 72.10787087 -81 73 C-81 69 -81 69 -78.875 66.66796875 C-77.92625 65.84941406 -76.9775 65.03085937 -76 64.1875 C-74.98560997 63.30997341 -73.9712875 62.43236871 -72.95703125 61.5546875 C-71.49330078 60.29011719 -71.49330078 60.29011719 -70 59 C-69.24074219 58.26007813 -68.48148438 57.52015625 -67.69921875 56.7578125 C-67.03535156 56.11585938 -66.37148437 55.47390625 -65.6875 54.8125 C-65.11386719 54.24144531 -64.54023438 53.67039062 -63.94921875 53.08203125 C-60.94739858 51.41569019 -59.34021206 52.16436989 -56 53 C-52.42629705 54.52461697 -48.9841418 56.2873564 -45.52734375 58.05859375 C-44.52667374 58.56294449 -43.52600372 59.06729523 -42.49501038 59.58692932 C-39.30529931 61.19625506 -36.12124169 62.81640176 -32.9375 64.4375 C-29.74917821 66.05294524 -26.55972563 67.66611657 -23.36927795 69.27735901 C-21.38671771 70.27944881 -19.40556789 71.28433513 -17.42601013 72.29234314 C-16.07419395 72.97799095 -16.07419395 72.97799095 -14.69506836 73.67749023 C-13.90708359 74.07862534 -13.11909882 74.47976044 -12.30723572 74.89305115 C-9.90921273 76.04355726 -7.47951007 77.03941254 -5 78 C-6.97049961 70.51054517 -9.18712202 63.13987001 -11.609375 55.78515625 C-12.28822748 53.69741744 -12.96659933 51.60952229 -13.64453125 49.52148438 C-14.7020673 46.2720678 -15.76274163 43.02380629 -16.83154297 39.77807617 C-17.87102402 36.61673605 -18.89749192 33.45141546 -19.921875 30.28515625 C-20.24573181 29.31224136 -20.56958862 28.33932648 -20.90325928 27.33692932 C-21.19396301 26.43176071 -21.48466675 25.5265921 -21.78417969 24.59399414 C-22.04382507 23.80110489 -22.30347046 23.00821564 -22.57098389 22.19129944 C-23.05564885 19.71576056 -22.90755975 18.3421403 -22 16 C-19.77734375 13.88671875 -19.77734375 13.88671875 -16.9375 11.6875 C-12.68016568 8.34363794 -8.61113395 4.90997896 -4.65625 1.21484375 C-3 0 -3 0 0 0 Z " fill="#F9FCFD" transform="translate(316,251)"/>
<path d="M0 0 C1.98123538 0.36022461 3.95784108 0.76084854 5.90625 1.26953125 C8.34361824 1.84502097 10.55936866 2.17475707 13.03125 2.44921875 C18.03764766 3.27612824 22.21169232 4.49486832 26 8 C30.16623476 15.01512867 32.12310072 23.13574246 34.27748108 30.95516968 C36.26274802 38.13651285 38.80215781 45.07197567 41.375 52.0625 C44.36730896 60.3381881 47.25524117 68.63873843 50 77 C50.34780518 76.01193359 50.69561035 75.02386719 51.05395508 74.00585938 C52.35587263 70.3079802 53.65886108 66.6104791 54.9621582 62.91308594 C55.52396975 61.31878639 56.08549847 59.72438715 56.64672852 58.12988281 C57.45773518 55.825903 58.2697893 53.52229457 59.08203125 51.21875 C59.45253349 50.16512268 59.45253349 50.16512268 59.83052063 49.09020996 C61.06095658 45.60378118 62.32627922 42.13731227 63.65112305 38.68554688 C64.99245569 35.02061338 65.68139324 32.83283697 65 29 C62.60414714 26.35412766 62.60414714 26.35412766 60 24 C59.33984375 21.8515625 59.33984375 21.8515625 59 20 C64.95516951 21.4068405 70.70914816 23.15384685 76.5 25.125 C77.32242188 25.40214844 78.14484375 25.67929688 78.9921875 25.96484375 C80.99572877 26.6404565 82.99800011 27.31983337 85 28 C85 28.99 85 29.98 85 31 C83.01432292 31.22786458 81.02864583 31.45572917 79.04296875 31.68359375 C76.80603607 31.97170735 76.80603607 31.97170735 74 33 C72.90094757 35.65783023 72.90094757 35.65783023 72 39 C71.55209779 40.31641994 71.09504844 41.6297506 70.63061523 42.94042969 C70.25351158 44.01639153 70.25351158 44.01639153 69.86878967 45.11408997 C69.60142502 45.87565903 69.33406036 46.63722809 69.05859375 47.421875 C68.77483383 48.23190475 68.49107391 49.04193451 68.19871521 49.87651062 C66.64698005 54.30562883 65.09168022 58.73347835 63.53369141 63.16040039 C60.70160369 71.21703765 57.8843053 79.27454399 55.21484375 87.38671875 C54.81273682 88.59553711 54.41062988 89.80435547 53.99633789 91.04980469 C53.26447675 93.26084434 52.54559052 95.47623324 51.84155273 97.69628906 C51.52001221 98.66147461 51.19847168 99.62666016 50.8671875 100.62109375 C50.60019043 101.4505249 50.33319336 102.27995605 50.05810547 103.13452148 C49 105 49 105 47.19580078 105.89868164 C44.10092664 106.04148493 42.6475216 105.6687169 40 104 C38.67499855 101.38226763 37.71469311 99.05174616 36.80078125 96.29296875 C36.38560997 95.11584824 36.38560997 95.11584824 35.96205139 93.91494751 C35.06062053 91.34508228 34.18650597 88.76680737 33.3125 86.1875 C32.69584045 84.41242447 32.07750168 82.63793145 31.45751953 80.86401367 C29.90756804 76.41583506 28.37929676 71.96055374 26.8571167 67.50280762 C25.58612054 63.79145902 24.29539111 60.08706988 23.00390625 56.3828125 C19.2569882 45.61466053 15.58904022 34.8217946 12 24 C10.32077265 26.51884103 9.40272355 28.35210857 8.41186523 31.14501953 C8.11493271 31.97663605 7.81800018 32.80825256 7.5120697 33.66506958 C7.19742264 34.56192474 6.88277557 35.45877991 6.55859375 36.3828125 C6.23085464 37.31165253 5.90311554 38.24049255 5.56544495 39.19747925 C4.87312982 41.16535486 4.18316209 43.13405764 3.49536133 45.10351562 C2.44762952 48.09606787 1.38532832 51.08317787 0.32226562 54.0703125 C-0.34986453 55.98666157 -1.02111643 57.90331895 -1.69140625 59.8203125 C-2.00807755 60.70502228 -2.32474884 61.58973206 -2.65101624 62.50125122 C-4.469131 67.76491208 -6.38743813 73.35893368 -6 79 C-3.72889272 81.85484511 -3.72889272 81.85484511 -1 84 C-0.3359375 86.13671875 -0.3359375 86.13671875 0 88 C-6.36430174 86.68764148 -12.42121028 84.98780585 -18.5625 82.875 C-19.78936523 82.45927734 -19.78936523 82.45927734 -21.04101562 82.03515625 C-23.02876568 81.36094863 -25.01459349 80.68107796 -27 80 C-26.67 79.01 -26.34 78.02 -26 77 C-24.046875 76.90234375 -22.09375 76.8046875 -20.140625 76.70703125 C-16.89240788 75.63417122 -15.93547321 73.81288471 -14 71 C-12.6414574 68.00403855 -11.57254948 64.92580858 -10.50390625 61.81640625 C-10.03077248 60.47847267 -10.03077248 60.47847267 -9.54808044 59.11351013 C-8.54357485 56.26634776 -7.55279368 53.41463268 -6.5625 50.5625 C-5.90130593 48.68001681 -5.23920483 46.79785193 -4.57617188 44.91601562 C-3.29439779 41.27628461 -2.02174119 37.63354599 -0.75439453 33.98876953 C0.32599611 30.89300506 1.43298922 27.81097938 2.58642578 24.74169922 C3.04388184 23.51596191 3.50133789 22.29022461 3.97265625 21.02734375 C4.368479 19.992146 4.76430176 18.95694824 5.17211914 17.89038086 C6.0762197 14.73389414 6.32695224 12.26580382 6 9 C3.60414714 6.35412766 3.60414714 6.35412766 1 4 C0.33984375 1.8515625 0.33984375 1.8515625 0 0 Z " fill="#F8FBFD" transform="translate(589,202)"/>
<path d="M0 0 C1.21816406 0.03480469 1.21816406 0.03480469 2.4609375 0.0703125 C3.68683594 0.09738281 3.68683594 0.09738281 4.9375 0.125 C5.87722656 0.15980469 5.87722656 0.15980469 6.8359375 0.1953125 C8.42179125 3.81921488 10.00414683 7.444635 11.5859375 11.0703125 C12.029375 12.08351562 12.4728125 13.09671875 12.9296875 14.140625 C13.36796875 15.14609375 13.80625 16.1515625 14.2578125 17.1875 C14.65581055 18.09870605 15.05380859 19.00991211 15.46386719 19.94873047 C16.94933398 23.46363036 18.36482762 27.00252285 19.77667236 30.54748535 C22.6543541 37.74077772 25.63619638 44.89201376 28.60839844 52.04663086 C29.42992559 54.02839356 30.24826269 56.01148155 31.06347656 57.99584961 C32.25069362 60.88463338 33.44843967 63.76884969 34.6484375 66.65234375 C35.00897217 67.53573929 35.36950684 68.41913483 35.7409668 69.32929993 C37.61527657 73.80093044 39.3943736 77.6754132 42.8359375 81.1953125 C45.95727494 82.54304153 45.95727494 82.54304153 48.8359375 83.1953125 C48.8359375 84.5153125 48.8359375 85.8353125 48.8359375 87.1953125 C36.9559375 87.1953125 25.0759375 87.1953125 12.8359375 87.1953125 C12.8359375 85.8753125 12.8359375 84.5553125 12.8359375 83.1953125 C15.3109375 82.7003125 15.3109375 82.7003125 17.8359375 82.1953125 C18.48340645 75.46163537 16.74555095 70.94089057 13.9296875 64.83203125 C12.8359375 62.1953125 12.8359375 62.1953125 12.8359375 59.1953125 C2.6059375 59.1953125 -7.6240625 59.1953125 -18.1640625 59.1953125 C-19.1540625 62.4953125 -20.1440625 65.7953125 -21.1640625 69.1953125 C-21.4940625 70.1853125 -21.8240625 71.1753125 -22.1640625 72.1953125 C-22.23147115 73.75649678 -22.24920706 75.3203377 -22.2265625 76.8828125 C-22.21753906 77.69105469 -22.20851563 78.49929688 -22.19921875 79.33203125 C-22.18761719 79.94691406 -22.17601562 80.56179688 -22.1640625 81.1953125 C-20.1840625 82.1853125 -18.2040625 83.1753125 -16.1640625 84.1953125 C-16.1640625 85.1853125 -16.1640625 86.1753125 -16.1640625 87.1953125 C-24.7440625 87.1953125 -33.3240625 87.1953125 -42.1640625 87.1953125 C-41.8340625 85.8753125 -41.5040625 84.5553125 -41.1640625 83.1953125 C-40.2565625 82.7828125 -39.3490625 82.3703125 -38.4140625 81.9453125 C-30.32647632 77.5904584 -27.92044279 66.82047113 -24.97232056 58.62863159 C-24.14955661 56.34250656 -23.31582033 54.06064655 -22.47924805 51.77954102 C-21.30392315 48.5713898 -20.13310391 45.36165385 -18.96630859 42.15039062 C-16.27591491 34.74828414 -13.56352541 27.35435976 -10.83569336 19.9659729 C-9.98645179 17.65966906 -9.14438048 15.35083261 -8.30273438 13.04174805 C-7.78417238 11.63318359 -7.26530859 10.22473019 -6.74609375 8.81640625 C-6.29468018 7.5833374 -5.8432666 6.35026855 -5.37817383 5.07983398 C-3.36798573 0.30396983 -3.36798573 0.30396983 0 0 Z " fill="#F6FAFD" transform="translate(505.1640625,193.8046875)"/>
<path d="M0 0 C6.16860582 -0.1431231 12.0201105 0.39772898 18.125 1.25 C19.09985352 1.38132324 20.07470703 1.51264648 21.07910156 1.64794922 C24.38670973 2.09401736 27.69331827 2.54711835 31 3 C34.93050197 3.53337504 38.86126292 4.06470212 42.79248047 4.59277344 C45.37258732 4.93975881 47.95235914 5.28924738 50.53173828 5.64160156 C60.50108575 6.98689513 70.43078719 8.17102578 80.5 8.25 C81.18835938 8.270625 81.87671875 8.29125 82.5859375 8.3125 C86.53117949 8.3915978 86.53117949 8.3915978 89.83203125 6.46484375 C90.21746094 5.98144531 90.60289062 5.49804688 91 5 C93.1875 5.3125 93.1875 5.3125 95 6 C93.24587669 10.8899862 90.71996079 15.29584313 88.1875 19.8125 C87.76146484 20.58142578 87.33542969 21.35035156 86.89648438 22.14257812 C84.07920379 27.19322486 81.11277432 32.12612754 78 37 C76.515 36.505 76.515 36.505 75 36 C75.04125 34.88625 75.0825 33.7725 75.125 32.625 C75.41121859 28.95633975 75.41121859 28.95633975 73 27 C70.87757625 26.44652243 70.87757625 26.44652243 68.4296875 26.1484375 C67.53378906 26.01953125 66.63789063 25.890625 65.71484375 25.7578125 C64.77769531 25.63148438 63.84054688 25.50515625 62.875 25.375 C61.93011719 25.2409375 60.98523438 25.106875 60.01171875 24.96875 C57.67542055 24.6383644 55.33830929 24.3157825 53 24 C52.7205957 24.73283203 52.44119141 25.46566406 52.15332031 26.22070312 C51.09623727 28.76808529 49.9122336 31.07649967 48.546875 33.46875 C48.093125 34.28730469 47.639375 35.10585938 47.171875 35.94921875 C46.22023102 37.65642623 45.25654951 39.35697651 44.28125 41.05078125 C41.57202108 45.68101973 41.57202108 45.68101973 41.48828125 50.83203125 C43.04859712 53.06969354 44.61226904 55.1581572 46.4375 57.1875 C47.03433594 57.86167969 47.63117188 58.53585937 48.24609375 59.23046875 C50.76125979 61.76804161 52.41047665 62.93859132 56 63.3125 C59.36954347 62.96150589 59.86615781 62.43867679 62 60 C62.99 60 63.98 60 65 60 C63.94801209 64.99854082 61.43434981 69.20660002 59.0625 73.6875 C58.60681641 74.56728516 58.15113281 75.44707031 57.68164062 76.35351562 C57.24142578 77.18947266 56.80121094 78.02542969 56.34765625 78.88671875 C55.94554932 79.65201904 55.54344238 80.41731934 55.12915039 81.20581055 C54 83 54 83 52 84 C51.01 83.505 51.01 83.505 50 83 C50.144375 81.72125 50.28875 80.4425 50.4375 79.125 C50.33563428 68.19141239 38.5393202 58.69457779 31.67871094 50.91259766 C29.07232693 47.9430787 26.50438361 44.94115589 23.9375 41.9375 C23.44822021 41.36636475 22.95894043 40.79522949 22.45483398 40.20678711 C19.94305374 37.27465294 17.43607312 34.33851323 14.93359375 31.3984375 C8.7497292 24.1431356 2.46412578 17.00756998 -4 10 C-2.86546069 6.52011052 -1.73783087 3.22740018 0 0 Z " fill="#F7FBFD" transform="translate(189,387)"/>
<path d="M0 0 C7.51481995 7.71792319 11.12819615 16.25628241 14.3125 26.375 C14.6425 27.365 14.9725 28.355 15.3125 29.375 C15.94158793 40.14208183 16.19140986 49.78452517 9.25 58.625 C3.97943138 64.25518098 -3.90849475 68.36694292 -11.6875 68.75 C-12.368125 68.79898438 -13.04875 68.84796875 -13.75 68.8984375 C-15.6875 68.375 -15.6875 68.375 -17.11206055 66.42114258 C-19.16883405 62.44433133 -20.48223903 58.37371369 -21.83203125 54.11328125 C-22.12430099 53.20861618 -22.41657074 52.30395111 -22.71769714 51.37187195 C-23.65101313 48.47893559 -24.57577169 45.58335097 -25.5 42.6875 C-26.41210931 39.84882959 -27.32598949 37.01073547 -28.240448 34.17282104 C-28.84142678 32.30521229 -29.44049864 30.43698879 -30.03762817 28.56814575 C-31.48356775 24.05296242 -32.95884356 19.55225846 -34.50927734 15.07177734 C-34.79421555 14.24292526 -35.07915375 13.41407318 -35.37272644 12.56010437 C-35.90996565 11.00516063 -36.45458547 9.4527405 -37.00776672 7.90339661 C-38.79829945 2.70739834 -38.79829945 2.70739834 -37.6875 -0.625 C-35.359375 -1.7578125 -35.359375 -1.7578125 -32.4375 -2.75 C-31.48359375 -3.08257812 -30.5296875 -3.41515625 -29.546875 -3.7578125 C-18.54712807 -7.09380132 -9.87409229 -5.97038139 0 0 Z " fill="#6189BB" transform="translate(418.6875,225.625)"/>
<path d="M0 0 C4.41720378 5.32981418 7.80758211 11.11015207 11.3125 17.0625 C11.97056641 18.15111328 12.62863281 19.23972656 13.30664062 20.36132812 C13.92345703 21.40869141 14.54027344 22.45605469 15.17578125 23.53515625 C15.74208252 24.487854 16.30838379 25.44055176 16.8918457 26.42211914 C18 29 18 29 17.67651367 31.34155273 C17.45326416 31.88884033 17.23001465 32.43612793 17 33 C16.34 33 15.68 33 15 33 C13.375 31 13.375 31 12 29 C5.36896524 29.3768653 0.82279536 32.00954871 -4.8125 35.375 C-5.72306152 35.90794678 -6.63362305 36.44089355 -7.57177734 36.98999023 C-10.38960954 38.64623037 -13.19587766 40.32067012 -16 42 C-17.32765381 42.78963135 -17.32765381 42.78963135 -18.68212891 43.59521484 C-21.16804337 45.07625503 -23.64819966 46.56627503 -26.125 48.0625 C-27.25192261 48.74094971 -27.25192261 48.74094971 -28.40161133 49.43310547 C-29.44418091 50.07143311 -29.44418091 50.07143311 -30.5078125 50.72265625 C-31.11254395 51.09140869 -31.71727539 51.46016113 -32.34033203 51.84008789 C-34.07760727 52.97624389 -34.07760727 52.97624389 -35.59326172 54.64233398 C-37 56 -37 56 -39 56 C-39.268125 56.53625 -39.53625 57.0725 -39.8125 57.625 C-41 60 -41 60 -42.625 62.625 C-44.81142168 67.9916714 -45.12761092 73.02552017 -43.05078125 78.50390625 C-39.96406152 84.41443898 -36.19357296 88.35813968 -30 91 C-18.63697832 93.02673778 -10.43563861 88.50237129 -1 83 C0.09505859 82.36739258 1.19011719 81.73478516 2.31835938 81.08300781 C15.93880052 74.02276768 15.93880052 74.02276768 28 65 C28.24315656 62.33050591 28.24315656 62.33050591 28.125 59.375 C28.10695313 58.37210937 28.08890625 57.36921875 28.0703125 56.3359375 C28.04710937 55.56507813 28.02390625 54.79421875 28 54 C29.32 54 30.64 54 32 54 C34.00678401 57.62128443 36.0042648 61.24761643 38 64.875 C38.57234375 65.90753906 39.1446875 66.94007813 39.734375 68.00390625 C40.27578125 68.99003906 40.8171875 69.97617187 41.375 70.9921875 C41.87773438 71.90339355 42.38046875 72.81459961 42.8984375 73.75341797 C44 76 44 76 44 78 C42.68 78 41.36 78 40 78 C39.38125 77.34 38.7625 76.68 38.125 76 C36.14704894 73.74115349 36.14704894 73.74115349 33.25146484 73.67382812 C29.3747891 74.06271826 27.19204654 75.22885063 23.8515625 77.21875 C23.28117752 77.55269272 22.71079254 77.88663544 22.12312317 78.23069763 C20.90940243 78.94265247 19.69897587 79.66024875 18.4916687 80.38302612 C15.36812631 82.25208583 12.22014442 84.07911151 9.07421875 85.91015625 C8.45968338 86.26920547 7.84514801 86.6282547 7.21199036 86.9981842 C2.36863122 89.81724036 -2.53567973 92.46216268 -7.5625 94.9375 C-8.19140137 95.24816406 -8.82030273 95.55882812 -9.46826172 95.87890625 C-16.97262557 99.51944774 -25.32170812 100.64019734 -33.48828125 98.28125 C-35.47219123 97.32589141 -37.20841225 96.27729668 -39 95 C-40.5159375 93.948125 -40.5159375 93.948125 -42.0625 92.875 C-50.64241287 85.15774141 -55.66599661 74.29685034 -57.48046875 63.01171875 C-57.95020731 54.03590363 -54.11577083 47.12280702 -48.3815918 40.42602539 C-46.17052407 38.14384717 -43.68799074 36.55499421 -41 34.875 C-40.41331543 34.50665039 -39.82663086 34.13830078 -39.22216797 33.75878906 C-32.7425632 29.74265512 -26.10220172 25.99009181 -19.4609375 22.24951172 C-14.74349101 19.59148079 -10.11696255 16.86353354 -5.58935547 13.89160156 C-4 13 -4 13 -2 13 C-2 9.04 -2 5.08 -2 1 C-1.34 0.67 -0.68 0.34 0 0 Z " fill="#F7FBFD" transform="translate(806,344)"/>
<path d="M0 0 C1.32 0 2.64 0 4 0 C6.37911233 8.15267308 8.13632834 16.3411655 9.6875 24.6875 C10.02491211 26.47317383 10.02491211 26.47317383 10.36914062 28.29492188 C10.916714 31.19589572 11.46025716 34.09756092 12 37 C10.68 37 9.36 37 8 37 C7.01 34.525 7.01 34.525 6 32 C1.93682432 32.5201182 -0.04431527 33.53640004 -2.9609375 36.38671875 C-3.68023438 37.07830078 -4.39953125 37.76988281 -5.140625 38.48242188 C-5.87796875 39.21009766 -6.6153125 39.93777344 -7.375 40.6875 C-8.83973122 42.10953146 -10.3058606 43.5301243 -11.7734375 44.94921875 C-12.47952148 45.6354834 -13.18560547 46.32174805 -13.91308594 47.02880859 C-15.88282948 48.88932677 -17.90227022 50.65218927 -19.9765625 52.39453125 C-22.98482741 54.64831342 -22.98482741 54.64831342 -24 57 C-22.72640625 57.26554687 -21.4528125 57.53109375 -20.140625 57.8046875 C-14.01785012 59.16397229 -8.08206712 61.06524493 -2.109375 62.96484375 C-1.26375 63.22652344 -0.418125 63.48820312 0.453125 63.7578125 C1.20754883 63.9964502 1.96197266 64.23508789 2.73925781 64.48095703 C5.29670888 65.06812128 7.3873222 65.29592909 10 65 C12.12508244 61.81237635 12.5020163 59.73487777 13 56 C13.99 56 14.98 56 16 56 C16.81979667 59.3315814 17.62948418 62.66554352 18.4375 66 C18.66759766 66.93457031 18.89769531 67.86914062 19.13476562 68.83203125 C20.43487355 74.22088438 21.43414391 79.48452918 22 85 C20.68 85 19.36 85 18 85 C17.04296875 83.4609375 17.04296875 83.4609375 16.1875 81.375 C12.65699183 75.42833284 6.86109657 73.9726821 0.63085938 71.890625 C-2.4864221 70.83533149 -5.57694448 69.71286019 -8.671875 68.59375 C-11.07196691 67.74730213 -13.47301725 66.90356719 -15.875 66.0625 C-17.02758301 65.64814697 -18.18016602 65.23379395 -19.36767578 64.80688477 C-26.06113588 62.5323093 -31.08467115 61.40531501 -38 63 C-39.1456543 63.22635132 -39.1456543 63.22635132 -40.31445312 63.45727539 C-42.65731866 63.93374525 -44.98386519 64.45854827 -47.3125 65 C-48.4890918 65.26683594 -48.4890918 65.26683594 -49.68945312 65.5390625 C-53.13676811 66.32400763 -56.56965646 67.14241411 -60 68 C-60.33 71.3 -60.66 74.6 -61 78 C-62.32 78 -63.64 78 -65 78 C-65.86467523 74.02004098 -66.71912934 70.03803423 -67.56347656 66.05371094 C-67.85237415 64.69453506 -68.14335921 63.33580105 -68.43652344 61.97753906 C-68.86055861 60.00736205 -69.27411457 58.03493904 -69.6875 56.0625 C-69.93886719 54.87785156 -70.19023438 53.69320312 -70.44921875 52.47265625 C-71.01228716 48.92252987 -71.09623464 45.58817712 -71 42 C-70.01 42 -69.02 42 -68 42 C-67.34 43.98 -66.68 45.96 -66 48 C-61.64169716 47.84840686 -57.33565441 47.46652155 -53 47 C-52.00492432 46.90984619 -52.00492432 46.90984619 -50.98974609 46.81787109 C-37.38692213 45.40192746 -30.23109718 38.75431595 -21.04003906 29.09521484 C-17.36148588 25.31716991 -13.39801923 21.84627335 -9.46411133 18.33813477 C-4.99434902 14.25097163 -0.68760953 9.9703382 -0.25 3.625 C-0.1675 2.42875 -0.085 1.2325 0 0 Z " fill="#F8FBFD" transform="translate(856,446)"/>
<path d="M0 0 C2.91697011 0.14104691 5.8334802 0.28764814 8.75 0.4375 C9.9875 0.49647461 9.9875 0.49647461 11.25 0.55664062 C12.44882813 0.61948242 12.44882813 0.61948242 13.671875 0.68359375 C14.4050293 0.72025146 15.13818359 0.75690918 15.89355469 0.79467773 C18.01177605 1.00114785 19.9519456 1.43132086 22 2 C22 3.32 22 4.64 22 6 C21.33613281 6.18175781 20.67226562 6.36351562 19.98828125 6.55078125 C11.40495489 8.94053018 11.40495489 8.94053018 4.8125 14.6875 C2.7233546 18.50559332 1.87866538 21.75311733 1 26 C1.6388916 26.11174561 2.2777832 26.22349121 2.93603516 26.33862305 C10.45050445 27.67621741 17.91340863 29.20789011 25.375 30.8125 C26.59364746 31.07240723 27.81229492 31.33231445 29.06787109 31.60009766 C34.77830001 32.82862125 40.47240158 34.0924551 46.140625 35.50390625 C47.07342285 35.73553467 48.0062207 35.96716309 48.96728516 36.20581055 C50.67284598 36.63525591 52.37594571 37.07466867 54.07568359 37.52661133 C59.79163235 38.9702196 65.11559486 39.2366134 71 39 C71.99 37.02 72.98 35.04 74 33 C74.99 33 75.98 33 77 33 C76.47030818 41.07001064 75.16333777 48.79312161 73.4375 56.6875 C73.20353516 57.78255859 72.96957031 58.87761719 72.72851562 60.00585938 C72.15806137 62.67185989 71.58181776 65.33646071 71 68 C69.68 68.33 68.36 68.66 67 69 C66.96744792 67.01432292 66.93489583 65.02864583 66.90234375 63.04296875 C66.10648767 60.69061922 66.10648767 60.69061922 63.1875 59.41015625 C57.96651967 57.46179244 52.50185297 56.40125095 47.0625 55.25 C45.90548584 54.99903564 44.74847168 54.74807129 43.55639648 54.48950195 C41.0499164 53.94611821 38.54280894 53.40562213 36.03515625 52.86767578 C29.58682617 51.48393861 23.14566286 50.06725775 16.70333862 48.65588379 C14.58969618 48.19345012 12.47569589 47.73268932 10.36157227 47.27246094 C9.69984009 47.12821182 9.03810791 46.98396271 8.35632324 46.83534241 C6.55866592 46.44352657 4.76090397 46.05219086 2.96313477 45.66088867 C0.63127675 45.14079807 -1.68661267 44.59576 -4 44 C-4.85316668 56.18395645 -4.85316668 56.18395645 0 67 C1.05968369 68.12688314 2.14316486 69.23189318 3.25 70.3125 C4.1575 71.199375 5.065 72.08625 6 73 C6 73.99 6 74.98 6 76 C1.31196344 75.26951699 -2.90885555 73.63363115 -7.3125 71.9375 C-8.05306641 71.65583984 -8.79363281 71.37417969 -9.55664062 71.08398438 C-11.37242655 70.39281425 -13.18639899 69.69688311 -15 69 C-14.41588383 63.7699969 -13.57623001 58.78244667 -12.328125 53.66015625 C-11.992193 52.26434118 -11.65634 50.86850709 -11.32055664 49.47265625 C-11.14557648 48.75223145 -10.97059631 48.03180664 -10.79031372 47.28955078 C-7.73304436 34.68817892 -4.88919611 22.07979244 -2.45996094 9.34008789 C-2.27852539 8.39254639 -2.09708984 7.44500488 -1.91015625 6.46875 C-1.75683838 5.64826172 -1.60352051 4.82777344 -1.44555664 3.98242188 C-1 2 -1 2 0 0 Z " fill="#F7FBFD" transform="translate(162,454)"/>
<path d="M0 0 C3.39988121 1.46601695 5.57460259 3.35255686 8.15234375 5.9921875 C9.31733398 7.17361328 9.31733398 7.17361328 10.50585938 8.37890625 C11.70952148 9.61447266 11.70952148 9.61447266 12.9375 10.875 C14.527573 12.4997235 16.11995413 14.12219191 17.71484375 15.7421875 C18.41730225 16.4626123 19.11976074 17.18303711 19.84350586 17.92529297 C22.11843603 20.11394423 24.50808445 22.06435697 27 24 C26.67 25.32 26.34 26.64 26 28 C25.13375 27.484375 24.2675 26.96875 23.375 26.4375 C19.43151407 24.7578671 18.06658629 24.82216227 14 26 C11.15206685 28.20554093 11.15206685 28.20554093 8.5625 31.0625 C8.08441895 31.56056152 7.60633789 32.05862305 7.11376953 32.57177734 C3.88062278 35.96652684 0.7840228 39.4732747 -2.2578125 43.0390625 C-4.2543789 45.28631885 -6.36012946 47.38894927 -8.5 49.5 C-11.86209883 52.82241133 -15.033671 56.22673959 -18.09765625 59.82421875 C-19.56812722 61.50605104 -21.08548396 63.14695697 -22.62109375 64.76953125 C-23.07621338 65.25244629 -23.53133301 65.73536133 -24.00024414 66.23291016 C-25.31434989 67.62332786 -26.63743726 69.0052404 -27.9609375 70.38671875 C-30.07072561 73.09064259 -30.75342688 74.61678737 -31 78 C-30.42481768 80.23377831 -30.42481768 80.23377831 -29 82 C-28.38511719 82.30550781 -27.77023437 82.61101562 -27.13671875 82.92578125 C-24.25401742 84.37503694 -22.15464898 86.40486456 -19.78125 88.5625 C-14.55512309 92.7800761 -9.48351648 92.57501624 -3 92 C0.73855332 91.20151886 4.36536335 90.18108116 8 89 C8.66 90.32 9.32 91.64 10 93 C3.73 97.62 -2.54 102.24 -9 107 C-12.63853878 105.18073061 -14.39967317 103.84063345 -17.18603516 101.02514648 C-18.00012848 100.20767441 -18.8142218 99.39020233 -19.65298462 98.54795837 C-20.52289032 97.66459305 -21.39279602 96.78122772 -22.2890625 95.87109375 C-23.1886972 94.96625748 -24.08833191 94.0614212 -25.01522827 93.12916565 C-27.4017304 90.7278665 -29.78408297 88.32261039 -32.16412354 85.91491699 C-35.52373316 82.51726876 -38.88858207 79.12483739 -42.25619507 75.73512268 C-44.04851575 73.93050682 -45.83815718 72.1232254 -47.62490845 70.31309509 C-48.43269745 69.49877518 -49.24048645 68.68445526 -50.07275391 67.84545898 C-50.78460846 67.12535141 -51.49646301 66.40524384 -52.22988892 65.66331482 C-53.90949874 63.92584209 -53.90949874 63.92584209 -56 63 C-55.67 61.68 -55.34 60.36 -55 59 C-54.2265625 59.5259375 -54.2265625 59.5259375 -53.4375 60.0625 C-49.81570551 61.45549788 -47.75919421 60.98500892 -44 60 C-41.18481537 57.93799263 -38.87333103 55.48591283 -36.5 52.9375 C-35.51 51.91076172 -35.51 51.91076172 -34.5 50.86328125 C-30.70810552 46.90586757 -27.00628216 42.87478297 -23.46875 38.6875 C-21.35233626 36.2558757 -19.04479524 34.03508842 -16.74609375 31.77734375 C-14.93522357 29.93406426 -13.24678646 28.02177201 -11.5625 26.0625 C-8.4179254 22.40452546 -5.06454594 19.0200812 -1.6015625 15.6640625 C0.5786319 13.39878735 0.97602708 12.35959384 1.1875 9.1875 C1.00024109 6.00409845 0.34766743 3.8637933 -1 1 C-0.67 0.67 -0.34 0.34 0 0 Z " fill="#F9FCFE" transform="translate(740,276)"/>
<path d="M0 0 C3.24145508 0.38134766 6.48291016 0.76269531 9.72436523 1.14404297 C10.50368408 1.23572754 11.28300293 1.32741211 12.0859375 1.421875 C15.36197917 1.80729167 18.63802083 2.19270833 21.9140625 2.578125 C22.69338135 2.66980957 23.4727002 2.76149414 24.27563477 2.85595703 C27.51708984 3.23730469 30.75854492 3.61865234 34 4 C33.49844814 9.32498673 30.65564273 13.35205395 27.9375 17.8125 C27.46505859 18.60076172 26.99261719 19.38902344 26.50585938 20.20117188 C25.34368685 22.13812608 24.17495583 24.07078295 23 26 C18.06182476 22.00797951 13.85479673 17.76360333 9.8125 12.875 C8.79972947 11.66276386 7.78544195 10.45179324 6.76953125 9.2421875 C6.29854004 8.67983398 5.82754883 8.11748047 5.34228516 7.53808594 C4.17225474 6.19738175 2.91067697 4.93768497 1.63671875 3.6953125 C0 2 0 2 0 0 Z " fill="#6287B8" transform="translate(202,405)"/>
<path d="M0 0 C3.01342521 2.53808186 4.08688919 5.23081032 5.48046875 8.875 C5.92197266 10.02484375 6.36347656 11.1746875 6.81835938 12.359375 C7.27017578 13.56078125 7.72199219 14.7621875 8.1875 16 C8.88262695 17.80210937 8.88262695 17.80210937 9.59179688 19.640625 C13 28.5953148 13 28.5953148 13 32 C5.08 32 -2.84 32 -11 32 C-10.31571355 28.57856773 -9.73278059 26.02326712 -8.4765625 22.890625 C-8.1775 22.13523438 -7.8784375 21.37984375 -7.5703125 20.6015625 C-7.25835937 19.82554687 -6.94640625 19.04953125 -6.625 18.25 C-4.21442694 12.22356736 -1.98833443 6.17980952 0 0 Z " fill="#6289B9" transform="translate(501,215)"/>
<path d="M0 0 C1.18084671 0.00007553 2.36169342 0.00015106 3.57832336 0.00022888 C4.84306992 0.00539017 6.10781647 0.01055145 7.41088867 0.01586914 C8.71338058 0.01728409 10.0158725 0.01869904 11.35783386 0.02015686 C14.80852197 0.02396184 18.2591675 0.03377475 21.70983887 0.04486084 C25.23583399 0.0551185 28.76183603 0.05966379 32.2878418 0.06469727 C39.19736441 0.07539895 46.10685887 0.09245096 53.01635742 0.11352539 C53.06264653 12.05700699 53.09820919 24.00046733 53.11998177 35.94402027 C53.13043017 41.48956782 53.14460866 47.03505412 53.16723633 52.58056641 C53.18892701 57.92976676 53.20091808 63.2789081 53.20611191 68.62814903 C53.20981446 70.67154558 53.21704436 72.71493881 53.22781754 74.75831032 C53.24228224 77.61482411 53.24433747 80.47109234 53.2434082 83.32763672 C53.25059875 84.17711884 53.25778931 85.02660095 53.26519775 85.90182495 C53.25134019 89.82435368 53.24219566 91.77476803 51.01635742 95.11352539 C51.01635742 64.42352539 51.01635742 33.73352539 51.01635742 2.11352539 C30.55635742 2.11352539 10.09635742 2.11352539 -10.98364258 2.11352539 C-10.98364258 1.78352539 -10.98364258 1.45352539 -10.98364258 1.11352539 C-7.2575182 0.24964732 -3.82138594 -0.00818284 0 0 Z " fill="#7E9ABC" transform="translate(463.983642578125,582.886474609375)"/>
<path d="M0 0 C0.33 0.66 0.66 1.32 1 2 C0.54625 2.886875 0.0925 3.77375 -0.375 4.6875 C-3.13659515 10.588991 -2.76067862 17.58783756 -3 24 C-3.33 24 -3.66 24 -4 24 C-4.33 20.7 -4.66 17.4 -5 14 C-6.49403054 16.98806107 -7.79310745 19.89656201 -9 23 C-9.66 23 -10.32 23 -11 23 C-9.72037658 14.4691772 -6.18765266 6.18765266 0 0 Z " fill="#7390B5" transform="translate(466,423)"/>
<path d="M0 0 C3.61703101 2.83071992 3.13119582 3.78717492 4 9 C-3.92 9 -11.84 9 -20 9 C-20 8.01 -20 7.02 -20 6 C-12.74 6.33 -5.48 6.66 2 7 C1.34 4.69 0.68 2.38 0 0 Z " fill="#6786AD" transform="translate(510,238)"/>
<path d="M0 0 C4.19759919 1.31893273 8.09645985 2.90240838 12.0546875 4.8203125 C13.16328125 5.35527344 14.271875 5.89023437 15.4140625 6.44140625 C16.55617188 6.99699219 17.69828125 7.55257813 18.875 8.125 C20.0403125 8.68832031 21.205625 9.25164062 22.40625 9.83203125 C25.27241534 11.21812761 28.13691978 12.60754522 31 14 C27.38442009 15.2051933 26.85748606 14.74896968 23.55078125 13.12890625 C22.70322266 12.71962891 21.85566406 12.31035156 20.98242188 11.88867188 C20.10134766 11.45103516 19.22027344 11.01339844 18.3125 10.5625 C17.41982422 10.12873047 16.52714844 9.69496094 15.60742188 9.24804688 C13.40049686 8.17408871 11.19845687 7.091161 9 6 C8.67 6.33 8.34 6.66 8 7 C8 7.99 8 8.98 8 10 C6.66370254 8.52351062 5.33103329 7.0437367 4 5.5625 C3.2575 4.73878906 2.515 3.91507812 1.75 3.06640625 C0 1 0 1 0 0 Z " fill="#6786AC" transform="translate(257,323)"/>
<path d="M0 0 C0.66 0.66 1.32 1.32 2 2 C1.36191406 2.62648438 0.72382812 3.25296875 0.06640625 3.8984375 C-0.75988281 4.71570313 -1.58617187 5.53296875 -2.4375 6.375 C-3.26121094 7.18710937 -4.08492187 7.99921875 -4.93359375 8.8359375 C-8.03851109 12.08759007 -8.20430382 14.22430413 -8.5625 18.625 C-8.68818359 20.12933594 -8.68818359 20.12933594 -8.81640625 21.6640625 C-8.87699219 22.43492187 -8.93757812 23.20578125 -9 24 C-9.66 24 -10.32 24 -11 24 C-11.50697875 17.00087673 -11.16339056 12.73872753 -7 7 C-4.375 4.1875 -4.375 4.1875 -2 2 C-1.34 1.34 -0.68 0.68 0 0 Z " fill="#6C8CB5" transform="translate(772,396)"/>
<path d="M0 0 C0.66 0.66 1.32 1.32 2 2 C-0.97 1.67 -3.94 1.34 -7 1 C-7.66 2.32 -8.32 3.64 -9 5 C-10.32774288 6.4610504 -11.70631676 7.87708074 -13.125 9.25 C-13.84945312 9.95640625 -14.57390625 10.6628125 -15.3203125 11.390625 C-15.87460937 11.92171875 -16.42890625 12.4528125 -17 13 C-17.33 12.01 -17.66 11.02 -18 10 C-16.37807179 8.35113941 -14.75236228 6.7059976 -13.125 5.0625 C-12.22007812 4.14597656 -11.31515625 3.22945313 -10.3828125 2.28515625 C-6.61645899 -1.32683851 -5.01388474 -1.14901525 0 0 Z " fill="#6D8CB4" transform="translate(762,301)"/>
<path d="M0 0 C0.66 0.33 1.32 0.66 2 1 C1.3503125 1.61488281 0.700625 2.22976563 0.03125 2.86328125 C-0.8040625 3.67152344 -1.639375 4.47976563 -2.5 5.3125 C-3.3353125 6.11300781 -4.170625 6.91351563 -5.03125 7.73828125 C-7.32828283 9.87737482 -7.32828283 9.87737482 -7 13 C-8.32 13.33 -9.64 13.66 -11 14 C-11 10 -11 10 -8.59375 7.421875 C-7.57240518 6.51990814 -6.54067793 5.62959019 -5.5 4.75 C-4.97535156 4.29109375 -4.45070312 3.8321875 -3.91015625 3.359375 C-2.61550456 2.22949716 -1.30886341 1.11338381 0 0 Z " fill="#EAF5FB" transform="translate(246,310)"/>
<path d="M0 0 C0.66 0.66 1.32 1.32 2 2 C-0.96852125 7.22459741 -3.62704618 9.31352309 -9 12 C-7.54718935 6.67302761 -3.91888622 3.63597198 0 0 Z " fill="#6A89B1" transform="translate(444,566)"/>
<path d="M0 0 C0 4.05480631 -1.54870092 5.84832975 -4 9 C-4.99 9 -5.98 9 -7 9 C-9.15028304 9.94978897 -9.15028304 9.94978897 -11 11 C-7.6189962 6.86378916 -4.33409466 3.18683431 0 0 Z " fill="#738EB1" transform="translate(460,627)"/>
<path d="M0 0 C0.66 0.33 1.32 0.66 2 1 C-2.29 5.29 -6.58 9.58 -11 14 C-11 9.82308582 -8.77013484 7.86318847 -6 5 C-4.05228995 3.24842937 -2.05675499 1.62627139 0 0 Z " fill="#E7F2F9" transform="translate(465,407)"/>
<path d="M0 0 C3.3 0.33 6.6 0.66 10 1 C8.35 2.65 6.7 4.3 5 6 C3.2925002 4.71937515 1.62626404 3.38232443 0 2 C0 1.34 0 0.68 0 0 Z " fill="#6C8CB6" transform="translate(202,405)"/>
<path d="M0 0 C0 0.66 0 1.32 0 2 C-1.74818591 2.22304441 -3.49870323 2.4278645 -5.25 2.625 C-6.22453125 2.74101563 -7.1990625 2.85703125 -8.203125 2.9765625 C-11.13429393 3.00112537 -12.54528964 2.5312717 -15 1 C-9.92928099 0.28832014 -5.11791642 -0.10662326 0 0 Z " fill="#7092BC" transform="translate(547,799)"/>
<path d="M0 0 C0.33 0.99 0.66 1.98 1 3 C-2.3 6.3 -5.6 9.6 -9 13 C-9.66 12.67 -10.32 12.34 -11 12 C-10.54109375 11.55269531 -10.0821875 11.10539063 -9.609375 10.64453125 C-6.16447701 7.25029352 -2.92744915 3.86423288 0 0 Z " fill="#6C8AB2" transform="translate(696,713)"/>
<path d="M0 0 C0.99 0.33 1.98 0.66 3 1 C0.03 3.97 -2.94 6.94 -6 10 C-6.66 9.67 -7.32 9.34 -8 9 C-5.36 6.03 -2.72 3.06 0 0 Z " fill="#6D8DB5" transform="translate(361,408)"/>
<path d="M0 0 C1 2 1 2 0.22265625 4.6015625 C-0.16019531 5.59929687 -0.54304688 6.59703125 -0.9375 7.625 C-1.50791016 9.12933594 -1.50791016 9.12933594 -2.08984375 10.6640625 C-2.39019531 11.43492187 -2.69054687 12.20578125 -3 13 C-5 10 -5 10 -4.875 7.625 C-3.82167152 4.46501455 -2.19439845 2.47754664 0 0 Z " fill="#708AAC" transform="translate(466,423)"/>
<path d="M0 0 C3.26008643 3.16952847 6.22237877 6.39937989 9 10 C5.125 8.125 5.125 8.125 4 7 C3.34 7.66 2.68 8.32 2 9 C1.34 6.03 0.68 3.06 0 0 Z " fill="#6F8CAF" transform="translate(304,281)"/>
<path d="M0 0 C-1.11328125 1.51953125 -1.11328125 1.51953125 -3 3 C-5.91796875 3.07421875 -5.91796875 3.07421875 -9.1875 2.6875 C-10.27417969 2.56761719 -11.36085938 2.44773437 -12.48046875 2.32421875 C-13.31191406 2.21722656 -14.14335938 2.11023438 -15 2 C-15 1.67 -15 1.34 -15 1 C-12.87630763 0.63807496 -10.7509887 0.28568253 -8.625 -0.0625 C-6.84996094 -0.35833984 -6.84996094 -0.35833984 -5.0390625 -0.66015625 C-2 -1 -2 -1 0 0 Z " fill="#728EB1" transform="translate(589,449)"/>
<path d="M0 0 C-1.98 0.99 -1.98 0.99 -4 2 C-3.01 2.66 -2.02 3.32 -1 4 C-3.31 4.33 -5.62 4.66 -8 5 C-8 3.68 -8 2.36 -8 1 C-2.25 -1.125 -2.25 -1.125 0 0 Z " fill="#E5F2FB" transform="translate(361,228)"/>
<path d="M0 0 C0.66 0.33 1.32 0.66 2 1 C-0.64 3.64 -3.28 6.28 -6 9 C-6.33 8.01 -6.66 7.02 -7 6 C-4.69 4.02 -2.38 2.04 0 0 Z " fill="#E6F1FA" transform="translate(300,262)"/>
<path d="M0 0 C1.125 1.625 1.125 1.625 2 4 C1.125 7.25 1.125 7.25 0 10 C-0.33 10 -0.66 10 -1 10 C-1.02689216 8.52093108 -1.04634621 7.04172517 -1.0625 5.5625 C-1.07410156 4.73878906 -1.08570313 3.91507813 -1.09765625 3.06640625 C-1 1 -1 1 0 0 Z " fill="#6284B0" transform="translate(300,523)"/>
<path d="M0 0 C0.33 0 0.66 0 1 0 C1 2.64 1 5.28 1 8 C0.01 8.495 0.01 8.495 -1 9 C-0.67 6.03 -0.34 3.06 0 0 Z M-2 9 C-1.01 9.99 -0.02 10.98 1 12 C-0.32 11.67 -1.64 11.34 -3 11 C-2.67 10.34 -2.34 9.68 -2 9 Z " fill="#CFDEEC" transform="translate(288,374)"/>
</svg>
