<?xml version="1.0" encoding="UTF-8"?>
<svg xmlns="http://www.w3.org/2000/svg" xmlns:xlink="http://www.w3.org/1999/xlink" width="512px" height="512px" viewBox="0 0 512 512" version="1.1">
<defs><clipPath id="circle"><circle cx="256" cy="256" r="245"/></clipPath></defs>
<g id="surface1" clip-path="url(#circle)">
<path style=" stroke:none;fill-rule:nonzero;fill:rgb(37.64706%,53.333336%,73.725492%);fill-opacity:1;" d="M 0 0 C 168.960938 0 337.921875 0 512 0 C 512 168.960938 512 337.921875 512 512 C 343.039062 512 174.078125 512 0 512 C 0 343.039062 0 174.078125 0 0 Z M 0 0 "/>
<path style=" stroke:none;fill-rule:nonzero;fill:rgb(37.64706%,53.725493%,73.725492%);fill-opacity:1;" d="M 261.5 162.5 C 261.875 162.503906 262.246094 162.507812 262.632812 162.511719 C 272.492188 162.65625 282.683594 164.816406 292 168 C 292.40625 168.132812 292.808594 168.265625 293.226562 168.402344 C 303.378906 171.753906 313.28125 176.257812 322 182.5 C 322.3125 182.722656 322.628906 182.949219 322.953125 183.179688 C 332.9375 190.367188 342.601562 198.605469 350 208.5 C 350.585938 209.277344 350.585938 209.277344 351.1875 210.074219 C 362.363281 225.179688 369.816406 242.078125 373.5 260.5 C 373.589844 260.933594 373.679688 261.371094 373.769531 261.820312 C 376.089844 273.714844 376.109375 287.554688 374 299.5 C 373.914062 300 373.828125 300.5 373.738281 301.015625 C 370.5625 318.828125 363.726562 335.871094 353 350.5 C 352.785156 350.800781 352.566406 351.097656 352.34375 351.40625 C 349.726562 355 346.871094 358.335938 343.832031 361.574219 C 342.582031 362.914062 341.367188 364.28125 340.15625 365.65625 C 338.234375 367.792969 336.203125 369.664062 334 371.5 C 333.597656 371.855469 333.199219 372.210938 332.785156 372.578125 C 317.992188 385.46875 300.003906 393.457031 281.125 398.15625 C 280.40625 398.339844 280.40625 398.339844 279.675781 398.523438 C 272.375 400.261719 264.992188 400.667969 257.511719 400.628906 C 256.285156 400.625 255.054688 400.628906 253.828125 400.636719 C 245.960938 400.644531 238.222656 400.015625 230.5625 398.15625 C 230.011719 398.023438 229.460938 397.894531 228.894531 397.757812 C 216.183594 394.632812 203.980469 389.675781 193 382.5 C 192.492188 382.179688 191.984375 381.859375 191.460938 381.527344 C 185.152344 377.453125 179.414062 372.695312 174 367.5 C 173.691406 367.207031 173.382812 366.917969 173.066406 366.617188 C 167.984375 361.78125 163.558594 356.71875 159.5 351 C 159.246094 350.648438 158.996094 350.296875 158.734375 349.933594 C 152.800781 341.609375 148.050781 332.582031 144.5 323 C 144.191406 322.269531 144.191406 322.269531 143.875 321.523438 C 134.433594 298.9375 134.660156 271.714844 141.5 248.5 C 141.664062 247.9375 141.664062 247.9375 141.832031 247.367188 C 148.578125 224.761719 162.820312 203.457031 181.5 189 C 182.125 188.496094 182.753906 187.996094 183.378906 187.492188 C 200.761719 173.683594 221.332031 165.605469 243.324219 163.132812 C 244.082031 163.046875 244.839844 162.953125 245.597656 162.855469 C 250.863281 162.1875 256.203125 162.425781 261.5 162.5 Z M 261.5 162.5 "/>
<path style=" stroke:none;fill-rule:nonzero;fill:rgb(98.431373%,99.215686%,99.607843%);fill-opacity:1;" d="M 261.5 162.5 C 261.875 162.503906 262.246094 162.507812 262.632812 162.511719 C 272.492188 162.65625 282.683594 164.816406 292 168 C 292.40625 168.132812 292.808594 168.265625 293.226562 168.402344 C 303.378906 171.753906 313.28125 176.257812 322 182.5 C 322.3125 182.722656 322.628906 182.949219 322.953125 183.179688 C 332.9375 190.367188 342.601562 198.605469 350 208.5 C 350.585938 209.277344 350.585938 209.277344 351.1875 210.074219 C 362.363281 225.179688 369.816406 242.078125 373.5 260.5 C 373.589844 260.933594 373.679688 261.371094 373.769531 261.820312 C 376.089844 273.714844 376.109375 287.554688 374 299.5 C 373.914062 300 373.828125 300.5 373.738281 301.015625 C 370.5625 318.828125 363.726562 335.871094 353 350.5 C 352.785156 350.800781 352.566406 351.097656 352.34375 351.40625 C 349.726562 355 346.871094 358.335938 343.832031 361.574219 C 342.582031 362.914062 341.367188 364.28125 340.15625 365.65625 C 338.234375 367.792969 336.203125 369.664062 334 371.5 C 333.597656 371.855469 333.199219 372.210938 332.785156 372.578125 C 317.992188 385.46875 300.003906 393.457031 281.125 398.15625 C 280.40625 398.339844 280.40625 398.339844 279.675781 398.523438 C 272.375 400.261719 264.992188 400.667969 257.511719 400.628906 C 256.285156 400.625 255.054688 400.628906 253.828125 400.636719 C 245.960938 400.644531 238.222656 400.015625 230.5625 398.15625 C 230.011719 398.023438 229.460938 397.894531 228.894531 397.757812 C 216.183594 394.632812 203.980469 389.675781 193 382.5 C 192.492188 382.179688 191.984375 381.859375 191.460938 381.527344 C 185.152344 377.453125 179.414062 372.695312 174 367.5 C 173.691406 367.207031 173.382812 366.917969 173.066406 366.617188 C 167.984375 361.78125 163.558594 356.71875 159.5 351 C 159.246094 350.648438 158.996094 350.296875 158.734375 349.933594 C 152.800781 341.609375 148.050781 332.582031 144.5 323 C 144.191406 322.269531 144.191406 322.269531 143.875 321.523438 C 134.433594 298.9375 134.660156 271.714844 141.5 248.5 C 141.664062 247.9375 141.664062 247.9375 141.832031 247.367188 C 148.578125 224.761719 162.820312 203.457031 181.5 189 C 182.125 188.496094 182.753906 187.996094 183.378906 187.492188 C 200.761719 173.683594 221.332031 165.605469 243.324219 163.132812 C 244.082031 163.046875 244.839844 162.953125 245.597656 162.855469 C 250.863281 162.1875 256.203125 162.425781 261.5 162.5 Z M 234.5 175.5 C 233.804688 175.640625 233.804688 175.640625 233.097656 175.785156 C 210.664062 180.40625 188.570312 193.113281 174 211 C 173.554688 211.527344 173.109375 212.054688 172.664062 212.578125 C 160.6875 226.957031 153.09375 243.707031 149.5 262 C 149.367188 262.632812 149.367188 262.632812 149.230469 263.28125 C 146.613281 275.867188 147.269531 290.304688 149.8125 302.8125 C 149.878906 303.136719 149.945312 303.460938 150.011719 303.796875 C 151.1875 309.566406 152.742188 315.058594 155 320.5 C 155.171875 320.914062 155.34375 321.332031 155.523438 321.761719 C 161.382812 335.695312 169.625 347.542969 180 358.5 C 180.320312 358.839844 180.640625 359.183594 180.96875 359.53125 C 183.441406 362.097656 186.199219 364.308594 189 366.5 C 189.273438 366.714844 189.546875 366.929688 189.828125 367.148438 C 194.929688 371.113281 200.328125 374.414062 206 377.5 C 206.347656 377.6875 206.691406 377.878906 207.050781 378.074219 C 227.488281 389.089844 253.234375 392.949219 276 388 C 276.914062 387.828125 276.914062 387.828125 277.84375 387.65625 C 279.578125 387.316406 281.285156 386.925781 283 386.5 C 283.613281 386.347656 284.226562 386.199219 284.859375 386.042969 C 300.035156 382.0625 314.171875 374.238281 326 364 C 326.40625 363.648438 326.816406 363.292969 327.234375 362.929688 C 342.746094 349.242188 354.125 331.890625 360 312 C 360.171875 311.449219 360.34375 310.902344 360.523438 310.335938 C 363.273438 300.945312 364.1875 291.488281 364.1875 281.75 C 364.1875 281.160156 364.1875 281.160156 364.191406 280.558594 C 364.1875 272.59375 363.511719 264.792969 361.65625 257.03125 C 361.460938 256.203125 361.460938 256.203125 361.261719 255.359375 C 360.050781 250.410156 358.457031 245.699219 356.5 241 C 356.347656 240.625 356.195312 240.25 356.035156 239.859375 C 350.578125 226.582031 342.292969 215.40625 332.5 205 C 332.191406 204.671875 331.882812 204.339844 331.566406 204 C 329.082031 201.425781 326.308594 199.207031 323.5 197 C 323.210938 196.769531 322.921875 196.539062 322.621094 196.300781 C 298.011719 176.816406 265.25 169.074219 234.5 175.5 Z M 234.5 175.5 "/>
<path style=" stroke:none;fill-rule:nonzero;fill:rgb(98.039216%,98.823529%,99.607843%);fill-opacity:1;" d="M 251.5625 196.75 C 252.015625 196.753906 252.46875 196.753906 252.9375 196.757812 C 263 197.007812 270.324219 202.082031 277.46875 208.75 C 282.476562 213.40625 287.105469 217.382812 294.226562 217.179688 C 296.96875 216.796875 298.6875 214.953125 300.5 213 C 301.25 213.5 301.25 213.5 302 214.5 C 302.660156 218.96875 300.660156 223.574219 298.09375 227.1875 C 294.875 231.082031 291.054688 234.039062 286 235 C 278.566406 235.453125 272.707031 234.183594 266.976562 229.203125 C 264.800781 227.257812 262.710938 225.230469 260.6875 223.125 C 257.460938 219.84375 253.175781 216.46875 248.46875 216.34375 C 246.621094 216.398438 245.15625 216.617188 243.5 217.5 C 243.753906 215.277344 244.417969 214.082031 246 212.5 C 248.5 210.792969 250.957031 209.960938 254 210.5 C 259 211.816406 262.46875 215.050781 266.15625 218.515625 C 270.996094 223.050781 276.800781 228.429688 283.71875 228.75 C 287.148438 228.613281 290.195312 227.617188 292.8125 225.375 C 293.039062 225.085938 293.265625 224.796875 293.5 224.5 C 293.210938 224.578125 292.925781 224.660156 292.628906 224.742188 C 288.757812 225.628906 285.449219 224.871094 282 223 C 278.308594 220.601562 275.125 217.738281 271.933594 214.730469 C 265.929688 209.113281 259.78125 204.65625 251.269531 204.816406 C 246.9375 205.265625 244.015625 207.496094 241.3125 210.8125 C 238.765625 214.53125 238.539062 218.589844 239 223 C 240.359375 229.273438 245.363281 233.183594 250.5 236.5 C 253.183594 238.09375 255.910156 239.601562 258.640625 241.109375 C 262.421875 243.242188 265.734375 245.640625 269 248.5 C 269.375 248.828125 269.753906 249.15625 270.140625 249.492188 C 275.992188 254.71875 279.027344 262.726562 279.460938 270.398438 C 279.472656 270.761719 279.488281 271.125 279.5 271.5 C 287.269531 271.09375 287.269531 271.09375 294.5 268.5 C 295.066406 268.199219 295.632812 267.902344 296.21875 267.59375 C 297.871094 266.183594 298.296875 265.035156 299 263 C 300.5 263.5 300.5 263.5 301.5 265 C 302.289062 272.253906 301.011719 277.800781 296.59375 283.75 C 293.097656 287.78125 288.625 290.089844 283.5 291.5 C 282.332031 291.515625 281.167969 291.519531 280 291.5 C 280.003906 292.289062 280.003906 292.289062 280.011719 293.097656 C 280.039062 298.097656 280.0625 303.097656 280.078125 308.101562 C 280.085938 310.671875 280.097656 313.242188 280.113281 315.8125 C 280.128906 318.296875 280.136719 320.785156 280.140625 323.269531 C 280.144531 324.214844 280.152344 325.15625 280.160156 326.097656 C 280.253906 337.707031 278.441406 348.265625 270.21875 357.09375 C 265.289062 361.785156 259.445312 364.15625 253 366 C 252.695312 366.089844 252.390625 366.179688 252.074219 366.269531 C 245.148438 367.753906 236.855469 367.066406 230.5 364 C 229.714844 363.628906 229.714844 363.628906 228.910156 363.246094 C 220.847656 358.992188 216.046875 351.917969 213.34375 343.40625 C 211.132812 334.390625 212.230469 325.324219 216.847656 317.3125 C 219.496094 312.984375 223.03125 309.425781 227.5 307 C 227.84375 306.792969 228.1875 306.589844 228.539062 306.375 C 233.125 304.058594 239.167969 304.394531 244.117188 305.296875 C 247.375 306.394531 249.578125 308.703125 251.5 311.5 C 252.976562 314.492188 253.09375 318.015625 252.140625 321.210938 C 250.9375 323.796875 249.355469 325.265625 246.84375 326.625 C 244.550781 327.265625 242.582031 327.503906 240.40625 326.492188 C 238.777344 325.5 237.230469 324.472656 236 323 C 236 322.503906 236 322.011719 236 321.5 C 235.671875 321.5 235.339844 321.5 235 321.5 C 232.730469 328.636719 232.554688 335.835938 235.953125 342.617188 C 236.476562 343.539062 236.476562 343.539062 237.3125 344.304688 C 238 345 238 345 238 346 C 238.660156 346.34375 239.328125 346.671875 240 347 C 240.546875 347.269531 241.09375 347.535156 241.65625 347.8125 C 244.863281 349.007812 247.359375 348.527344 250.5 347.5 C 249.269531 349.757812 248.113281 351.101562 245.734375 352.148438 C 242.757812 352.996094 239.597656 353.160156 236.703125 351.964844 C 231.898438 348.957031 229.207031 344.605469 227 339.5 C 226.828125 339.117188 226.65625 338.734375 226.480469 338.335938 C 224.183594 332.1875 224.941406 324.40625 227.5 318.5 C 228.265625 316.953125 229.078125 315.460938 230 314 C 224.570312 318.441406 220.597656 323.910156 219.5 331 C 219.03125 338.730469 220.296875 345.78125 225.34375 351.875 C 227.429688 354.109375 229.773438 355.644531 232.5 357 C 232.867188 357.1875 233.238281 357.371094 233.617188 357.5625 C 238 358.945312 243.738281 358.679688 247.875 356.75 C 252.859375 353.769531 255.492188 349.398438 256.929688 343.839844 C 258.09375 338.097656 258.238281 332.5 258.257812 326.65625 C 258.265625 325.636719 258.273438 324.617188 258.28125 323.597656 C 258.304688 320.941406 258.320312 318.285156 258.335938 315.625 C 258.351562 312.90625 258.371094 310.183594 258.394531 307.460938 C 258.4375 302.140625 258.472656 296.820312 258.5 291.5 C 254.773438 291.542969 251.050781 291.589844 247.324219 291.644531 C 245.59375 291.667969 243.863281 291.691406 242.132812 291.710938 C 240.132812 291.734375 238.136719 291.761719 236.136719 291.792969 C 235.222656 291.800781 235.222656 291.800781 234.289062 291.808594 C 223.882812 291.933594 223.882812 291.933594 215.089844 296.921875 C 214.128906 298.21875 213.507812 299.472656 213 301 C 211.5 300.5 211.5 300.5 210.917969 299.410156 C 209.152344 293.453125 211.277344 288.148438 214.0625 282.9375 C 217.789062 276.84375 223.402344 273.394531 230.292969 271.714844 C 232.699219 271.285156 235.136719 271.320312 237.578125 271.292969 C 238.148438 271.285156 238.722656 271.273438 239.308594 271.261719 C 241.125 271.234375 242.9375 271.210938 244.75 271.1875 C 245.984375 271.167969 247.21875 271.148438 248.453125 271.128906 C 251.46875 271.082031 254.484375 271.039062 257.5 271 C 255.832031 264.957031 252.34375 262.234375 247.027344 259.144531 C 245.472656 258.285156 243.910156 257.4375 242.34375 256.59375 C 232.398438 251.117188 224.847656 245.160156 221.027344 234.136719 C 220.734375 232.910156 220.585938 231.757812 220.5 230.5 C 220.460938 229.925781 220.421875 229.351562 220.378906 228.757812 C 220.09375 220.519531 223.097656 213.484375 228.339844 207.207031 C 234.398438 200.902344 242.765625 196.6875 251.5625 196.75 Z M 251.5625 196.75 "/>
<path style=" stroke:none;fill-rule:nonzero;fill:rgb(39.215687%,54.11765%,73.333335%);fill-opacity:1;" d="M 233 211.5 C 233.164062 211.828125 233.328125 212.160156 233.5 212.5 C 233.148438 213.261719 233.148438 213.261719 232.792969 214.035156 C 231.820312 216.179688 231.769531 218.109375 231.8125 220.4375 C 231.816406 220.835938 231.824219 221.234375 231.828125 221.648438 C 231.902344 224.496094 232.183594 226.933594 233.5 229.5 C 233.792969 230.101562 233.792969 230.101562 234.09375 230.71875 C 238.289062 238.519531 246.769531 242.582031 254.253906 246.664062 C 257.367188 248.378906 260.21875 250.277344 263 252.5 C 263.496094 252.882812 263.992188 253.265625 264.503906 253.65625 C 266.089844 254.992188 267.222656 256.5625 268.3125 258.3125 C 268.503906 258.617188 268.699219 258.921875 268.898438 259.238281 C 271.910156 264.148438 273.097656 268.96875 273.03125 274.6875 C 273.027344 275.054688 273.027344 275.421875 273.023438 275.804688 C 273.019531 276.703125 273.007812 277.601562 273 278.5 C 275.230469 278.460938 277.457031 278.402344 279.6875 278.34375 C 280.3125 278.332031 280.9375 278.320312 281.585938 278.308594 C 286.535156 278.167969 290.636719 277.410156 295 275 C 293.75 278.867188 291.296875 280.910156 287.859375 282.835938 C 284.203125 284.617188 280.832031 285.089844 276.816406 285.035156 C 276.265625 285.03125 276.265625 285.03125 275.699219 285.027344 C 274.800781 285.019531 273.898438 285.011719 273 285 C 273.003906 285.949219 273.003906 285.949219 273.011719 286.914062 C 273.039062 292.886719 273.0625 298.859375 273.078125 304.832031 C 273.085938 307.902344 273.097656 310.972656 273.113281 314.042969 C 273.128906 317.011719 273.136719 319.976562 273.140625 322.945312 C 273.144531 324.070312 273.152344 325.199219 273.160156 326.328125 C 273.238281 337.613281 273.238281 337.613281 271.5 342.5 C 271.351562 342.953125 271.199219 343.40625 271.046875 343.871094 C 269.085938 349.570312 264.632812 354.183594 259.53125 357.28125 C 258.773438 357.636719 258.773438 357.636719 258 358 C 257.671875 357.835938 257.339844 357.671875 257 357.5 C 257.445312 357.035156 257.886719 356.570312 258.34375 356.09375 C 265.015625 348.226562 264.800781 337.707031 264.804688 328.015625 C 264.8125 326.773438 264.820312 325.527344 264.828125 324.28125 C 264.851562 321.03125 264.863281 317.777344 264.867188 314.527344 C 264.878906 311.195312 264.898438 307.867188 264.921875 304.539062 C 264.957031 298.027344 264.984375 291.511719 265 285 C 260.019531 285.019531 255.039062 285.050781 250.054688 285.09375 C 247.742188 285.113281 245.429688 285.128906 243.117188 285.136719 C 240.878906 285.144531 238.640625 285.160156 236.40625 285.183594 C 235.554688 285.191406 234.707031 285.195312 233.855469 285.195312 C 227.824219 285.203125 222.75 285.707031 217.5 289 C 218.980469 284.753906 222.507812 282.09375 226.445312 280.140625 C 231.246094 278.160156 236.699219 278.359375 241.804688 278.402344 C 242.480469 278.402344 243.15625 278.40625 243.832031 278.40625 C 245.582031 278.410156 247.332031 278.421875 249.085938 278.429688 C 250.882812 278.441406 252.679688 278.445312 254.476562 278.453125 C 257.984375 278.460938 261.492188 278.480469 265 278.5 C 264.785156 276.902344 264.558594 275.304688 264.332031 273.707031 C 264.273438 273.257812 264.210938 272.808594 264.148438 272.347656 C 263.199219 265.753906 260.050781 260.945312 254.96875 256.625 C 252.089844 254.492188 248.925781 252.816406 245.8125 251.0625 C 237.835938 246.5625 230.542969 241.640625 227.34375 232.65625 C 225.976562 225.980469 227.273438 220.109375 230.84375 214.40625 C 232.351562 212.148438 232.351562 212.148438 233 211.5 Z M 233 211.5 "/>
<path style=" stroke:none;fill-rule:nonzero;fill:rgb(97.254902%,98.431373%,99.215686%);fill-opacity:1;" d="M 217.40625 109.28125 C 221.8125 112.496094 224.734375 117.652344 225.789062 122.953125 C 226.605469 128.949219 226.027344 134.476562 222.34375 139.4375 C 221.742188 140.136719 221.128906 140.824219 220.5 141.5 C 220.261719 141.765625 220.023438 142.03125 219.777344 142.304688 C 214.769531 147.191406 206.8125 149.433594 200.332031 151.578125 C 199.039062 152.007812 197.746094 152.445312 196.453125 152.882812 C 195.625 153.164062 194.800781 153.441406 193.972656 153.71875 C 193.585938 153.847656 193.203125 153.976562 192.804688 154.113281 C 190.117188 155 190.117188 155 189 155 C 189 154.339844 189 153.679688 189 153 C 189.320312 152.855469 189.640625 152.710938 189.96875 152.5625 C 191.074219 152.085938 191.074219 152.085938 191.5 151 C 191.671875 148.054688 191.289062 145.804688 190.3125 143.039062 C 190.1875 142.675781 190.0625 142.308594 189.933594 141.933594 C 189.535156 140.753906 189.128906 139.582031 188.71875 138.40625 C 188.441406 137.597656 188.164062 136.785156 187.886719 135.976562 C 187.476562 134.769531 187.0625 133.5625 186.648438 132.359375 C 185.871094 130.097656 185.117188 127.832031 184.390625 125.554688 C 184.238281 125.070312 184.082031 124.585938 183.925781 124.085938 C 183.648438 123.222656 183.378906 122.359375 183.117188 121.496094 C 182.4375 119.390625 181.859375 117.847656 180 116.5 C 178.167969 116.332031 178.167969 116.332031 176.5 116.5 C 176.5 115.839844 176.5 115.179688 176.5 114.5 C 178.988281 113.605469 181.476562 112.71875 183.964844 111.832031 C 184.808594 111.53125 185.648438 111.230469 186.492188 110.929688 C 207.472656 103.382812 207.472656 103.382812 217.40625 109.28125 Z M 217.40625 109.28125 "/>
<path style=" stroke:none;fill-rule:nonzero;fill:rgb(97.647059%,98.823529%,99.215686%);fill-opacity:1;" d="M 158 125.5 C 157.5625 127.9375 157.5625 127.9375 157 128.5 C 156.828125 130.414062 156.777344 131.613281 157.757812 133.296875 C 158.113281 133.707031 158.472656 134.113281 158.84375 134.53125 C 159.457031 135.234375 159.457031 135.234375 160.078125 135.949219 C 160.550781 136.46875 161.023438 136.984375 161.5 137.5 C 161.894531 137.929688 161.894531 137.929688 162.292969 138.367188 C 163.6875 139.882812 165.085938 141.390625 166.496094 142.890625 C 168.210938 144.71875 169.859375 146.605469 171.5 148.5 C 175.074219 152.980469 175.074219 152.980469 179.5 156.5 C 181.351562 156.507812 181.351562 156.507812 183 156 C 183.496094 156 183.988281 156 184.5 156 C 183.699219 158.089844 182.15625 159.382812 180.53125 160.84375 C 180.242188 161.105469 179.957031 161.367188 179.660156 161.632812 C 178.777344 162.429688 177.890625 163.214844 177 164 C 176.730469 164.238281 176.460938 164.480469 176.179688 164.726562 C 172.941406 167.566406 172.941406 167.566406 171.5 168.5 C 170.757812 168.253906 170.757812 168.253906 170 168 C 170.164062 167.742188 170.328125 167.484375 170.5 167.21875 C 171.242188 165.414062 171.316406 164.457031 171 162.5 C 168.722656 158.804688 165.367188 155.683594 162.410156 152.515625 C 161.027344 151.039062 159.691406 149.523438 158.367188 147.992188 C 156.605469 145.972656 154.796875 143.988281 153 142 C 153 143.40625 153.175781 144.238281 153.59375 145.554688 C 153.726562 145.96875 153.855469 146.378906 153.992188 146.804688 C 154.132812 147.253906 154.277344 147.699219 154.425781 148.160156 C 154.574219 148.625 154.722656 149.09375 154.875 149.574219 C 155.191406 150.5625 155.507812 151.554688 155.824219 152.546875 C 156.300781 154.03125 156.777344 155.519531 157.25 157.007812 C 157.558594 157.972656 157.867188 158.941406 158.175781 159.910156 C 158.402344 160.625 158.402344 160.625 158.636719 161.351562 C 159.359375 163.589844 160.101562 165.816406 160.917969 168.023438 C 161.058594 168.410156 161.203125 168.800781 161.347656 169.199219 C 161.617188 169.914062 161.886719 170.628906 162.164062 171.339844 C 162.878906 173.253906 163.132812 174.53125 162.5 176.5 C 161.726562 176.851562 161.726562 176.851562 160.5 177 C 159.234375 176.511719 158.085938 175.996094 156.882812 175.382812 C 156.527344 175.207031 156.171875 175.035156 155.804688 174.851562 C 154.648438 174.28125 153.496094 173.703125 152.34375 173.125 C 151.550781 172.734375 150.757812 172.339844 149.964844 171.949219 C 148.382812 171.167969 146.800781 170.386719 145.222656 169.601562 C 142.253906 168.125 139.269531 166.683594 136.28125 165.25 C 135.816406 165.023438 135.355469 164.800781 134.878906 164.570312 C 134.453125 164.367188 134.03125 164.164062 133.59375 163.953125 C 133.234375 163.78125 132.875 163.605469 132.503906 163.425781 C 131.511719 163.003906 130.554688 162.730469 129.5 162.5 C 130.078125 163.171875 130.078125 163.171875 130.671875 163.855469 C 133.6875 167.351562 136.632812 170.882812 139.5 174.5 C 140.621094 175.910156 141.746094 177.316406 142.875 178.71875 C 143.152344 179.066406 143.429688 179.417969 143.714844 179.777344 C 145.589844 182.183594 145.589844 182.183594 148 184 C 149.792969 183.875 151.296875 183.566406 153 183 C 153 185 153 185 152.296875 185.90625 C 151.8125 186.359375 151.8125 186.359375 151.320312 186.820312 C 150.96875 187.148438 150.617188 187.476562 150.253906 187.816406 C 149.882812 188.15625 149.507812 188.496094 149.125 188.84375 C 148.761719 189.1875 148.394531 189.53125 148.019531 189.886719 C 145.023438 192.65625 145.023438 192.65625 143 193 C 143 191.5 143 191.5 143.5 190.5 C 144.035156 187.832031 143.914062 186.640625 142.414062 184.320312 C 141.230469 182.78125 139.980469 181.296875 138.710938 179.828125 C 137.753906 178.710938 136.84375 177.5625 135.9375 176.40625 C 133.808594 173.757812 131.664062 171.121094 129.5 168.5 C 129.265625 168.214844 129.03125 167.933594 128.789062 167.640625 C 128.050781 166.746094 127.304688 165.859375 126.5625 164.96875 C 126.214844 164.546875 126.214844 164.546875 125.859375 164.121094 C 124.796875 162.855469 123.886719 161.921875 122.5 161 C 120.792969 161.183594 119.15625 161.554688 117.5 162 C 117.5 160 117.5 160 118.5625 158.835938 C 119.035156 158.425781 119.511719 158.015625 120 157.59375 C 120.507812 157.15625 121.015625 156.714844 121.523438 156.277344 C 122.253906 155.644531 122.253906 155.644531 123 155 C 123.378906 154.628906 123.757812 154.261719 124.148438 153.878906 C 124.480469 153.558594 124.8125 153.238281 125.15625 152.90625 C 125.441406 152.621094 125.730469 152.335938 126.023438 152.039062 C 127.527344 151.207031 128.328125 151.582031 130 152 C 131.785156 152.761719 133.507812 153.644531 135.234375 154.53125 C 135.738281 154.78125 136.238281 155.035156 136.753906 155.292969 C 138.347656 156.097656 139.9375 156.90625 141.53125 157.71875 C 143.125 158.527344 144.71875 159.332031 146.316406 160.140625 C 147.308594 160.640625 148.296875 161.140625 149.285156 161.644531 C 149.964844 161.988281 149.964844 161.988281 150.652344 162.339844 C 151.046875 162.539062 151.441406 162.738281 151.847656 162.945312 C 153.046875 163.523438 154.261719 164.019531 155.5 164.5 C 154.515625 160.753906 153.40625 157.070312 152.195312 153.390625 C 151.855469 152.347656 151.515625 151.304688 151.179688 150.261719 C 150.648438 148.636719 150.117188 147.011719 149.585938 145.390625 C 149.066406 143.808594 148.550781 142.226562 148.039062 140.640625 C 147.878906 140.15625 147.714844 139.667969 147.546875 139.167969 C 147.402344 138.714844 147.257812 138.261719 147.109375 137.796875 C 146.976562 137.402344 146.847656 137.003906 146.714844 136.59375 C 146.472656 135.359375 146.546875 134.671875 147 133.5 C 148.109375 132.445312 148.109375 132.445312 149.53125 131.34375 C 151.660156 129.671875 153.695312 127.953125 155.671875 126.109375 C 156.5 125.5 156.5 125.5 158 125.5 Z M 158 125.5 "/>
<path style=" stroke:none;fill-rule:nonzero;fill:rgb(97.254902%,98.431373%,99.215686%);fill-opacity:1;" d="M 294.5 101 C 295.492188 101.179688 296.480469 101.378906 297.453125 101.632812 C 298.671875 101.921875 299.78125 102.085938 301.015625 102.226562 C 303.519531 102.636719 305.605469 103.246094 307.5 105 C 309.582031 108.507812 310.5625 112.566406 311.640625 116.476562 C 312.632812 120.066406 313.902344 123.535156 315.1875 127.03125 C 316.683594 131.167969 318.128906 135.320312 319.5 139.5 C 319.675781 139.007812 319.847656 138.511719 320.027344 138.003906 C 320.679688 136.152344 321.328125 134.304688 321.980469 132.457031 C 322.261719 131.660156 322.542969 130.863281 322.824219 130.066406 C 323.230469 128.914062 323.636719 127.761719 324.039062 126.609375 C 324.226562 126.082031 324.226562 126.082031 324.414062 125.546875 C 325.03125 123.800781 325.664062 122.070312 326.324219 120.34375 C 326.996094 118.511719 327.339844 117.417969 327 115.5 C 325.800781 114.175781 325.800781 114.175781 324.5 113 C 324.171875 111.925781 324.171875 111.925781 324 111 C 326.976562 111.703125 329.855469 112.578125 332.75 113.5625 C 333.160156 113.699219 333.574219 113.839844 333.996094 113.984375 C 334.996094 114.320312 336 114.660156 337 115 C 337 115.496094 337 115.988281 337 116.5 C 336.007812 116.613281 335.015625 116.726562 334.023438 116.84375 C 332.902344 116.984375 332.902344 116.984375 331.5 117.5 C 330.949219 118.828125 330.949219 118.828125 330.5 120.5 C 330.277344 121.160156 330.046875 121.816406 329.816406 122.46875 C 329.625 123.007812 329.625 123.007812 329.433594 123.558594 C 329.300781 123.9375 329.167969 124.320312 329.03125 124.710938 C 328.886719 125.117188 328.746094 125.519531 328.597656 125.9375 C 327.824219 128.152344 327.046875 130.367188 326.265625 132.582031 C 324.851562 136.609375 323.441406 140.636719 322.109375 144.695312 C 321.90625 145.296875 321.707031 145.902344 321.5 146.523438 C 321.132812 147.628906 320.773438 148.738281 320.421875 149.847656 C 320.261719 150.332031 320.097656 150.8125 319.933594 151.3125 C 319.800781 151.726562 319.667969 152.140625 319.527344 152.566406 C 319 153.5 319 153.5 318.097656 153.949219 C 316.550781 154.019531 315.824219 153.835938 314.5 153 C 313.835938 151.691406 313.355469 150.527344 312.898438 149.148438 C 312.691406 148.558594 312.691406 148.558594 312.480469 147.957031 C 312.03125 146.671875 311.59375 145.382812 311.15625 144.09375 C 310.847656 143.207031 310.539062 142.320312 310.230469 141.433594 C 309.453125 139.207031 308.691406 136.980469 307.929688 134.75 C 307.292969 132.894531 306.648438 131.042969 306 129.191406 C 304.128906 123.808594 302.292969 118.410156 300.5 113 C 299.660156 114.257812 299.203125 115.175781 298.707031 116.574219 C 298.558594 116.988281 298.410156 117.402344 298.257812 117.832031 C 298.097656 118.28125 297.941406 118.730469 297.78125 119.191406 C 297.617188 119.65625 297.453125 120.121094 297.28125 120.597656 C 296.9375 121.582031 296.589844 122.566406 296.246094 123.550781 C 295.722656 125.046875 295.191406 126.542969 294.660156 128.035156 C 294.324219 128.992188 293.988281 129.953125 293.65625 130.910156 C 293.496094 131.351562 293.335938 131.792969 293.175781 132.25 C 292.265625 134.882812 291.304688 137.679688 291.5 140.5 C 292.636719 141.925781 292.636719 141.925781 294 143 C 294.332031 144.070312 294.332031 144.070312 294.5 145 C 291.316406 144.34375 288.289062 143.492188 285.21875 142.4375 C 284.605469 142.230469 284.605469 142.230469 283.980469 142.015625 C 282.984375 141.679688 281.992188 141.339844 281 141 C 281.164062 140.503906 281.328125 140.011719 281.5 139.5 C 282.476562 139.453125 283.453125 139.402344 284.429688 139.351562 C 286.054688 138.816406 286.53125 137.90625 287.5 136.5 C 288.179688 135.003906 288.714844 133.464844 289.25 131.90625 C 289.484375 131.238281 289.484375 131.238281 289.726562 130.558594 C 290.226562 129.132812 290.722656 127.707031 291.21875 126.28125 C 291.550781 125.339844 291.878906 124.398438 292.210938 123.457031 C 292.851562 121.636719 293.488281 119.816406 294.121094 117.996094 C 294.664062 116.445312 295.214844 114.90625 295.792969 113.371094 C 296.023438 112.757812 296.25 112.144531 296.484375 111.515625 C 296.683594 110.996094 296.882812 110.476562 297.085938 109.945312 C 297.539062 108.367188 297.664062 107.132812 297.5 105.5 C 296.300781 104.175781 296.300781 104.175781 295 103 C 294.671875 101.925781 294.671875 101.925781 294.5 101 Z M 294.5 101 "/>
<path style=" stroke:none;fill-rule:nonzero;fill:rgb(96.470588%,98.039216%,99.215686%);fill-opacity:1;" d="M 252.582031 96.902344 C 253.191406 96.917969 253.191406 96.917969 253.8125 96.9375 C 254.425781 96.949219 254.425781 96.949219 255.050781 96.964844 C 255.519531 96.980469 255.519531 96.980469 256 97 C 256.792969 98.8125 257.585938 100.625 258.375 102.4375 C 258.597656 102.945312 258.820312 103.449219 259.046875 103.972656 C 259.265625 104.476562 259.484375 104.976562 259.710938 105.496094 C 259.910156 105.953125 260.109375 106.40625 260.3125 106.875 C 261.058594 108.632812 261.765625 110.402344 262.46875 112.175781 C 263.910156 115.773438 265.398438 119.347656 266.886719 122.925781 C 267.296875 123.917969 267.707031 124.90625 268.113281 125.898438 C 268.707031 127.34375 269.304688 128.785156 269.90625 130.226562 C 270.085938 130.671875 270.265625 131.113281 270.453125 131.566406 C 271.390625 133.804688 272.277344 135.738281 274 137.5 C 275.5625 138.175781 275.5625 138.175781 277 138.5 C 277 139.160156 277 139.820312 277 140.5 C 271.058594 140.5 265.121094 140.5 259 140.5 C 259 139.839844 259 139.179688 259 138.5 C 260.238281 138.253906 260.238281 138.253906 261.5 138 C 261.824219 134.632812 260.953125 132.371094 259.546875 129.320312 C 259 128 259 128 259 126.5 C 253.886719 126.5 248.769531 126.5 243.5 126.5 C 243.003906 128.148438 242.511719 129.800781 242 131.5 C 241.835938 131.996094 241.671875 132.488281 241.5 133 C 241.464844 133.78125 241.457031 134.5625 241.46875 135.34375 C 241.472656 135.746094 241.476562 136.152344 241.484375 136.570312 C 241.488281 136.875 241.492188 137.183594 241.5 137.5 C 242.488281 137.996094 243.480469 138.488281 244.5 139 C 244.5 139.496094 244.5 139.988281 244.5 140.5 C 240.210938 140.5 235.921875 140.5 231.5 140.5 C 231.664062 139.839844 231.828125 139.179688 232 138.5 C 232.453125 138.292969 232.90625 138.085938 233.375 137.875 C 237.417969 135.699219 238.621094 130.3125 240.097656 126.214844 C 240.507812 125.074219 240.925781 123.933594 241.34375 122.792969 C 241.929688 121.1875 242.515625 119.582031 243.097656 117.976562 C 244.445312 114.277344 245.800781 110.578125 247.164062 106.886719 C 247.589844 105.730469 248.011719 104.578125 248.429688 103.421875 C 248.691406 102.71875 248.949219 102.015625 249.210938 101.3125 C 249.433594 100.695312 249.660156 100.078125 249.894531 99.441406 C 250.898438 97.054688 250.898438 97.054688 252.582031 96.902344 Z M 252.582031 96.902344 "/>
<path style=" stroke:none;fill-rule:nonzero;fill:rgb(96.862745%,98.431373%,99.215686%);fill-opacity:1;" d="M 94.5 193.5 C 97.585938 193.429688 100.511719 193.699219 103.5625 194.125 C 104.050781 194.191406 104.539062 194.257812 105.039062 194.324219 C 106.691406 194.546875 108.347656 194.773438 110 195 C 111.964844 195.265625 113.929688 195.53125 115.894531 195.796875 C 117.1875 195.96875 118.476562 196.144531 119.765625 196.320312 C 124.75 196.992188 129.714844 197.585938 134.75 197.625 C 135.09375 197.636719 135.4375 197.644531 135.792969 197.65625 C 137.765625 197.695312 137.765625 197.695312 139.414062 196.734375 C 139.609375 196.492188 139.800781 196.25 140 196 C 141.09375 196.15625 141.09375 196.15625 142 196.5 C 141.121094 198.945312 139.859375 201.148438 138.59375 203.40625 C 138.378906 203.789062 138.167969 204.175781 137.949219 204.570312 C 136.539062 207.097656 135.054688 209.5625 133.5 212 C 132.757812 211.753906 132.757812 211.753906 132 211.5 C 132.019531 210.941406 132.042969 210.386719 132.0625 209.8125 C 132.207031 207.976562 132.207031 207.976562 131 207 C 129.9375 206.722656 129.9375 206.722656 128.714844 206.574219 C 128.265625 206.507812 127.820312 206.445312 127.359375 206.378906 C 126.890625 206.316406 126.421875 206.253906 125.9375 206.1875 C 125.464844 206.121094 124.992188 206.054688 124.507812 205.984375 C 123.335938 205.820312 122.167969 205.65625 121 205.5 C 120.859375 205.867188 120.71875 206.234375 120.578125 206.609375 C 120.046875 207.882812 119.457031 209.039062 118.773438 210.234375 C 118.546875 210.644531 118.320312 211.054688 118.085938 211.476562 C 117.609375 212.328125 117.128906 213.179688 116.640625 214.023438 C 115.285156 216.339844 115.285156 216.339844 115.242188 218.914062 C 116.023438 220.035156 116.804688 221.078125 117.71875 222.09375 C 118.015625 222.429688 118.316406 222.769531 118.625 223.117188 C 119.878906 224.382812 120.707031 224.96875 122.5 225.15625 C 124.183594 224.980469 124.433594 224.71875 125.5 223.5 C 125.996094 223.5 126.488281 223.5 127 223.5 C 126.472656 226 125.21875 228.101562 124.03125 230.34375 C 123.804688 230.785156 123.574219 231.222656 123.339844 231.675781 C 123.121094 232.09375 122.902344 232.511719 122.671875 232.945312 C 122.472656 233.324219 122.273438 233.707031 122.066406 234.101562 C 121.5 235 121.5 235 120.5 235.5 C 120.003906 235.253906 120.003906 235.253906 119.5 235 C 119.570312 234.359375 119.644531 233.722656 119.71875 233.0625 C 119.667969 227.597656 113.769531 222.847656 110.339844 218.957031 C 109.035156 217.472656 107.753906 215.96875 106.46875 214.46875 C 106.222656 214.183594 105.980469 213.898438 105.726562 213.601562 C 104.472656 212.136719 103.21875 210.667969 101.96875 209.199219 C 98.875 205.570312 95.730469 202.003906 92.5 198.5 C 93.066406 196.761719 93.632812 195.113281 94.5 193.5 Z M 94.5 193.5 "/>
<path style=" stroke:none;fill-rule:nonzero;fill:rgb(38.039216%,53.725493%,73.333335%);fill-opacity:1;" d="M 209.34375 112.8125 C 213.101562 116.671875 214.90625 120.941406 216.5 126 C 216.664062 126.496094 216.828125 126.988281 217 127.5 C 217.316406 132.882812 217.441406 137.703125 213.96875 142.125 C 211.332031 144.941406 207.390625 146.996094 203.5 147.1875 C 203.160156 147.210938 202.820312 147.238281 202.46875 147.261719 C 201.5 147 201.5 147 200.789062 146.023438 C 199.757812 144.035156 199.101562 142 198.429688 139.867188 C 198.28125 139.417969 198.136719 138.964844 197.984375 138.5 C 197.519531 137.050781 197.054688 135.605469 196.59375 134.15625 C 196.136719 132.738281 195.679688 131.316406 195.222656 129.898438 C 194.921875 128.964844 194.625 128.03125 194.324219 127.097656 C 193.601562 124.839844 192.863281 122.589844 192.089844 120.347656 C 191.945312 119.933594 191.804688 119.519531 191.65625 119.09375 C 191.390625 118.316406 191.117188 117.539062 190.839844 116.765625 C 189.945312 114.167969 189.945312 114.167969 190.5 112.5 C 191.664062 111.933594 191.664062 111.933594 193.125 111.4375 C 193.601562 111.269531 194.078125 111.105469 194.570312 110.933594 C 200.070312 109.265625 204.40625 109.828125 209.34375 112.8125 Z M 209.34375 112.8125 "/>
<path style=" stroke:none;fill-rule:nonzero;fill:rgb(96.862745%,98.431373%,99.215686%);fill-opacity:1;" d="M 403 172 C 405.207031 174.664062 406.902344 177.554688 408.65625 180.53125 C 408.984375 181.074219 409.3125 181.621094 409.652344 182.179688 C 409.960938 182.703125 410.269531 183.226562 410.585938 183.765625 C 410.871094 184.242188 411.152344 184.71875 411.445312 185.210938 C 412 186.5 412 186.5 411.839844 187.671875 C 411.726562 187.945312 411.613281 188.21875 411.5 188.5 C 411.171875 188.5 410.839844 188.5 410.5 188.5 C 409.6875 187.5 409.6875 187.5 409 186.5 C 405.683594 186.6875 403.410156 188.003906 400.59375 189.6875 C 400.136719 189.953125 399.683594 190.21875 399.214844 190.496094 C 397.804688 191.324219 396.402344 192.160156 395 193 C 394.335938 193.394531 394.335938 193.394531 393.660156 193.796875 C 392.414062 194.539062 391.175781 195.28125 389.9375 196.03125 C 389.375 196.371094 389.375 196.371094 388.800781 196.714844 C 388.277344 197.035156 388.277344 197.035156 387.746094 197.359375 C 387.445312 197.546875 387.140625 197.730469 386.828125 197.921875 C 385.960938 198.488281 385.960938 198.488281 385.203125 199.320312 C 384.5 200 384.5 200 383.5 200 C 383.367188 200.269531 383.230469 200.535156 383.09375 200.8125 C 382.5 202 382.5 202 381.6875 203.3125 C 380.59375 205.996094 380.4375 208.511719 381.476562 211.25 C 383.019531 214.207031 384.902344 216.179688 388 217.5 C 393.679688 218.511719 397.78125 216.25 402.5 213.5 C 403.046875 213.183594 403.59375 212.867188 404.160156 212.542969 C 410.96875 209.011719 410.96875 209.011719 417 204.5 C 417.121094 203.164062 417.121094 203.164062 417.0625 201.6875 C 417.054688 201.1875 417.042969 200.683594 417.035156 200.167969 C 417.023438 199.78125 417.011719 199.398438 417 199 C 417.660156 199 418.320312 199 419 199 C 420.003906 200.8125 421.003906 202.625 422 204.4375 C 422.285156 204.953125 422.574219 205.46875 422.867188 206 C 423.136719 206.496094 423.410156 206.988281 423.6875 207.496094 C 423.9375 207.953125 424.191406 208.40625 424.449219 208.875 C 425 210 425 210 425 211 C 424.339844 211 423.679688 211 423 211 C 422.691406 210.671875 422.382812 210.339844 422.0625 210 C 421.074219 208.871094 421.074219 208.871094 419.625 208.835938 C 417.6875 209.03125 416.597656 209.613281 414.925781 210.609375 C 414.640625 210.777344 414.355469 210.941406 414.0625 211.117188 C 413.453125 211.472656 412.847656 211.832031 412.246094 212.191406 C 410.683594 213.125 409.109375 214.039062 407.539062 214.953125 C 407.230469 215.132812 406.921875 215.3125 406.605469 215.5 C 404.183594 216.910156 401.730469 218.230469 399.21875 219.46875 C 398.90625 219.625 398.589844 219.78125 398.265625 219.9375 C 394.515625 221.757812 390.339844 222.320312 386.257812 221.140625 C 385.265625 220.664062 384.394531 220.136719 383.5 219.5 C 382.742188 218.972656 382.742188 218.972656 381.96875 218.4375 C 377.679688 214.578125 375.167969 209.148438 374.257812 203.507812 C 374.023438 199.019531 375.941406 195.5625 378.808594 192.214844 C 379.914062 191.070312 381.15625 190.277344 382.5 189.4375 C 382.792969 189.253906 383.085938 189.070312 383.390625 188.878906 C 386.628906 186.871094 389.949219 184.996094 393.269531 183.125 C 395.628906 181.796875 397.941406 180.433594 400.207031 178.945312 C 401 178.5 401 178.5 402 178.5 C 402 176.519531 402 174.539062 402 172.5 C 402.328125 172.335938 402.660156 172.171875 403 172 Z M 403 172 "/>
<path style=" stroke:none;fill-rule:nonzero;fill:rgb(97.254902%,98.431373%,99.215686%);fill-opacity:1;" d="M 428 223 C 428.660156 223 429.320312 223 430 223 C 431.191406 227.078125 432.066406 231.171875 432.84375 235.34375 C 433.011719 236.238281 433.011719 236.238281 433.183594 237.148438 C 433.457031 238.597656 433.730469 240.046875 434 241.5 C 433.339844 241.5 432.679688 241.5 432 241.5 C 431.503906 240.261719 431.503906 240.261719 431 239 C 428.96875 239.261719 427.976562 239.769531 426.519531 241.195312 C 426.160156 241.539062 425.800781 241.886719 425.429688 242.242188 C 425.0625 242.605469 424.691406 242.96875 424.3125 243.34375 C 423.582031 244.054688 422.847656 244.765625 422.113281 245.476562 C 421.761719 245.816406 421.40625 246.160156 421.042969 246.515625 C 420.058594 247.445312 419.050781 248.324219 418.011719 249.195312 C 416.507812 250.324219 416.507812 250.324219 416 251.5 C 416.636719 251.632812 417.273438 251.765625 417.929688 251.902344 C 420.992188 252.582031 423.957031 253.53125 426.945312 254.484375 C 427.367188 254.613281 427.789062 254.742188 428.226562 254.878906 C 428.605469 255 428.980469 255.117188 429.371094 255.242188 C 430.648438 255.535156 431.695312 255.648438 433 255.5 C 434.0625 253.90625 434.25 252.867188 434.5 251 C 434.996094 251 435.488281 251 436 251 C 436.410156 252.664062 436.816406 254.332031 437.21875 256 C 437.332031 256.46875 437.449219 256.933594 437.566406 257.414062 C 438.21875 260.109375 438.71875 262.742188 439 265.5 C 438.339844 265.5 437.679688 265.5 437 265.5 C 436.523438 264.730469 436.523438 264.730469 436.09375 263.6875 C 434.328125 260.714844 431.429688 259.988281 428.316406 258.945312 C 426.757812 258.417969 425.210938 257.855469 423.664062 257.296875 C 422.464844 256.875 421.261719 256.453125 420.0625 256.03125 C 419.484375 255.824219 418.910156 255.617188 418.316406 255.402344 C 414.96875 254.265625 412.457031 253.703125 409 254.5 C 408.425781 254.613281 408.425781 254.613281 407.84375 254.730469 C 406.671875 254.96875 405.507812 255.230469 404.34375 255.5 C 403.753906 255.632812 403.753906 255.632812 403.15625 255.769531 C 401.429688 256.160156 399.714844 256.570312 398 257 C 397.835938 258.648438 397.671875 260.300781 397.5 262 C 396.839844 262 396.179688 262 395.5 262 C 395.066406 260.011719 394.640625 258.019531 394.21875 256.027344 C 394.074219 255.347656 393.929688 254.667969 393.78125 253.988281 C 393.570312 253.003906 393.363281 252.015625 393.15625 251.03125 C 393.03125 250.4375 392.90625 249.847656 392.773438 249.234375 C 392.492188 247.460938 392.453125 245.792969 392.5 244 C 392.996094 244 393.488281 244 394 244 C 394.328125 244.988281 394.660156 245.980469 395 247 C 397.179688 246.925781 399.332031 246.734375 401.5 246.5 C 401.996094 246.453125 401.996094 246.453125 402.503906 246.410156 C 409.304688 245.699219 412.882812 242.378906 417.480469 237.546875 C 419.320312 235.660156 421.300781 233.921875 423.269531 232.167969 C 425.503906 230.125 427.65625 227.984375 427.875 224.8125 C 427.917969 224.214844 427.957031 223.617188 428 223 Z M 428 223 "/>
<path style=" stroke:none;fill-rule:nonzero;fill:rgb(96.862745%,98.431373%,99.215686%);fill-opacity:1;" d="M 81 227 C 82.457031 227.070312 83.917969 227.144531 85.375 227.21875 C 85.992188 227.25 85.992188 227.25 86.625 227.277344 C 87.222656 227.308594 87.222656 227.308594 87.835938 227.34375 C 88.203125 227.359375 88.570312 227.378906 88.945312 227.398438 C 90.007812 227.5 90.976562 227.714844 92 228 C 92 228.660156 92 229.320312 92 230 C 91.667969 230.089844 91.335938 230.183594 90.992188 230.273438 C 86.703125 231.46875 86.703125 231.46875 83.40625 234.34375 C 82.363281 236.253906 81.9375 237.875 81.5 240 C 81.820312 240.054688 82.140625 240.113281 82.46875 240.167969 C 86.226562 240.839844 89.957031 241.605469 93.6875 242.40625 C 94.296875 242.535156 94.90625 242.667969 95.535156 242.800781 C 98.390625 243.414062 101.234375 244.046875 104.070312 244.75 C 104.535156 244.867188 105.003906 244.984375 105.484375 245.101562 C 106.335938 245.316406 107.1875 245.539062 108.039062 245.761719 C 110.894531 246.484375 113.558594 246.617188 116.5 246.5 C 116.996094 245.511719 117.488281 244.519531 118 243.5 C 118.496094 243.5 118.988281 243.5 119.5 243.5 C 119.234375 247.535156 118.582031 251.398438 117.71875 255.34375 C 117.601562 255.890625 117.484375 256.4375 117.363281 257.003906 C 117.078125 258.335938 116.789062 259.667969 116.5 261 C 115.839844 261.164062 115.179688 261.328125 114.5 261.5 C 114.484375 260.507812 114.46875 259.515625 114.453125 258.523438 C 114.054688 257.34375 114.054688 257.34375 112.59375 256.703125 C 109.984375 255.730469 107.25 255.199219 104.53125 254.625 C 103.953125 254.5 103.375 254.375 102.777344 254.246094 C 101.523438 253.972656 100.269531 253.703125 99.015625 253.433594 C 95.792969 252.742188 92.574219 252.035156 89.351562 251.328125 C 88.292969 251.097656 87.238281 250.867188 86.179688 250.636719 C 85.851562 250.5625 85.519531 250.492188 85.179688 250.417969 C 84.28125 250.222656 83.378906 250.027344 82.480469 249.832031 C 81.316406 249.570312 80.15625 249.296875 79 249 C 78.574219 255.09375 78.574219 255.09375 81 260.5 C 81.53125 261.0625 82.070312 261.617188 82.625 262.15625 C 83.078125 262.601562 83.53125 263.042969 84 263.5 C 84 263.996094 84 264.488281 84 265 C 81.65625 264.632812 79.546875 263.816406 77.34375 262.96875 C 76.972656 262.828125 76.601562 262.6875 76.222656 262.542969 C 75.3125 262.195312 74.40625 261.847656 73.5 261.5 C 73.792969 258.886719 74.210938 256.390625 74.835938 253.828125 C 75.003906 253.132812 75.171875 252.433594 75.339844 251.734375 C 75.425781 251.375 75.515625 251.015625 75.605469 250.644531 C 77.132812 244.34375 78.554688 238.039062 79.769531 231.671875 C 79.859375 231.195312 79.953125 230.722656 80.046875 230.234375 C 80.121094 229.824219 80.199219 229.414062 80.277344 228.992188 C 80.5 228 80.5 228 81 227 Z M 81 227 "/>
<path style=" stroke:none;fill-rule:nonzero;fill:rgb(97.647059%,98.823529%,99.607843%);fill-opacity:1;" d="M 370 138 C 371.699219 138.734375 372.789062 139.675781 374.078125 140.996094 C 374.660156 141.585938 374.660156 141.585938 375.253906 142.1875 C 375.855469 142.808594 375.855469 142.808594 376.46875 143.4375 C 377.265625 144.25 378.058594 145.0625 378.859375 145.871094 C 379.207031 146.230469 379.558594 146.589844 379.921875 146.960938 C 381.058594 148.058594 382.253906 149.03125 383.5 150 C 383.335938 150.660156 383.171875 151.320312 383 152 C 382.566406 151.742188 382.132812 151.484375 381.6875 151.21875 C 379.714844 150.378906 379.035156 150.410156 377 151 C 375.574219 152.101562 375.574219 152.101562 374.28125 153.53125 C 374.042969 153.78125 373.804688 154.03125 373.558594 154.285156 C 371.941406 155.984375 370.390625 157.738281 368.871094 159.519531 C 367.871094 160.644531 366.820312 161.695312 365.75 162.75 C 364.070312 164.410156 362.484375 166.113281 360.953125 167.914062 C 360.214844 168.753906 359.457031 169.574219 358.6875 170.382812 C 358.460938 170.625 358.234375 170.867188 358 171.117188 C 357.34375 171.8125 356.679688 172.503906 356.019531 173.195312 C 354.964844 174.546875 354.625 175.308594 354.5 177 C 354.789062 178.117188 354.789062 178.117188 355.5 179 C 355.808594 179.152344 356.113281 179.304688 356.429688 179.460938 C 357.871094 180.1875 358.921875 181.203125 360.109375 182.28125 C 362.722656 184.390625 365.257812 184.289062 368.5 184 C 370.371094 183.601562 372.183594 183.089844 374 182.5 C 374.328125 183.160156 374.660156 183.820312 375 184.5 C 371.863281 186.808594 368.730469 189.121094 365.5 191.5 C 363.679688 190.589844 362.800781 189.921875 361.40625 188.511719 C 361 188.105469 360.59375 187.695312 360.171875 187.273438 C 359.738281 186.832031 359.304688 186.390625 358.855469 185.9375 C 358.40625 185.484375 357.957031 185.03125 357.492188 184.566406 C 356.300781 183.363281 355.109375 182.160156 353.917969 180.957031 C 352.238281 179.257812 350.554688 177.5625 348.871094 175.867188 C 347.976562 174.964844 347.082031 174.0625 346.1875 173.15625 C 345.785156 172.75 345.378906 172.34375 344.964844 171.921875 C 344.609375 171.5625 344.25 171.203125 343.886719 170.832031 C 343.046875 169.964844 343.046875 169.964844 342 169.5 C 342.164062 168.839844 342.328125 168.179688 342.5 167.5 C 342.886719 167.761719 342.886719 167.761719 343.28125 168.03125 C 345.09375 168.726562 346.121094 168.492188 348 168 C 349.40625 166.96875 350.5625 165.742188 351.75 164.46875 C 352.246094 163.957031 352.246094 163.957031 352.75 163.429688 C 354.644531 161.453125 356.496094 159.4375 358.265625 157.34375 C 359.324219 156.128906 360.476562 155.015625 361.625 153.890625 C 362.53125 152.96875 363.375 152.011719 364.21875 151.03125 C 365.792969 149.203125 367.46875 147.511719 369.199219 145.832031 C 370.289062 144.699219 370.488281 144.179688 370.59375 142.59375 C 370.5 141.003906 370.175781 139.933594 369.5 138.5 C 369.664062 138.335938 369.828125 138.171875 370 138 Z M 370 138 "/>
<path style=" stroke:none;fill-rule:nonzero;fill:rgb(38.431373%,52.941179%,72.156864%);fill-opacity:1;" d="M 101 202.5 C 102.621094 202.691406 104.242188 202.882812 105.863281 203.070312 C 106.25 203.117188 106.640625 203.164062 107.042969 203.210938 C 108.679688 203.402344 110.320312 203.597656 111.957031 203.789062 C 112.347656 203.835938 112.738281 203.878906 113.136719 203.929688 C 114.757812 204.117188 116.378906 204.308594 118 204.5 C 117.75 207.164062 116.328125 209.175781 114.96875 211.40625 C 114.734375 211.800781 114.496094 212.195312 114.253906 212.601562 C 113.671875 213.570312 113.085938 214.535156 112.5 215.5 C 110.03125 213.503906 107.925781 211.382812 105.90625 208.9375 C 105.398438 208.332031 104.894531 207.726562 104.382812 207.121094 C 104.148438 206.839844 103.914062 206.558594 103.671875 206.269531 C 103.085938 205.597656 102.457031 204.96875 101.820312 204.347656 C 101 203.5 101 203.5 101 202.5 Z M 101 202.5 "/>
<path style=" stroke:none;fill-rule:nonzero;fill:rgb(38.431373%,53.725493%,72.549021%);fill-opacity:1;" d="M 250.5 107.5 C 252.007812 108.769531 252.542969 110.117188 253.242188 111.9375 C 253.460938 112.511719 253.683594 113.085938 253.910156 113.679688 C 254.136719 114.28125 254.359375 114.882812 254.59375 115.5 C 254.941406 116.402344 254.941406 116.402344 255.296875 117.320312 C 257 121.796875 257 121.796875 257 123.5 C 253.039062 123.5 249.078125 123.5 245 123.5 C 245.34375 121.789062 245.632812 120.511719 246.261719 118.945312 C 246.410156 118.566406 246.5625 118.191406 246.714844 117.800781 C 246.871094 117.414062 247.027344 117.023438 247.1875 116.625 C 248.394531 113.613281 249.503906 110.589844 250.5 107.5 Z M 250.5 107.5 "/>
<path style=" stroke:none;fill-rule:nonzero;fill:rgb(49.411765%,60.392159%,73.725492%);fill-opacity:1;" d="M 231.992188 291.441406 C 232.582031 291.441406 233.171875 291.441406 233.78125 291.441406 C 234.414062 291.445312 235.046875 291.449219 235.695312 291.449219 C 236.347656 291.453125 237 291.453125 237.671875 291.453125 C 239.394531 291.457031 241.121094 291.460938 242.847656 291.464844 C 244.609375 291.472656 246.371094 291.472656 248.136719 291.476562 C 251.589844 291.480469 255.046875 291.488281 258.5 291.5 C 258.523438 297.472656 258.539062 303.445312 258.550781 309.414062 C 258.558594 312.1875 258.5625 314.960938 258.574219 317.734375 C 258.585938 320.40625 258.59375 323.082031 258.59375 325.757812 C 258.597656 326.777344 258.601562 327.800781 258.605469 328.824219 C 258.613281 330.25 258.613281 331.679688 258.613281 333.105469 C 258.617188 333.53125 258.621094 333.957031 258.625 334.394531 C 258.617188 336.355469 258.613281 337.332031 257.5 339 C 257.5 323.65625 257.5 308.308594 257.5 292.5 C 247.269531 292.5 237.039062 292.5 226.5 292.5 C 226.5 292.335938 226.5 292.171875 226.5 292 C 228.363281 291.566406 230.082031 291.4375 231.992188 291.441406 Z M 231.992188 291.441406 "/>
<path style=" stroke:none;fill-rule:nonzero;fill:rgb(45.09804%,56.470591%,70.980394%);fill-opacity:1;" d="M 233 211.5 C 233.164062 211.828125 233.328125 212.160156 233.5 212.5 C 233.273438 212.945312 233.046875 213.386719 232.8125 213.84375 C 231.433594 216.792969 231.621094 220.292969 231.5 223.5 C 231.335938 223.5 231.171875 223.5 231 223.5 C 230.835938 221.851562 230.671875 220.199219 230.5 218.5 C 229.753906 219.992188 229.101562 221.449219 228.5 223 C 228.171875 223 227.839844 223 227.5 223 C 228.140625 218.734375 229.90625 214.59375 233 211.5 Z M 233 211.5 "/>
<path style=" stroke:none;fill-rule:nonzero;fill:rgb(40.392157%,52.549022%,67.843139%);fill-opacity:1;" d="M 255 119 C 256.808594 120.414062 256.566406 120.894531 257 123.5 C 253.039062 123.5 249.078125 123.5 245 123.5 C 245 123.003906 245 122.511719 245 122 C 248.628906 122.164062 252.261719 122.328125 256 122.5 C 255.671875 121.34375 255.339844 120.191406 255 119 Z M 255 119 "/>
<path style=" stroke:none;fill-rule:nonzero;fill:rgb(40.392157%,52.549022%,67.450982%);fill-opacity:1;" d="M 128.5 161.5 C 130.597656 162.160156 132.546875 162.953125 134.527344 163.910156 C 135.082031 164.175781 135.636719 164.445312 136.207031 164.71875 C 136.777344 165 137.347656 165.277344 137.9375 165.5625 C 138.519531 165.84375 139.101562 166.125 139.703125 166.414062 C 141.136719 167.109375 142.570312 167.804688 144 168.5 C 142.191406 169.101562 141.929688 168.875 140.273438 168.0625 C 139.851562 167.859375 139.429688 167.65625 138.992188 167.445312 C 138.550781 167.226562 138.109375 167.007812 137.65625 166.78125 C 137.210938 166.5625 136.761719 166.347656 136.304688 166.125 C 135.199219 165.585938 134.097656 165.046875 133 164.5 C 132.835938 164.664062 132.671875 164.828125 132.5 165 C 132.5 165.496094 132.5 165.988281 132.5 166.5 C 131.832031 165.761719 131.164062 165.023438 130.5 164.28125 C 130.128906 163.871094 129.757812 163.457031 129.375 163.03125 C 128.5 162 128.5 162 128.5 161.5 Z M 128.5 161.5 "/>
<path style=" stroke:none;fill-rule:nonzero;fill:rgb(42.352942%,54.901963%,70.980394%);fill-opacity:1;" d="M 386 198 C 386.328125 198.328125 386.660156 198.660156 387 199 C 386.679688 199.3125 386.363281 199.625 386.03125 199.949219 C 385.621094 200.359375 385.207031 200.765625 384.78125 201.1875 C 384.371094 201.59375 383.957031 202 383.53125 202.417969 C 381.980469 204.042969 381.898438 205.113281 381.71875 207.3125 C 381.65625 208.066406 381.65625 208.066406 381.59375 208.832031 C 381.5625 209.21875 381.53125 209.601562 381.5 210 C 381.171875 210 380.839844 210 380.5 210 C 380.246094 206.5 380.417969 204.371094 382.5 201.5 C 383.8125 200.09375 383.8125 200.09375 385 199 C 385.328125 198.671875 385.660156 198.339844 386 198 Z M 386 198 "/>
<path style=" stroke:none;fill-rule:nonzero;fill:rgb(42.745098%,54.901963%,70.588237%);fill-opacity:1;" d="M 381 150.5 C 381.328125 150.828125 381.660156 151.160156 382 151.5 C 380.515625 151.335938 379.03125 151.171875 377.5 151 C 377.171875 151.660156 376.839844 152.320312 376.5 153 C 375.835938 153.730469 375.148438 154.4375 374.4375 155.125 C 374.074219 155.476562 373.714844 155.832031 373.339844 156.195312 C 373.0625 156.460938 372.785156 156.726562 372.5 157 C 372.335938 156.503906 372.171875 156.011719 372 155.5 C 372.8125 154.675781 373.625 153.851562 374.4375 153.03125 C 374.890625 152.574219 375.34375 152.113281 375.808594 151.640625 C 377.691406 149.835938 378.492188 149.925781 381 150.5 Z M 381 150.5 "/>
<path style=" stroke:none;fill-rule:nonzero;fill:rgb(91.764706%,96.078432%,98.431373%);fill-opacity:1;" d="M 123 155 C 123.328125 155.164062 123.660156 155.328125 124 155.5 C 123.675781 155.808594 123.351562 156.113281 123.015625 156.429688 C 122.597656 156.835938 122.179688 157.238281 121.75 157.65625 C 121.332031 158.054688 120.914062 158.457031 120.484375 158.867188 C 119.335938 159.9375 119.335938 159.9375 119.5 161.5 C 118.839844 161.664062 118.179688 161.828125 117.5 162 C 117.5 160 117.5 160 118.703125 158.710938 C 119.214844 158.261719 119.730469 157.816406 120.25 157.375 C 120.511719 157.144531 120.773438 156.917969 121.046875 156.679688 C 121.691406 156.113281 122.34375 155.558594 123 155 Z M 123 155 "/>
<path style=" stroke:none;fill-rule:nonzero;fill:rgb(41.568628%,53.725493%,69.411767%);fill-opacity:1;" d="M 222 283 C 222.328125 283.328125 222.660156 283.660156 223 284 C 221.515625 286.613281 220.1875 287.65625 217.5 289 C 218.226562 286.335938 220.039062 284.816406 222 283 Z M 222 283 "/>
<path style=" stroke:none;fill-rule:nonzero;fill:rgb(45.09804%,55.686277%,69.411767%);fill-opacity:1;" d="M 230 313.5 C 230 315.527344 229.226562 316.425781 228 318 C 227.503906 318 227.011719 318 226.5 318 C 225.425781 318.476562 225.425781 318.476562 224.5 319 C 226.191406 316.933594 227.832031 315.09375 230 313.5 Z M 230 313.5 "/>
<path style=" stroke:none;fill-rule:nonzero;fill:rgb(90.588236%,94.901961%,97.647059%);fill-opacity:1;" d="M 232.5 203.5 C 232.828125 203.664062 233.160156 203.828125 233.5 204 C 231.355469 206.144531 229.210938 208.289062 227 210.5 C 227 208.410156 228.113281 207.429688 229.5 206 C 230.472656 205.125 231.472656 204.3125 232.5 203.5 Z M 232.5 203.5 "/>
<path style=" stroke:none;fill-rule:nonzero;fill:rgb(42.352942%,54.901963%,71.372551%);fill-opacity:1;" d="M 101 202.5 C 102.648438 202.664062 104.300781 202.828125 106 203 C 105.175781 203.824219 104.351562 204.648438 103.5 205.5 C 102.644531 204.859375 101.8125 204.191406 101 203.5 C 101 203.171875 101 202.839844 101 202.5 Z M 101 202.5 "/>
<path style=" stroke:none;fill-rule:nonzero;fill:rgb(43.921569%,57.254905%,73.725492%);fill-opacity:1;" d="M 273.5 399.5 C 273.5 399.828125 273.5 400.160156 273.5 400.5 C 272.625 400.613281 271.75 400.714844 270.875 400.8125 C 270.386719 400.871094 269.902344 400.929688 269.398438 400.988281 C 267.933594 401 267.226562 400.765625 266 400 C 268.535156 399.644531 270.941406 399.445312 273.5 399.5 Z M 273.5 399.5 "/>
<path style=" stroke:none;fill-rule:nonzero;fill:rgb(42.352942%,54.11765%,69.803923%);fill-opacity:1;" d="M 348 356.5 C 348.164062 356.996094 348.328125 357.488281 348.5 358 C 346.851562 359.648438 345.199219 361.300781 343.5 363 C 343.171875 362.835938 342.839844 362.671875 342.5 362.5 C 342.730469 362.277344 342.957031 362.050781 343.195312 361.820312 C 344.917969 360.125 346.535156 358.433594 348 356.5 Z M 348 356.5 "/>
<path style=" stroke:none;fill-rule:nonzero;fill:rgb(42.745098%,55.29412%,70.980394%);fill-opacity:1;" d="M 180.5 204 C 180.996094 204.164062 181.488281 204.328125 182 204.5 C 180.515625 205.984375 179.03125 207.46875 177.5 209 C 177.171875 208.835938 176.839844 208.671875 176.5 208.5 C 177.820312 207.015625 179.140625 205.53125 180.5 204 Z M 180.5 204 "/>
<path style=" stroke:none;fill-rule:nonzero;fill:rgb(43.921569%,54.11765%,67.450982%);fill-opacity:1;" d="M 233 211.5 C 233.5 212.5 233.5 212.5 233.109375 213.800781 C 232.917969 214.300781 232.726562 214.796875 232.53125 215.3125 C 232.246094 216.066406 232.246094 216.066406 231.953125 216.832031 C 231.804688 217.21875 231.65625 217.601562 231.5 218 C 230.5 216.5 230.5 216.5 230.5625 215.3125 C 231.089844 213.734375 231.902344 212.738281 233 211.5 Z M 233 211.5 "/>
<path style=" stroke:none;fill-rule:nonzero;fill:rgb(43.529412%,54.901963%,68.627453%);fill-opacity:1;" d="M 152 140.5 C 153.628906 142.085938 155.109375 143.699219 156.5 145.5 C 154.5625 144.5625 154.5625 144.5625 154 144 C 153.671875 144.328125 153.339844 144.660156 153 145 C 152.671875 143.515625 152.339844 142.03125 152 140.5 Z M 152 140.5 "/>
<path style=" stroke:none;fill-rule:nonzero;fill:rgb(44.705883%,55.686277%,69.411767%);fill-opacity:1;" d="M 294.5 224.5 C 293.945312 225.257812 293.945312 225.257812 293 226 C 291.539062 226.039062 291.539062 226.039062 289.90625 225.84375 C 289.363281 225.785156 288.820312 225.722656 288.257812 225.664062 C 287.84375 225.609375 287.429688 225.554688 287 225.5 C 287 225.335938 287 225.171875 287 225 C 288.0625 224.820312 289.125 224.644531 290.1875 224.46875 C 291.074219 224.320312 291.074219 224.320312 291.980469 224.171875 C 293.5 224 293.5 224 294.5 224.5 Z M 294.5 224.5 "/>
<path style=" stroke:none;fill-rule:nonzero;fill:rgb(89.803922%,94.901961%,98.431373%);fill-opacity:1;" d="M 180.5 114 C 179.511719 114.496094 179.511719 114.496094 178.5 115 C 178.996094 115.328125 179.488281 115.660156 180 116 C 178.84375 116.164062 177.691406 116.328125 176.5 116.5 C 176.5 115.839844 176.5 115.179688 176.5 114.5 C 179.375 113.4375 179.375 113.4375 180.5 114 Z M 180.5 114 "/>
<path style=" stroke:none;fill-rule:nonzero;fill:rgb(90.196079%,94.509804%,98.039216%);fill-opacity:1;" d="M 150 131 C 150.328125 131.164062 150.660156 131.328125 151 131.5 C 149.679688 132.820312 148.359375 134.140625 147 135.5 C 146.835938 135.003906 146.671875 134.511719 146.5 134 C 147.65625 133.011719 148.808594 132.019531 150 131 Z M 150 131 "/>
<path style=" stroke:none;fill-rule:nonzero;fill:rgb(38.431373%,51.764709%,69.01961%);fill-opacity:1;" d="M 150 261.5 C 150.5625 262.3125 150.5625 262.3125 151 263.5 C 150.5625 265.125 150.5625 265.125 150 266.5 C 149.835938 266.5 149.671875 266.5 149.5 266.5 C 149.488281 265.761719 149.476562 265.019531 149.46875 264.28125 C 149.464844 263.871094 149.457031 263.457031 149.453125 263.03125 C 149.5 262 149.5 262 150 261.5 Z M 150 261.5 "/>
<path style=" stroke:none;fill-rule:nonzero;fill:rgb(81.176472%,87.058824%,92.54902%);fill-opacity:1;" d="M 144 187 C 144.164062 187 144.328125 187 144.5 187 C 144.5 188.320312 144.5 189.640625 144.5 191 C 144.003906 191.246094 144.003906 191.246094 143.5 191.5 C 143.664062 190.015625 143.828125 188.53125 144 187 Z M 143 191.5 C 143.496094 191.996094 143.988281 192.488281 144.5 193 C 143.839844 192.835938 143.179688 192.671875 142.5 192.5 C 142.664062 192.171875 142.828125 191.839844 143 191.5 Z M 143 191.5 "/>
</g>
</svg>
