<?xml version="1.0" encoding="UTF-8"?>
<svg xmlns="http://www.w3.org/2000/svg" xmlns:xlink="http://www.w3.org/1999/xlink" width="192px" height="192px" viewBox="0 0 192 192" version="1.1">
<defs><clipPath id="circle"><circle cx="96" cy="96" r="91"/></clipPath></defs>
<g id="surface1" clip-path="url(#circle)">
<path style=" stroke:none;fill-rule:nonzero;fill:rgb(37.64706%,53.333336%,73.725492%);fill-opacity:1;" d="M 0 0 C 63.359375 0 126.71875 0 192 0 C 192 63.359375 192 126.71875 192 192 C 128.640625 192 65.28125 192 0 192 C 0 128.640625 0 65.28125 0 0 Z M 0 0 "/>
<path style=" stroke:none;fill-rule:nonzero;fill:rgb(37.64706%,53.725493%,73.725492%);fill-opacity:1;" d="M 98.0625 60.9375 C 98.203125 60.9375 98.34375 60.941406 98.488281 60.941406 C 102.183594 60.996094 106.007812 61.804688 109.5 63 C 109.652344 63.050781 109.804688 63.101562 109.960938 63.152344 C 113.765625 64.410156 117.480469 66.097656 120.75 68.4375 C 120.867188 68.523438 120.984375 68.605469 121.105469 68.691406 C 124.851562 71.386719 128.476562 74.476562 131.25 78.1875 C 131.46875 78.480469 131.46875 78.480469 131.695312 78.777344 C 135.886719 84.441406 138.679688 90.78125 140.0625 97.6875 C 140.097656 97.851562 140.128906 98.015625 140.164062 98.183594 C 141.035156 102.644531 141.042969 107.832031 140.25 112.3125 C 140.21875 112.5 140.183594 112.6875 140.152344 112.882812 C 138.960938 119.558594 136.398438 125.953125 132.375 131.4375 C 132.292969 131.550781 132.210938 131.660156 132.128906 131.777344 C 131.148438 133.125 130.078125 134.375 128.9375 135.589844 C 128.46875 136.09375 128.011719 136.605469 127.558594 137.121094 C 126.835938 137.921875 126.078125 138.625 125.25 139.3125 C 125.101562 139.445312 124.949219 139.578125 124.792969 139.71875 C 119.246094 144.550781 112.5 147.546875 105.421875 149.308594 C 105.152344 149.375 105.152344 149.375 104.878906 149.445312 C 102.140625 150.097656 99.371094 150.25 96.566406 150.238281 C 96.105469 150.234375 95.644531 150.238281 95.183594 150.238281 C 92.234375 150.242188 89.332031 150.007812 86.460938 149.308594 C 86.253906 149.257812 86.046875 149.210938 85.835938 149.160156 C 81.070312 147.988281 76.492188 146.128906 72.375 143.4375 C 72.183594 143.316406 71.996094 143.195312 71.796875 143.074219 C 69.433594 141.542969 67.28125 139.761719 65.25 137.8125 C 65.132812 137.703125 65.019531 137.59375 64.898438 137.480469 C 62.992188 135.667969 61.332031 133.769531 59.8125 131.625 C 59.71875 131.492188 59.625 131.359375 59.527344 131.226562 C 57.300781 128.101562 55.519531 124.71875 54.1875 121.125 C 54.070312 120.851562 54.070312 120.851562 53.953125 120.570312 C 50.410156 112.101562 50.496094 101.894531 53.0625 93.1875 C 53.125 92.976562 53.125 92.976562 53.1875 92.761719 C 55.714844 84.285156 61.058594 76.296875 68.0625 70.875 C 68.296875 70.6875 68.53125 70.5 68.765625 70.308594 C 75.285156 65.128906 83 62.101562 91.246094 61.175781 C 91.53125 61.144531 91.816406 61.109375 92.097656 61.070312 C 94.074219 60.820312 96.078125 60.910156 98.0625 60.9375 Z M 98.0625 60.9375 "/>
<path style=" stroke:none;fill-rule:nonzero;fill:rgb(98.431373%,99.215686%,99.607843%);fill-opacity:1;" d="M 98.0625 60.9375 C 98.203125 60.9375 98.34375 60.941406 98.488281 60.941406 C 102.183594 60.996094 106.007812 61.804688 109.5 63 C 109.652344 63.050781 109.804688 63.101562 109.960938 63.152344 C 113.765625 64.410156 117.480469 66.097656 120.75 68.4375 C 120.867188 68.523438 120.984375 68.605469 121.105469 68.691406 C 124.851562 71.386719 128.476562 74.476562 131.25 78.1875 C 131.46875 78.480469 131.46875 78.480469 131.695312 78.777344 C 135.886719 84.441406 138.679688 90.78125 140.0625 97.6875 C 140.097656 97.851562 140.128906 98.015625 140.164062 98.183594 C 141.035156 102.644531 141.042969 107.832031 140.25 112.3125 C 140.21875 112.5 140.183594 112.6875 140.152344 112.882812 C 138.960938 119.558594 136.398438 125.953125 132.375 131.4375 C 132.292969 131.550781 132.210938 131.660156 132.128906 131.777344 C 131.148438 133.125 130.078125 134.375 128.9375 135.589844 C 128.46875 136.09375 128.011719 136.605469 127.558594 137.121094 C 126.835938 137.921875 126.078125 138.625 125.25 139.3125 C 125.101562 139.445312 124.949219 139.578125 124.792969 139.71875 C 119.246094 144.550781 112.5 147.546875 105.421875 149.308594 C 105.152344 149.375 105.152344 149.375 104.878906 149.445312 C 102.140625 150.097656 99.371094 150.25 96.566406 150.238281 C 96.105469 150.234375 95.644531 150.238281 95.183594 150.238281 C 92.234375 150.242188 89.332031 150.007812 86.460938 149.308594 C 86.253906 149.257812 86.046875 149.210938 85.835938 149.160156 C 81.070312 147.988281 76.492188 146.128906 72.375 143.4375 C 72.183594 143.316406 71.996094 143.195312 71.796875 143.074219 C 69.433594 141.542969 67.28125 139.761719 65.25 137.8125 C 65.132812 137.703125 65.019531 137.59375 64.898438 137.480469 C 62.992188 135.667969 61.332031 133.769531 59.8125 131.625 C 59.71875 131.492188 59.625 131.359375 59.527344 131.226562 C 57.300781 128.101562 55.519531 124.71875 54.1875 121.125 C 54.070312 120.851562 54.070312 120.851562 53.953125 120.570312 C 50.410156 112.101562 50.496094 101.894531 53.0625 93.1875 C 53.125 92.976562 53.125 92.976562 53.1875 92.761719 C 55.714844 84.285156 61.058594 76.296875 68.0625 70.875 C 68.296875 70.6875 68.53125 70.5 68.765625 70.308594 C 75.285156 65.128906 83 62.101562 91.246094 61.175781 C 91.53125 61.144531 91.816406 61.109375 92.097656 61.070312 C 94.074219 60.820312 96.078125 60.910156 98.0625 60.9375 Z M 87.9375 65.8125 C 87.675781 65.863281 87.675781 65.863281 87.410156 65.917969 C 79 67.652344 70.714844 72.417969 65.25 79.125 C 65.082031 79.324219 64.917969 79.519531 64.75 79.71875 C 60.257812 85.109375 57.410156 91.390625 56.0625 98.25 C 56.011719 98.488281 56.011719 98.488281 55.960938 98.730469 C 54.980469 103.449219 55.226562 108.863281 56.179688 113.554688 C 56.203125 113.675781 56.230469 113.796875 56.253906 113.925781 C 56.695312 116.089844 57.277344 118.148438 58.125 120.1875 C 58.191406 120.34375 58.253906 120.5 58.320312 120.660156 C 60.519531 125.886719 63.609375 130.328125 67.5 134.4375 C 67.621094 134.566406 67.738281 134.691406 67.863281 134.824219 C 68.789062 135.785156 69.824219 136.617188 70.875 137.4375 C 70.976562 137.519531 71.078125 137.597656 71.1875 137.679688 C 73.097656 139.167969 75.125 140.40625 77.25 141.5625 C 77.378906 141.632812 77.507812 141.703125 77.644531 141.777344 C 85.308594 145.90625 94.964844 147.355469 103.5 145.5 C 103.84375 145.4375 103.84375 145.4375 104.191406 145.371094 C 104.84375 145.242188 105.480469 145.097656 106.125 144.9375 C 106.355469 144.882812 106.585938 144.824219 106.824219 144.765625 C 112.511719 143.273438 117.816406 140.339844 122.25 136.5 C 122.402344 136.367188 122.554688 136.234375 122.714844 136.097656 C 128.53125 130.964844 132.796875 124.460938 135 117 C 135.066406 116.792969 135.128906 116.585938 135.195312 116.375 C 136.226562 112.855469 136.570312 109.308594 136.570312 105.65625 C 136.570312 105.433594 136.570312 105.433594 136.570312 105.207031 C 136.570312 102.222656 136.316406 99.296875 135.621094 96.386719 C 135.546875 96.078125 135.546875 96.078125 135.472656 95.757812 C 135.019531 93.902344 134.421875 92.136719 133.6875 90.375 C 133.628906 90.234375 133.574219 90.09375 133.511719 89.949219 C 131.46875 84.96875 128.359375 80.777344 124.6875 76.875 C 124.570312 76.75 124.457031 76.628906 124.335938 76.5 C 123.40625 75.535156 122.367188 74.703125 121.3125 73.875 C 121.203125 73.789062 121.09375 73.703125 120.984375 73.613281 C 111.753906 66.304688 99.46875 63.402344 87.9375 65.8125 Z M 87.9375 65.8125 "/>
<path style=" stroke:none;fill-rule:nonzero;fill:rgb(98.039216%,98.823529%,99.607843%);fill-opacity:1;" d="M 94.335938 73.78125 C 94.507812 73.78125 94.675781 73.78125 94.851562 73.785156 C 98.625 73.878906 101.371094 75.78125 104.050781 78.28125 C 105.929688 80.027344 107.664062 81.519531 110.335938 81.441406 C 111.363281 81.296875 112.007812 80.609375 112.6875 79.875 C 112.96875 80.0625 112.96875 80.0625 113.25 80.4375 C 113.5 82.113281 112.746094 83.839844 111.785156 85.195312 C 110.578125 86.65625 109.144531 87.765625 107.25 88.125 C 104.460938 88.296875 102.265625 87.820312 100.117188 85.953125 C 99.300781 85.222656 98.515625 84.460938 97.757812 83.671875 C 96.546875 82.441406 94.941406 81.175781 93.175781 81.128906 C 92.484375 81.148438 91.933594 81.230469 91.3125 81.5625 C 91.40625 80.730469 91.65625 80.28125 92.25 79.6875 C 93.1875 79.046875 94.109375 78.734375 95.25 78.9375 C 97.125 79.429688 98.425781 80.644531 99.808594 81.945312 C 101.625 83.644531 103.800781 85.660156 106.394531 85.78125 C 107.679688 85.730469 108.824219 85.355469 109.804688 84.515625 C 109.890625 84.40625 109.976562 84.300781 110.0625 84.1875 C 109.953125 84.21875 109.847656 84.246094 109.734375 84.277344 C 108.285156 84.613281 107.042969 84.328125 105.75 83.625 C 104.367188 82.726562 103.171875 81.652344 101.976562 80.523438 C 99.722656 78.417969 97.417969 76.746094 94.226562 76.804688 C 92.601562 76.976562 91.507812 77.808594 90.492188 79.054688 C 89.535156 80.449219 89.453125 81.972656 89.625 83.625 C 90.136719 85.976562 92.011719 87.441406 93.9375 88.6875 C 94.941406 89.285156 95.964844 89.851562 96.988281 90.414062 C 98.40625 91.214844 99.648438 92.117188 100.875 93.1875 C 101.015625 93.308594 101.15625 93.433594 101.304688 93.558594 C 103.496094 95.519531 104.636719 98.523438 104.796875 101.398438 C 104.800781 101.535156 104.808594 101.671875 104.8125 101.8125 C 107.726562 101.660156 107.726562 101.660156 110.4375 100.6875 C 110.648438 100.574219 110.863281 100.464844 111.082031 100.347656 C 111.703125 99.820312 111.859375 99.386719 112.125 98.625 C 112.6875 98.8125 112.6875 98.8125 113.0625 99.375 C 113.359375 102.09375 112.878906 104.175781 111.222656 106.40625 C 109.910156 107.917969 108.234375 108.785156 106.3125 109.3125 C 105.875 109.320312 105.4375 109.320312 105 109.3125 C 105 109.609375 105 109.609375 105.003906 109.910156 C 105.015625 111.785156 105.023438 113.664062 105.027344 115.539062 C 105.03125 116.5 105.035156 117.464844 105.042969 118.429688 C 105.046875 119.363281 105.050781 120.292969 105.054688 121.226562 C 105.054688 121.578125 105.054688 121.933594 105.058594 122.285156 C 105.097656 126.640625 104.414062 130.597656 101.332031 133.910156 C 99.484375 135.667969 97.292969 136.558594 94.875 137.25 C 94.761719 137.285156 94.644531 137.316406 94.527344 137.351562 C 91.929688 137.90625 88.820312 137.652344 86.4375 136.5 C 86.140625 136.359375 86.140625 136.359375 85.839844 136.21875 C 82.816406 134.621094 81.015625 131.96875 80.003906 128.777344 C 79.175781 125.394531 79.585938 121.996094 81.316406 118.992188 C 82.3125 117.371094 83.636719 116.035156 85.3125 115.125 C 85.441406 115.046875 85.570312 114.972656 85.703125 114.890625 C 87.421875 114.019531 89.6875 114.148438 91.542969 114.484375 C 92.765625 114.898438 93.589844 115.765625 94.3125 116.8125 C 94.867188 117.933594 94.910156 119.257812 94.550781 120.453125 C 94.101562 121.425781 93.507812 121.976562 92.566406 122.484375 C 91.707031 122.722656 90.96875 122.8125 90.152344 122.433594 C 89.542969 122.0625 88.960938 121.675781 88.5 121.125 C 88.5 120.9375 88.5 120.753906 88.5 120.5625 C 88.375 120.5625 88.253906 120.5625 88.125 120.5625 C 87.273438 123.238281 87.207031 125.9375 88.480469 128.480469 C 88.679688 128.828125 88.679688 128.828125 88.992188 129.113281 C 89.25 129.375 89.25 129.375 89.25 129.75 C 89.496094 129.878906 89.75 130.003906 90 130.125 C 90.203125 130.226562 90.410156 130.324219 90.621094 130.429688 C 91.824219 130.878906 92.757812 130.695312 93.9375 130.3125 C 93.476562 131.160156 93.042969 131.664062 92.148438 132.054688 C 91.035156 132.375 89.847656 132.433594 88.765625 131.988281 C 86.960938 130.859375 85.953125 129.226562 85.125 127.3125 C 85.0625 127.167969 84.996094 127.023438 84.929688 126.875 C 84.070312 124.570312 84.355469 121.652344 85.3125 119.4375 C 85.597656 118.855469 85.90625 118.296875 86.25 117.75 C 84.214844 119.414062 82.722656 121.464844 82.3125 124.125 C 82.136719 127.023438 82.613281 129.667969 84.503906 131.953125 C 85.285156 132.789062 86.164062 133.367188 87.1875 133.875 C 87.324219 133.945312 87.464844 134.015625 87.605469 134.085938 C 89.25 134.605469 91.402344 134.503906 92.953125 133.78125 C 94.820312 132.664062 95.808594 131.023438 96.347656 128.9375 C 96.785156 126.785156 96.839844 124.6875 96.847656 122.496094 C 96.847656 122.113281 96.851562 121.730469 96.855469 121.347656 C 96.863281 120.351562 96.871094 119.355469 96.875 118.359375 C 96.882812 117.339844 96.890625 116.320312 96.898438 115.296875 C 96.914062 113.304688 96.925781 111.308594 96.9375 109.3125 C 95.539062 109.328125 94.144531 109.347656 92.746094 109.367188 C 92.097656 109.375 91.449219 109.382812 90.800781 109.390625 C 90.050781 109.398438 89.300781 109.410156 88.550781 109.421875 C 88.207031 109.425781 88.207031 109.425781 87.859375 109.429688 C 83.957031 109.476562 83.957031 109.476562 80.660156 111.34375 C 80.296875 111.832031 80.066406 112.300781 79.875 112.875 C 79.3125 112.6875 79.3125 112.6875 79.09375 112.277344 C 78.433594 110.042969 79.226562 108.054688 80.273438 106.101562 C 81.671875 103.816406 83.777344 102.523438 86.359375 101.894531 C 87.261719 101.730469 88.175781 101.746094 89.09375 101.734375 C 89.304688 101.730469 89.519531 101.726562 89.742188 101.722656 C 90.421875 101.710938 91.101562 101.703125 91.78125 101.695312 C 92.246094 101.6875 92.707031 101.679688 93.171875 101.671875 C 94.300781 101.65625 95.429688 101.640625 96.5625 101.625 C 95.9375 99.359375 94.628906 98.339844 92.636719 97.179688 C 92.050781 96.855469 91.464844 96.539062 90.878906 96.222656 C 87.148438 94.167969 84.316406 91.933594 82.886719 87.800781 C 82.777344 87.339844 82.71875 86.910156 82.6875 86.4375 C 82.671875 86.222656 82.65625 86.007812 82.640625 85.785156 C 82.535156 82.695312 83.660156 80.058594 85.628906 77.703125 C 87.898438 75.339844 91.039062 73.757812 94.335938 73.78125 Z M 94.335938 73.78125 "/>
<path style=" stroke:none;fill-rule:nonzero;fill:rgb(39.215687%,54.11765%,73.333335%);fill-opacity:1;" d="M 87.375 79.3125 C 87.4375 79.4375 87.5 79.558594 87.5625 79.6875 C 87.429688 79.972656 87.429688 79.972656 87.296875 80.261719 C 86.933594 81.066406 86.914062 81.789062 86.929688 82.664062 C 86.929688 82.8125 86.933594 82.964844 86.933594 83.117188 C 86.964844 84.1875 87.066406 85.101562 87.5625 86.0625 C 87.671875 86.289062 87.671875 86.289062 87.785156 86.519531 C 89.359375 89.445312 92.539062 90.96875 95.347656 92.5 C 96.511719 93.140625 97.582031 93.855469 98.625 94.6875 C 98.8125 94.832031 98.996094 94.972656 99.1875 95.121094 C 99.785156 95.621094 100.207031 96.210938 100.617188 96.867188 C 100.691406 96.980469 100.761719 97.097656 100.835938 97.214844 C 101.964844 99.054688 102.410156 100.863281 102.386719 103.007812 C 102.386719 103.144531 102.386719 103.285156 102.382812 103.425781 C 102.382812 103.761719 102.378906 104.101562 102.375 104.4375 C 103.210938 104.421875 104.046875 104.402344 104.882812 104.378906 C 105.117188 104.375 105.351562 104.371094 105.59375 104.367188 C 107.449219 104.3125 108.988281 104.027344 110.625 103.125 C 110.15625 104.574219 109.238281 105.34375 107.945312 106.0625 C 106.578125 106.730469 105.3125 106.90625 103.804688 106.886719 C 103.597656 106.886719 103.597656 106.886719 103.386719 106.886719 C 103.050781 106.882812 102.710938 106.878906 102.375 106.875 C 102.375 107.230469 102.375 107.230469 102.378906 107.59375 C 102.390625 109.832031 102.398438 112.074219 102.402344 114.3125 C 102.40625 115.464844 102.410156 116.613281 102.417969 117.765625 C 102.421875 118.878906 102.425781 119.992188 102.429688 121.105469 C 102.429688 121.527344 102.429688 121.949219 102.433594 122.371094 C 102.464844 126.605469 102.464844 126.605469 101.8125 128.4375 C 101.757812 128.605469 101.699219 128.777344 101.640625 128.953125 C 100.90625 131.089844 99.238281 132.820312 97.324219 133.980469 C 97.039062 134.113281 97.039062 134.113281 96.75 134.25 C 96.625 134.1875 96.503906 134.125 96.375 134.0625 C 96.542969 133.886719 96.707031 133.714844 96.878906 133.535156 C 99.382812 130.585938 99.300781 126.640625 99.300781 123.007812 C 99.304688 122.539062 99.308594 122.074219 99.3125 121.605469 C 99.320312 120.386719 99.324219 119.167969 99.324219 117.945312 C 99.328125 116.699219 99.335938 115.449219 99.34375 114.203125 C 99.359375 111.761719 99.367188 109.316406 99.375 106.875 C 97.507812 106.882812 95.640625 106.894531 93.769531 106.910156 C 92.902344 106.917969 92.035156 106.921875 91.167969 106.925781 C 90.328125 106.929688 89.492188 106.933594 88.652344 106.945312 C 88.332031 106.945312 88.015625 106.949219 87.695312 106.949219 C 85.433594 106.949219 83.53125 107.140625 81.5625 108.375 C 82.117188 106.78125 83.441406 105.785156 84.917969 105.054688 C 86.71875 104.308594 88.761719 104.386719 90.675781 104.402344 C 90.929688 104.402344 91.183594 104.402344 91.4375 104.402344 C 92.09375 104.402344 92.75 104.40625 93.40625 104.410156 C 94.082031 104.414062 94.753906 104.417969 95.429688 104.417969 C 96.742188 104.421875 98.058594 104.429688 99.375 104.4375 C 99.292969 103.839844 99.210938 103.238281 99.125 102.640625 C 99.101562 102.472656 99.078125 102.304688 99.054688 102.128906 C 98.699219 99.65625 97.519531 97.855469 95.613281 96.234375 C 94.535156 95.433594 93.347656 94.804688 92.179688 94.148438 C 89.1875 92.460938 86.453125 90.613281 85.253906 87.246094 C 84.742188 84.742188 85.226562 82.539062 86.566406 80.402344 C 87.132812 79.554688 87.132812 79.554688 87.375 79.3125 Z M 87.375 79.3125 "/>
<path style=" stroke:none;fill-rule:nonzero;fill:rgb(97.254902%,98.431373%,99.215686%);fill-opacity:1;" d="M 81.527344 40.980469 C 83.179688 42.1875 84.277344 44.121094 84.671875 46.109375 C 84.976562 48.355469 84.757812 50.429688 83.378906 52.289062 C 83.152344 52.550781 82.921875 52.808594 82.6875 53.0625 C 82.597656 53.160156 82.507812 53.261719 82.417969 53.363281 C 80.539062 55.195312 77.554688 56.035156 75.125 56.84375 C 74.640625 57.003906 74.152344 57.167969 73.667969 57.332031 C 73.359375 57.4375 73.050781 57.539062 72.738281 57.644531 C 72.59375 57.691406 72.449219 57.742188 72.300781 57.792969 C 71.292969 58.125 71.292969 58.125 70.875 58.125 C 70.875 57.878906 70.875 57.628906 70.875 57.375 C 70.996094 57.320312 71.113281 57.265625 71.238281 57.210938 C 71.652344 57.03125 71.652344 57.03125 71.8125 56.625 C 71.875 55.519531 71.734375 54.675781 71.367188 53.640625 C 71.320312 53.503906 71.273438 53.367188 71.226562 53.222656 C 71.074219 52.78125 70.921875 52.34375 70.769531 51.902344 C 70.664062 51.597656 70.5625 51.296875 70.457031 50.992188 C 70.304688 50.539062 70.148438 50.085938 69.992188 49.632812 C 69.703125 48.785156 69.417969 47.9375 69.148438 47.082031 C 69.089844 46.902344 69.03125 46.71875 68.972656 46.53125 C 68.867188 46.207031 68.769531 45.886719 68.667969 45.5625 C 68.414062 44.769531 68.199219 44.195312 67.5 43.6875 C 66.8125 43.625 66.8125 43.625 66.1875 43.6875 C 66.1875 43.441406 66.1875 43.191406 66.1875 42.9375 C 67.121094 42.601562 68.054688 42.269531 68.988281 41.9375 C 69.304688 41.824219 69.617188 41.710938 69.933594 41.597656 C 77.804688 38.769531 77.804688 38.769531 81.527344 40.980469 Z M 81.527344 40.980469 "/>
<path style=" stroke:none;fill-rule:nonzero;fill:rgb(97.647059%,98.823529%,99.215686%);fill-opacity:1;" d="M 59.25 47.0625 C 59.085938 47.976562 59.085938 47.976562 58.875 48.1875 C 58.808594 48.90625 58.789062 49.355469 59.160156 49.988281 C 59.292969 50.140625 59.425781 50.292969 59.566406 50.449219 C 59.796875 50.710938 59.796875 50.710938 60.03125 50.980469 C 60.207031 51.175781 60.382812 51.371094 60.5625 51.5625 C 60.710938 51.722656 60.710938 51.722656 60.859375 51.886719 C 61.382812 52.457031 61.90625 53.019531 62.4375 53.582031 C 63.078125 54.269531 63.695312 54.976562 64.3125 55.6875 C 65.652344 57.367188 65.652344 57.367188 67.3125 58.6875 C 68.007812 58.691406 68.007812 58.691406 68.625 58.5 C 68.8125 58.5 68.996094 58.5 69.1875 58.5 C 68.886719 59.285156 68.308594 59.769531 67.699219 60.316406 C 67.589844 60.414062 67.484375 60.511719 67.371094 60.613281 C 67.042969 60.910156 66.707031 61.207031 66.375 61.5 C 66.273438 61.589844 66.171875 61.679688 66.066406 61.773438 C 64.851562 62.839844 64.851562 62.839844 64.3125 63.1875 C 64.035156 63.09375 64.035156 63.09375 63.75 63 C 63.8125 62.902344 63.875 62.804688 63.9375 62.707031 C 64.214844 62.03125 64.242188 61.671875 64.125 60.9375 C 63.269531 59.550781 62.011719 58.382812 60.902344 57.195312 C 60.386719 56.640625 59.882812 56.070312 59.386719 55.496094 C 58.726562 54.738281 58.050781 53.996094 57.375 53.25 C 57.375 53.777344 57.441406 54.089844 57.597656 54.582031 C 57.648438 54.738281 57.695312 54.894531 57.746094 55.050781 C 57.800781 55.21875 57.855469 55.386719 57.910156 55.558594 C 57.964844 55.734375 58.019531 55.910156 58.078125 56.089844 C 58.195312 56.460938 58.316406 56.832031 58.433594 57.203125 C 58.613281 57.761719 58.789062 58.320312 58.96875 58.878906 C 59.082031 59.242188 59.199219 59.601562 59.316406 59.964844 C 59.402344 60.234375 59.402344 60.234375 59.488281 60.507812 C 59.757812 61.347656 60.039062 62.179688 60.34375 63.007812 C 60.398438 63.152344 60.449219 63.300781 60.507812 63.449219 C 60.605469 63.71875 60.707031 63.984375 60.8125 64.253906 C 61.078125 64.972656 61.175781 65.449219 60.9375 66.1875 C 60.648438 66.320312 60.648438 66.320312 60.1875 66.375 C 59.710938 66.191406 59.28125 66 58.832031 65.769531 C 58.695312 65.703125 58.5625 65.636719 58.425781 65.570312 C 57.992188 65.355469 57.5625 65.140625 57.128906 64.921875 C 56.832031 64.773438 56.535156 64.628906 56.238281 64.480469 C 55.644531 64.1875 55.050781 63.894531 54.457031 63.601562 C 53.34375 63.046875 52.226562 62.507812 51.105469 61.96875 C 50.933594 61.882812 50.757812 61.800781 50.578125 61.714844 C 50.421875 61.636719 50.261719 61.5625 50.097656 61.484375 C 49.964844 61.417969 49.828125 61.351562 49.6875 61.285156 C 49.316406 61.125 48.957031 61.023438 48.5625 60.9375 C 48.78125 61.1875 48.78125 61.1875 49 61.445312 C 50.132812 62.757812 51.238281 64.082031 52.3125 65.4375 C 52.734375 65.964844 53.15625 66.492188 53.578125 67.019531 C 53.683594 67.152344 53.785156 67.28125 53.894531 67.417969 C 54.597656 68.320312 54.597656 68.320312 55.5 69 C 56.171875 68.953125 56.734375 68.839844 57.375 68.625 C 57.375 69.375 57.375 69.375 57.113281 69.714844 C 56.929688 69.882812 56.929688 69.882812 56.746094 70.058594 C 56.613281 70.179688 56.480469 70.304688 56.34375 70.429688 C 56.207031 70.558594 56.066406 70.683594 55.921875 70.816406 C 55.785156 70.945312 55.648438 71.074219 55.507812 71.207031 C 54.382812 72.246094 54.382812 72.246094 53.625 72.375 C 53.625 71.8125 53.625 71.8125 53.8125 71.4375 C 54.011719 70.4375 53.96875 69.988281 53.40625 69.121094 C 52.960938 68.542969 52.492188 67.988281 52.015625 67.433594 C 51.65625 67.015625 51.316406 66.585938 50.976562 66.152344 C 50.179688 65.160156 49.375 64.167969 48.5625 63.1875 C 48.472656 63.082031 48.386719 62.972656 48.296875 62.863281 C 48.019531 62.53125 47.738281 62.195312 47.460938 61.863281 C 47.332031 61.707031 47.332031 61.707031 47.195312 61.542969 C 46.796875 61.070312 46.457031 60.722656 45.9375 60.375 C 45.296875 60.441406 44.683594 60.582031 44.0625 60.75 C 44.0625 60 44.0625 60 44.460938 59.5625 C 44.640625 59.410156 44.816406 59.253906 45 59.097656 C 45.191406 58.933594 45.378906 58.769531 45.570312 58.605469 C 45.84375 58.367188 45.84375 58.367188 46.125 58.125 C 46.265625 57.984375 46.410156 57.847656 46.554688 57.703125 C 46.679688 57.585938 46.804688 57.464844 46.933594 57.339844 C 47.042969 57.234375 47.148438 57.125 47.257812 57.015625 C 47.824219 56.703125 48.125 56.84375 48.75 57 C 49.421875 57.285156 50.066406 57.617188 50.714844 57.949219 C 50.902344 58.042969 51.089844 58.136719 51.28125 58.234375 C 51.878906 58.535156 52.476562 58.839844 53.074219 59.144531 C 53.671875 59.449219 54.269531 59.75 54.867188 60.050781 C 55.238281 60.238281 55.613281 60.429688 55.984375 60.617188 C 56.234375 60.746094 56.234375 60.746094 56.496094 60.878906 C 56.640625 60.953125 56.789062 61.027344 56.941406 61.105469 C 57.390625 61.320312 57.847656 61.507812 58.3125 61.6875 C 57.941406 60.285156 57.527344 58.902344 57.074219 57.523438 C 56.945312 57.128906 56.820312 56.738281 56.691406 56.347656 C 56.492188 55.738281 56.292969 55.128906 56.09375 54.519531 C 55.898438 53.929688 55.707031 53.335938 55.515625 52.742188 C 55.453125 52.558594 55.394531 52.375 55.332031 52.1875 C 55.277344 52.019531 55.222656 51.847656 55.164062 51.675781 C 55.117188 51.523438 55.066406 51.375 55.019531 51.222656 C 54.925781 50.757812 54.953125 50.5 55.125 50.0625 C 55.542969 49.667969 55.542969 49.667969 56.074219 49.253906 C 56.871094 48.625 57.636719 47.984375 58.375 47.289062 C 58.6875 47.0625 58.6875 47.0625 59.25 47.0625 Z M 59.25 47.0625 "/>
<path style=" stroke:none;fill-rule:nonzero;fill:rgb(97.254902%,98.431373%,99.215686%);fill-opacity:1;" d="M 110.4375 37.875 C 110.808594 37.941406 111.179688 38.019531 111.546875 38.113281 C 112 38.222656 112.417969 38.28125 112.882812 38.335938 C 113.820312 38.488281 114.601562 38.71875 115.3125 39.375 C 116.09375 40.691406 116.460938 42.214844 116.863281 43.679688 C 117.238281 45.027344 117.714844 46.324219 118.195312 47.636719 C 118.757812 49.1875 119.296875 50.746094 119.8125 52.3125 C 119.878906 52.128906 119.941406 51.941406 120.011719 51.75 C 120.253906 51.058594 120.5 50.363281 120.742188 49.671875 C 120.847656 49.371094 120.953125 49.074219 121.058594 48.773438 C 121.210938 48.34375 121.363281 47.910156 121.515625 47.476562 C 121.585938 47.28125 121.585938 47.28125 121.65625 47.078125 C 121.886719 46.425781 122.125 45.777344 122.371094 45.128906 C 122.625 44.441406 122.753906 44.03125 122.625 43.3125 C 122.175781 42.816406 122.175781 42.816406 121.6875 42.375 C 121.5625 41.972656 121.5625 41.972656 121.5 41.625 C 122.617188 41.890625 123.695312 42.214844 124.78125 42.585938 C 124.933594 42.636719 125.089844 42.691406 125.25 42.742188 C 125.625 42.871094 126 42.996094 126.375 43.125 C 126.375 43.3125 126.375 43.496094 126.375 43.6875 C 126.003906 43.730469 125.628906 43.773438 125.257812 43.816406 C 124.839844 43.871094 124.839844 43.871094 124.3125 44.0625 C 124.105469 44.5625 124.105469 44.5625 123.9375 45.1875 C 123.855469 45.433594 123.769531 45.679688 123.679688 45.925781 C 123.609375 46.128906 123.609375 46.128906 123.539062 46.332031 C 123.488281 46.476562 123.4375 46.621094 123.386719 46.765625 C 123.332031 46.917969 123.28125 47.070312 123.226562 47.226562 C 122.933594 48.058594 122.640625 48.886719 122.351562 49.71875 C 121.820312 51.226562 121.289062 52.738281 120.789062 54.261719 C 120.714844 54.488281 120.640625 54.714844 120.5625 54.945312 C 120.425781 55.363281 120.289062 55.777344 120.15625 56.191406 C 120.097656 56.375 120.039062 56.554688 119.976562 56.742188 C 119.925781 56.898438 119.875 57.050781 119.824219 57.210938 C 119.625 57.5625 119.625 57.5625 119.285156 57.730469 C 118.707031 57.757812 118.433594 57.6875 117.9375 57.375 C 117.6875 56.882812 117.507812 56.445312 117.335938 55.929688 C 117.261719 55.710938 117.261719 55.710938 117.179688 55.484375 C 117.011719 55.003906 116.847656 54.519531 116.683594 54.035156 C 116.566406 53.703125 116.453125 53.371094 116.335938 53.035156 C 116.046875 52.203125 115.757812 51.367188 115.472656 50.53125 C 115.234375 49.835938 114.992188 49.140625 114.75 48.445312 C 114.046875 46.429688 113.359375 44.402344 112.6875 42.375 C 112.371094 42.847656 112.199219 43.191406 112.015625 43.714844 C 111.960938 43.871094 111.902344 44.027344 111.847656 44.1875 C 111.785156 44.355469 111.726562 44.523438 111.667969 44.695312 C 111.605469 44.871094 111.542969 45.046875 111.480469 45.222656 C 111.351562 45.59375 111.222656 45.960938 111.09375 46.332031 C 110.894531 46.894531 110.695312 47.453125 110.496094 48.011719 C 110.371094 48.371094 110.246094 48.730469 110.121094 49.089844 C 110.0625 49.257812 110 49.421875 109.941406 49.59375 C 109.597656 50.582031 109.238281 51.628906 109.3125 52.6875 C 109.738281 53.222656 109.738281 53.222656 110.25 53.625 C 110.375 54.027344 110.375 54.027344 110.4375 54.375 C 109.246094 54.128906 108.109375 53.808594 106.957031 53.414062 C 106.726562 53.335938 106.726562 53.335938 106.492188 53.257812 C 106.121094 53.128906 105.746094 53.003906 105.375 52.875 C 105.4375 52.6875 105.5 52.503906 105.5625 52.3125 C 105.929688 52.292969 106.296875 52.277344 106.660156 52.257812 C 107.269531 52.054688 107.449219 51.714844 107.8125 51.1875 C 108.066406 50.625 108.269531 50.046875 108.46875 49.464844 C 108.558594 49.214844 108.558594 49.214844 108.648438 48.957031 C 108.835938 48.425781 109.019531 47.890625 109.207031 47.355469 C 109.332031 47.003906 109.457031 46.648438 109.578125 46.296875 C 109.820312 45.613281 110.058594 44.929688 110.296875 44.246094 C 110.5 43.667969 110.707031 43.089844 110.921875 42.515625 C 111.007812 42.285156 111.09375 42.054688 111.183594 41.816406 C 111.257812 41.625 111.332031 41.429688 111.40625 41.230469 C 111.578125 40.636719 111.625 40.175781 111.5625 39.5625 C 111.113281 39.066406 111.113281 39.066406 110.625 38.625 C 110.5 38.222656 110.5 38.222656 110.4375 37.875 Z M 110.4375 37.875 "/>
<path style=" stroke:none;fill-rule:nonzero;fill:rgb(96.470588%,98.039216%,99.215686%);fill-opacity:1;" d="M 94.71875 36.339844 C 94.945312 36.34375 94.945312 36.34375 95.179688 36.351562 C 95.410156 36.355469 95.410156 36.355469 95.644531 36.363281 C 95.820312 36.367188 95.820312 36.367188 96 36.375 C 96.296875 37.054688 96.59375 37.734375 96.890625 38.414062 C 96.972656 38.605469 97.058594 38.792969 97.140625 38.988281 C 97.226562 39.179688 97.308594 39.367188 97.390625 39.5625 C 97.464844 39.730469 97.539062 39.902344 97.617188 40.078125 C 97.894531 40.738281 98.160156 41.402344 98.425781 42.066406 C 98.964844 43.414062 99.523438 44.753906 100.082031 46.097656 C 100.238281 46.46875 100.390625 46.839844 100.542969 47.210938 C 100.765625 47.753906 100.988281 48.296875 101.214844 48.835938 C 101.28125 49 101.351562 49.167969 101.417969 49.335938 C 101.769531 50.175781 102.105469 50.902344 102.75 51.5625 C 103.335938 51.816406 103.335938 51.816406 103.875 51.9375 C 103.875 52.183594 103.875 52.433594 103.875 52.6875 C 101.648438 52.6875 99.421875 52.6875 97.125 52.6875 C 97.125 52.441406 97.125 52.191406 97.125 51.9375 C 97.589844 51.84375 97.589844 51.84375 98.0625 51.75 C 98.183594 50.488281 97.859375 49.640625 97.328125 48.496094 C 97.125 48 97.125 48 97.125 47.4375 C 95.207031 47.4375 93.289062 47.4375 91.3125 47.4375 C 91.125 48.054688 90.941406 48.675781 90.75 49.3125 C 90.6875 49.5 90.625 49.683594 90.5625 49.875 C 90.550781 50.167969 90.546875 50.460938 90.550781 50.753906 C 90.550781 50.90625 90.554688 51.058594 90.554688 51.214844 C 90.558594 51.328125 90.558594 51.445312 90.5625 51.5625 C 90.933594 51.75 91.304688 51.933594 91.6875 52.125 C 91.6875 52.3125 91.6875 52.496094 91.6875 52.6875 C 90.078125 52.6875 88.46875 52.6875 86.8125 52.6875 C 86.875 52.441406 86.9375 52.191406 87 51.9375 C 87.171875 51.859375 87.339844 51.78125 87.515625 51.703125 C 89.03125 50.886719 89.484375 48.867188 90.035156 47.332031 C 90.191406 46.902344 90.347656 46.476562 90.503906 46.046875 C 90.722656 45.445312 90.941406 44.84375 91.160156 44.242188 C 91.667969 42.855469 92.175781 41.46875 92.6875 40.082031 C 92.847656 39.648438 93.003906 39.214844 93.160156 38.785156 C 93.257812 38.519531 93.355469 38.253906 93.453125 37.992188 C 93.539062 37.761719 93.621094 37.527344 93.710938 37.289062 C 94.085938 36.394531 94.085938 36.394531 94.71875 36.339844 Z M 94.71875 36.339844 "/>
<path style=" stroke:none;fill-rule:nonzero;fill:rgb(96.862745%,98.431373%,99.215686%);fill-opacity:1;" d="M 35.4375 72.5625 C 36.59375 72.535156 37.691406 72.636719 38.835938 72.796875 C 39.019531 72.820312 39.203125 72.847656 39.390625 72.871094 C 40.011719 72.957031 40.628906 73.039062 41.25 73.125 C 41.988281 73.226562 42.722656 73.324219 43.460938 73.421875 C 43.945312 73.488281 44.429688 73.554688 44.914062 73.621094 C 46.78125 73.871094 48.644531 74.09375 50.53125 74.109375 C 50.660156 74.113281 50.789062 74.117188 50.921875 74.121094 C 51.660156 74.136719 51.660156 74.136719 52.28125 73.773438 C 52.351562 73.683594 52.425781 73.59375 52.5 73.5 C 52.910156 73.558594 52.910156 73.558594 53.25 73.6875 C 52.921875 74.605469 52.449219 75.429688 51.972656 76.277344 C 51.894531 76.421875 51.8125 76.566406 51.730469 76.714844 C 51.203125 77.660156 50.644531 78.585938 50.0625 79.5 C 49.785156 79.40625 49.785156 79.40625 49.5 79.3125 C 49.507812 79.105469 49.515625 78.894531 49.523438 78.679688 C 49.578125 77.992188 49.578125 77.992188 49.125 77.625 C 48.726562 77.519531 48.726562 77.519531 48.269531 77.464844 C 48.101562 77.441406 47.933594 77.417969 47.757812 77.390625 C 47.582031 77.367188 47.40625 77.34375 47.226562 77.320312 C 47.050781 77.296875 46.871094 77.269531 46.691406 77.242188 C 46.25 77.183594 45.8125 77.121094 45.375 77.0625 C 45.324219 77.199219 45.269531 77.335938 45.214844 77.480469 C 45.019531 77.957031 44.796875 78.390625 44.539062 78.835938 C 44.453125 78.992188 44.371094 79.144531 44.28125 79.304688 C 44.105469 79.625 43.921875 79.941406 43.742188 80.257812 C 43.230469 81.128906 43.230469 81.128906 43.214844 82.09375 C 43.507812 82.511719 43.800781 82.90625 44.144531 83.285156 C 44.257812 83.410156 44.367188 83.539062 44.484375 83.667969 C 44.957031 84.144531 45.265625 84.363281 45.9375 84.433594 C 46.570312 84.367188 46.664062 84.269531 47.0625 83.8125 C 47.25 83.8125 47.433594 83.8125 47.625 83.8125 C 47.429688 84.75 46.957031 85.539062 46.511719 86.378906 C 46.425781 86.542969 46.339844 86.707031 46.253906 86.878906 C 46.171875 87.035156 46.085938 87.191406 46.003906 87.355469 C 45.925781 87.496094 45.851562 87.640625 45.773438 87.789062 C 45.5625 88.125 45.5625 88.125 45.1875 88.3125 C 45 88.21875 45 88.21875 44.8125 88.125 C 44.839844 87.886719 44.867188 87.644531 44.894531 87.398438 C 44.875 85.347656 42.664062 83.566406 41.378906 82.109375 C 40.886719 81.550781 40.40625 80.988281 39.925781 80.425781 C 39.835938 80.320312 39.742188 80.210938 39.648438 80.101562 C 39.175781 79.550781 38.707031 79 38.238281 78.449219 C 37.078125 77.089844 35.898438 75.75 34.6875 74.4375 C 34.898438 73.785156 35.113281 73.167969 35.4375 72.5625 Z M 35.4375 72.5625 "/>
<path style=" stroke:none;fill-rule:nonzero;fill:rgb(38.039216%,53.725493%,73.333335%);fill-opacity:1;" d="M 78.503906 42.304688 C 79.914062 43.75 80.589844 45.351562 81.1875 47.25 C 81.25 47.4375 81.3125 47.621094 81.375 47.8125 C 81.492188 49.832031 81.539062 51.640625 80.238281 53.296875 C 79.25 54.351562 77.769531 55.125 76.3125 55.195312 C 76.183594 55.203125 76.058594 55.214844 75.925781 55.222656 C 75.5625 55.125 75.5625 55.125 75.296875 54.757812 C 74.910156 54.011719 74.664062 53.25 74.410156 52.449219 C 74.355469 52.28125 74.300781 52.113281 74.246094 51.9375 C 74.070312 51.394531 73.894531 50.851562 73.722656 50.308594 C 73.550781 49.777344 73.378906 49.246094 73.207031 48.710938 C 73.097656 48.363281 72.984375 48.011719 72.871094 47.660156 C 72.601562 46.816406 72.324219 45.972656 72.035156 45.128906 C 71.980469 44.976562 71.925781 44.820312 71.871094 44.660156 C 71.769531 44.367188 71.667969 44.078125 71.566406 43.785156 C 71.230469 42.8125 71.230469 42.8125 71.4375 42.1875 C 71.875 41.976562 71.875 41.976562 72.421875 41.789062 C 72.601562 41.726562 72.78125 41.664062 72.964844 41.601562 C 75.027344 40.972656 76.652344 41.183594 78.503906 42.304688 Z M 78.503906 42.304688 "/>
<path style=" stroke:none;fill-rule:nonzero;fill:rgb(96.862745%,98.431373%,99.215686%);fill-opacity:1;" d="M 151.125 64.5 C 151.953125 65.5 152.589844 66.582031 153.246094 67.699219 C 153.371094 67.902344 153.492188 68.109375 153.621094 68.316406 C 153.734375 68.515625 153.851562 68.710938 153.96875 68.914062 C 154.078125 69.089844 154.183594 69.269531 154.292969 69.453125 C 154.5 69.9375 154.5 69.9375 154.4375 70.375 C 154.398438 70.480469 154.355469 70.582031 154.3125 70.6875 C 154.1875 70.6875 154.066406 70.6875 153.9375 70.6875 C 153.632812 70.3125 153.632812 70.3125 153.375 69.9375 C 152.132812 70.007812 151.277344 70.5 150.222656 71.132812 C 150.050781 71.234375 149.882812 71.332031 149.707031 71.4375 C 149.175781 71.746094 148.652344 72.058594 148.125 72.375 C 147.875 72.523438 147.875 72.523438 147.621094 72.675781 C 147.15625 72.953125 146.691406 73.230469 146.226562 73.511719 C 146.015625 73.640625 146.015625 73.640625 145.800781 73.769531 C 145.605469 73.886719 145.605469 73.886719 145.40625 74.011719 C 145.292969 74.078125 145.179688 74.148438 145.0625 74.21875 C 144.734375 74.433594 144.734375 74.433594 144.453125 74.746094 C 144.1875 75 144.1875 75 143.8125 75 C 143.761719 75.101562 143.710938 75.199219 143.660156 75.304688 C 143.4375 75.75 143.4375 75.75 143.132812 76.242188 C 142.722656 77.25 142.664062 78.191406 143.054688 79.21875 C 143.632812 80.328125 144.339844 81.066406 145.5 81.5625 C 147.628906 81.941406 149.167969 81.09375 150.9375 80.0625 C 151.144531 79.945312 151.347656 79.824219 151.558594 79.703125 C 154.113281 78.378906 154.113281 78.378906 156.375 76.6875 C 156.421875 76.1875 156.421875 76.1875 156.398438 75.632812 C 156.394531 75.445312 156.390625 75.257812 156.386719 75.0625 C 156.382812 74.917969 156.378906 74.773438 156.375 74.625 C 156.621094 74.625 156.871094 74.625 157.125 74.625 C 157.5 75.304688 157.875 75.984375 158.25 76.664062 C 158.355469 76.859375 158.464844 77.050781 158.574219 77.25 C 158.675781 77.4375 158.777344 77.621094 158.882812 77.8125 C 158.976562 77.980469 159.070312 78.152344 159.167969 78.328125 C 159.375 78.75 159.375 78.75 159.375 79.125 C 159.128906 79.125 158.878906 79.125 158.625 79.125 C 158.507812 79 158.394531 78.878906 158.273438 78.75 C 157.902344 78.328125 157.902344 78.328125 157.359375 78.3125 C 156.632812 78.386719 156.222656 78.605469 155.597656 78.976562 C 155.488281 79.042969 155.382812 79.105469 155.273438 79.167969 C 155.046875 79.300781 154.820312 79.4375 154.59375 79.570312 C 154.007812 79.921875 153.417969 80.265625 152.828125 80.609375 C 152.710938 80.675781 152.597656 80.742188 152.476562 80.8125 C 151.570312 81.339844 150.648438 81.835938 149.707031 82.300781 C 149.589844 82.359375 149.472656 82.417969 149.351562 82.476562 C 147.941406 83.160156 146.378906 83.371094 144.847656 82.929688 C 144.472656 82.75 144.148438 82.550781 143.8125 82.3125 C 143.527344 82.117188 143.527344 82.117188 143.238281 81.914062 C 141.628906 80.46875 140.6875 78.429688 140.347656 76.316406 C 140.257812 74.632812 140.976562 73.335938 142.054688 72.078125 C 142.46875 71.652344 142.933594 71.355469 143.4375 71.039062 C 143.546875 70.96875 143.65625 70.902344 143.769531 70.828125 C 144.984375 70.078125 146.230469 69.375 147.476562 68.671875 C 148.359375 68.171875 149.226562 67.660156 150.078125 67.105469 C 150.375 66.9375 150.375 66.9375 150.75 66.9375 C 150.75 66.195312 150.75 65.453125 150.75 64.6875 C 150.875 64.625 150.996094 64.5625 151.125 64.5 Z M 151.125 64.5 "/>
<path style=" stroke:none;fill-rule:nonzero;fill:rgb(97.254902%,98.431373%,99.215686%);fill-opacity:1;" d="M 160.5 83.625 C 160.746094 83.625 160.996094 83.625 161.25 83.625 C 161.695312 85.152344 162.027344 86.6875 162.316406 88.253906 C 162.378906 88.589844 162.378906 88.589844 162.445312 88.929688 C 162.546875 89.472656 162.648438 90.019531 162.75 90.5625 C 162.503906 90.5625 162.253906 90.5625 162 90.5625 C 161.8125 90.097656 161.8125 90.097656 161.625 89.625 C 160.863281 89.722656 160.492188 89.914062 159.945312 90.449219 C 159.808594 90.578125 159.675781 90.707031 159.535156 90.839844 C 159.398438 90.976562 159.257812 91.113281 159.117188 91.253906 C 158.84375 91.519531 158.566406 91.785156 158.292969 92.054688 C 158.160156 92.183594 158.027344 92.308594 157.890625 92.441406 C 157.523438 92.792969 157.144531 93.121094 156.753906 93.449219 C 156.191406 93.871094 156.191406 93.871094 156 94.3125 C 156.238281 94.363281 156.476562 94.410156 156.722656 94.464844 C 157.871094 94.71875 158.984375 95.074219 160.105469 95.429688 C 160.261719 95.480469 160.421875 95.527344 160.585938 95.578125 C 160.726562 95.625 160.867188 95.667969 161.011719 95.714844 C 161.492188 95.824219 161.886719 95.867188 162.375 95.8125 C 162.773438 95.214844 162.84375 94.824219 162.9375 94.125 C 163.125 94.125 163.308594 94.125 163.5 94.125 C 163.652344 94.75 163.804688 95.375 163.957031 96 C 164 96.175781 164.042969 96.351562 164.085938 96.53125 C 164.332031 97.542969 164.519531 98.527344 164.625 99.5625 C 164.378906 99.5625 164.128906 99.5625 163.875 99.5625 C 163.695312 99.273438 163.695312 99.273438 163.535156 98.882812 C 162.875 97.769531 161.785156 97.496094 160.617188 97.105469 C 160.035156 96.90625 159.453125 96.695312 158.875 96.484375 C 158.425781 96.328125 157.972656 96.167969 157.523438 96.011719 C 157.308594 95.933594 157.089844 95.855469 156.867188 95.777344 C 155.613281 95.351562 154.671875 95.136719 153.375 95.4375 C 153.160156 95.480469 153.160156 95.480469 152.941406 95.523438 C 152.5 95.613281 152.066406 95.710938 151.628906 95.8125 C 151.410156 95.863281 151.410156 95.863281 151.183594 95.914062 C 150.535156 96.0625 149.894531 96.214844 149.25 96.375 C 149.1875 96.992188 149.125 97.613281 149.0625 98.25 C 148.816406 98.25 148.566406 98.25 148.3125 98.25 C 148.148438 97.503906 147.988281 96.757812 147.832031 96.011719 C 147.777344 95.753906 147.722656 95.5 147.667969 95.246094 C 147.589844 94.875 147.511719 94.507812 147.433594 94.136719 C 147.386719 93.914062 147.339844 93.691406 147.289062 93.464844 C 147.183594 92.796875 147.167969 92.171875 147.1875 91.5 C 147.375 91.5 147.558594 91.5 147.75 91.5 C 147.875 91.871094 147.996094 92.242188 148.125 92.625 C 148.941406 92.597656 149.75 92.523438 150.5625 92.4375 C 150.75 92.421875 150.75 92.421875 150.9375 92.402344 C 153.488281 92.136719 154.832031 90.890625 156.554688 89.082031 C 157.246094 88.371094 157.988281 87.722656 158.726562 87.0625 C 159.5625 86.296875 160.371094 85.496094 160.453125 84.304688 C 160.46875 84.082031 160.484375 83.855469 160.5 83.625 Z M 160.5 83.625 "/>
<path style=" stroke:none;fill-rule:nonzero;fill:rgb(96.862745%,98.431373%,99.215686%);fill-opacity:1;" d="M 30.375 85.125 C 30.921875 85.152344 31.46875 85.179688 32.015625 85.207031 C 32.246094 85.21875 32.246094 85.21875 32.484375 85.230469 C 32.710938 85.242188 32.710938 85.242188 32.9375 85.253906 C 33.074219 85.261719 33.214844 85.265625 33.355469 85.273438 C 33.753906 85.3125 34.117188 85.394531 34.5 85.5 C 34.5 85.746094 34.5 85.996094 34.5 86.25 C 34.375 86.285156 34.25 86.316406 34.121094 86.351562 C 32.511719 86.800781 32.511719 86.800781 31.277344 87.878906 C 30.886719 88.59375 30.726562 89.203125 30.5625 90 C 30.683594 90.019531 30.800781 90.042969 30.925781 90.0625 C 32.335938 90.3125 33.734375 90.601562 35.132812 90.902344 C 35.359375 90.949219 35.589844 91 35.824219 91.050781 C 36.894531 91.28125 37.964844 91.515625 39.027344 91.78125 C 39.203125 91.824219 39.375 91.867188 39.554688 91.914062 C 39.875 91.992188 40.195312 92.078125 40.515625 92.160156 C 41.585938 92.433594 42.585938 92.480469 43.6875 92.4375 C 43.875 92.066406 44.058594 91.695312 44.25 91.3125 C 44.4375 91.3125 44.621094 91.3125 44.8125 91.3125 C 44.714844 92.824219 44.46875 94.273438 44.144531 95.753906 C 44.101562 95.960938 44.058594 96.164062 44.011719 96.375 C 43.90625 96.875 43.796875 97.375 43.6875 97.875 C 43.441406 97.9375 43.191406 98 42.9375 98.0625 C 42.929688 97.691406 42.925781 97.316406 42.917969 96.945312 C 42.769531 96.503906 42.769531 96.503906 42.222656 96.265625 C 41.242188 95.898438 40.21875 95.699219 39.199219 95.484375 C 38.980469 95.4375 38.765625 95.390625 38.542969 95.339844 C 38.070312 95.238281 37.601562 95.136719 37.132812 95.039062 C 35.921875 94.777344 34.714844 94.511719 33.507812 94.246094 C 33.109375 94.160156 32.714844 94.074219 32.316406 93.988281 C 32.195312 93.960938 32.070312 93.933594 31.941406 93.90625 C 31.605469 93.832031 31.269531 93.761719 30.929688 93.6875 C 30.492188 93.589844 30.058594 93.488281 29.625 93.375 C 29.464844 95.660156 29.464844 95.660156 30.375 97.6875 C 30.574219 97.898438 30.777344 98.105469 30.984375 98.308594 C 31.15625 98.476562 31.324219 98.640625 31.5 98.8125 C 31.5 99 31.5 99.183594 31.5 99.375 C 30.621094 99.238281 29.828125 98.929688 29.003906 98.613281 C 28.863281 98.558594 28.726562 98.507812 28.582031 98.453125 C 28.242188 98.324219 27.902344 98.191406 27.5625 98.0625 C 27.671875 97.082031 27.828125 96.148438 28.0625 95.1875 C 28.125 94.925781 28.1875 94.664062 28.253906 94.402344 C 28.285156 94.265625 28.316406 94.132812 28.351562 93.992188 C 28.925781 91.628906 29.457031 89.265625 29.914062 86.875 C 29.949219 86.699219 29.980469 86.519531 30.015625 86.335938 C 30.046875 86.183594 30.074219 86.03125 30.105469 85.871094 C 30.1875 85.5 30.1875 85.5 30.375 85.125 Z M 30.375 85.125 "/>
<path style=" stroke:none;fill-rule:nonzero;fill:rgb(97.647059%,98.823529%,99.607843%);fill-opacity:1;" d="M 138.75 51.75 C 139.386719 52.023438 139.796875 52.378906 140.277344 52.875 C 140.496094 53.09375 140.496094 53.09375 140.71875 53.320312 C 140.945312 53.550781 140.945312 53.550781 141.175781 53.789062 C 141.472656 54.09375 141.773438 54.398438 142.070312 54.703125 C 142.203125 54.835938 142.335938 54.972656 142.46875 55.109375 C 142.898438 55.519531 143.34375 55.886719 143.8125 56.25 C 143.75 56.496094 143.6875 56.746094 143.625 57 C 143.460938 56.902344 143.300781 56.804688 143.132812 56.707031 C 142.394531 56.390625 142.136719 56.402344 141.375 56.625 C 140.839844 57.039062 140.839844 57.039062 140.355469 57.574219 C 140.265625 57.667969 140.175781 57.761719 140.082031 57.855469 C 139.476562 58.492188 138.898438 59.152344 138.328125 59.820312 C 137.953125 60.242188 137.558594 60.636719 137.15625 61.03125 C 136.527344 61.652344 135.929688 62.292969 135.355469 62.96875 C 135.082031 63.28125 134.796875 63.589844 134.507812 63.894531 C 134.421875 63.984375 134.335938 64.074219 134.25 64.167969 C 134.003906 64.429688 133.753906 64.6875 133.507812 64.949219 C 133.113281 65.453125 132.984375 65.742188 132.9375 66.375 C 133.046875 66.792969 133.046875 66.792969 133.3125 67.125 C 133.429688 67.183594 133.542969 67.238281 133.660156 67.296875 C 134.203125 67.570312 134.597656 67.949219 135.039062 68.355469 C 136.019531 69.144531 136.972656 69.109375 138.1875 69 C 138.886719 68.851562 139.570312 68.660156 140.25 68.4375 C 140.375 68.683594 140.496094 68.933594 140.625 69.1875 C 139.449219 70.054688 138.273438 70.921875 137.0625 71.8125 C 136.378906 71.472656 136.050781 71.21875 135.527344 70.691406 C 135.375 70.539062 135.222656 70.386719 135.066406 70.226562 C 134.902344 70.0625 134.738281 69.894531 134.570312 69.726562 C 134.402344 69.554688 134.234375 69.386719 134.058594 69.210938 C 133.613281 68.761719 133.164062 68.308594 132.71875 67.859375 C 132.089844 67.222656 131.457031 66.585938 130.828125 65.949219 C 130.492188 65.613281 130.15625 65.273438 129.820312 64.933594 C 129.667969 64.78125 129.515625 64.628906 129.363281 64.472656 C 129.226562 64.335938 129.09375 64.199219 128.957031 64.0625 C 128.640625 63.734375 128.640625 63.734375 128.25 63.5625 C 128.3125 63.316406 128.375 63.066406 128.4375 62.8125 C 128.582031 62.910156 128.582031 62.910156 128.730469 63.011719 C 129.410156 63.273438 129.796875 63.183594 130.5 63 C 131.027344 62.613281 131.460938 62.152344 131.90625 61.675781 C 132.09375 61.484375 132.09375 61.484375 132.28125 61.285156 C 132.992188 60.542969 133.6875 59.789062 134.351562 59.003906 C 134.746094 58.546875 135.179688 58.132812 135.609375 57.707031 C 135.949219 57.363281 136.265625 57.003906 136.582031 56.636719 C 137.171875 55.949219 137.800781 55.316406 138.449219 54.6875 C 138.859375 54.261719 138.933594 54.066406 138.972656 53.472656 C 138.9375 52.875 138.816406 52.472656 138.5625 51.9375 C 138.625 51.875 138.6875 51.8125 138.75 51.75 Z M 138.75 51.75 "/>
<path style=" stroke:none;fill-rule:nonzero;fill:rgb(38.431373%,52.941179%,72.156864%);fill-opacity:1;" d="M 37.875 75.9375 C 38.484375 76.007812 39.089844 76.082031 39.699219 76.152344 C 39.84375 76.167969 39.992188 76.1875 40.140625 76.203125 C 40.753906 76.277344 41.371094 76.347656 41.984375 76.421875 C 42.128906 76.4375 42.277344 76.457031 42.425781 76.472656 C 43.035156 76.542969 43.640625 76.617188 44.25 76.6875 C 44.15625 77.6875 43.621094 78.441406 43.113281 79.277344 C 43.023438 79.425781 42.9375 79.574219 42.84375 79.726562 C 42.625 80.089844 42.40625 80.449219 42.1875 80.8125 C 41.261719 80.0625 40.472656 79.269531 39.714844 78.351562 C 39.523438 78.125 39.335938 77.898438 39.144531 77.671875 C 39.054688 77.566406 38.96875 77.460938 38.875 77.351562 C 38.65625 77.097656 38.421875 76.863281 38.183594 76.628906 C 37.875 76.3125 37.875 76.3125 37.875 75.9375 Z M 37.875 75.9375 "/>
<path style=" stroke:none;fill-rule:nonzero;fill:rgb(38.431373%,53.725493%,72.549021%);fill-opacity:1;" d="M 93.9375 40.3125 C 94.503906 40.789062 94.703125 41.292969 94.964844 41.976562 C 95.046875 42.191406 95.128906 42.40625 95.214844 42.628906 C 95.300781 42.855469 95.386719 43.082031 95.472656 43.3125 C 95.601562 43.652344 95.601562 43.652344 95.734375 43.996094 C 96.375 45.675781 96.375 45.675781 96.375 46.3125 C 94.890625 46.3125 93.40625 46.3125 91.875 46.3125 C 92.003906 45.671875 92.113281 45.191406 92.347656 44.605469 C 92.402344 44.460938 92.460938 44.320312 92.519531 44.175781 C 92.578125 44.03125 92.636719 43.882812 92.695312 43.734375 C 93.148438 42.605469 93.566406 41.472656 93.9375 40.3125 Z M 93.9375 40.3125 "/>
<path style=" stroke:none;fill-rule:nonzero;fill:rgb(49.411765%,60.392159%,73.725492%);fill-opacity:1;" d="M 86.996094 109.292969 C 87.21875 109.292969 87.441406 109.292969 87.667969 109.292969 C 87.90625 109.292969 88.140625 109.292969 88.386719 109.292969 C 88.628906 109.292969 88.875 109.292969 89.125 109.296875 C 89.773438 109.296875 90.421875 109.296875 91.066406 109.300781 C 91.730469 109.300781 92.390625 109.300781 93.050781 109.304688 C 94.347656 109.304688 95.640625 109.308594 96.9375 109.3125 C 96.945312 111.550781 96.953125 113.792969 96.957031 116.03125 C 96.957031 117.070312 96.960938 118.109375 96.964844 119.148438 C 96.96875 120.152344 96.972656 121.15625 96.972656 122.160156 C 96.972656 122.542969 96.976562 122.925781 96.976562 123.308594 C 96.980469 123.84375 96.980469 124.378906 96.980469 124.914062 C 96.980469 125.074219 96.984375 125.234375 96.984375 125.398438 C 96.980469 126.132812 96.980469 126.5 96.5625 127.125 C 96.5625 121.371094 96.5625 115.617188 96.5625 109.6875 C 92.726562 109.6875 88.890625 109.6875 84.9375 109.6875 C 84.9375 109.625 84.9375 109.5625 84.9375 109.5 C 85.636719 109.339844 86.28125 109.289062 86.996094 109.292969 Z M 86.996094 109.292969 "/>
<path style=" stroke:none;fill-rule:nonzero;fill:rgb(45.09804%,56.470591%,70.980394%);fill-opacity:1;" d="M 87.375 79.3125 C 87.4375 79.4375 87.5 79.558594 87.5625 79.6875 C 87.476562 79.855469 87.390625 80.019531 87.304688 80.191406 C 86.785156 81.296875 86.855469 82.609375 86.8125 83.8125 C 86.75 83.8125 86.6875 83.8125 86.625 83.8125 C 86.5625 83.195312 86.5 82.574219 86.4375 81.9375 C 86.15625 82.496094 85.914062 83.042969 85.6875 83.625 C 85.5625 83.625 85.441406 83.625 85.3125 83.625 C 85.550781 82.027344 86.214844 80.472656 87.375 79.3125 Z M 87.375 79.3125 "/>
<path style=" stroke:none;fill-rule:nonzero;fill:rgb(40.392157%,52.549022%,67.843139%);fill-opacity:1;" d="M 95.625 44.625 C 96.304688 45.15625 96.210938 45.335938 96.375 46.3125 C 94.890625 46.3125 93.40625 46.3125 91.875 46.3125 C 91.875 46.125 91.875 45.941406 91.875 45.75 C 93.234375 45.8125 94.597656 45.875 96 45.9375 C 95.875 45.503906 95.753906 45.070312 95.625 44.625 Z M 95.625 44.625 "/>
<path style=" stroke:none;fill-rule:nonzero;fill:rgb(40.392157%,52.549022%,67.450982%);fill-opacity:1;" d="M 48.1875 60.5625 C 48.972656 60.808594 49.707031 61.105469 50.449219 61.464844 C 50.65625 61.566406 50.863281 61.667969 51.078125 61.769531 C 51.292969 61.875 51.507812 61.980469 51.726562 62.085938 C 51.945312 62.191406 52.164062 62.296875 52.390625 62.40625 C 52.925781 62.664062 53.464844 62.925781 54 63.1875 C 53.320312 63.414062 53.222656 63.328125 52.601562 63.023438 C 52.445312 62.949219 52.285156 62.871094 52.121094 62.792969 C 51.957031 62.710938 51.792969 62.628906 51.621094 62.542969 C 51.453125 62.460938 51.285156 62.378906 51.113281 62.296875 C 50.699219 62.09375 50.289062 61.890625 49.875 61.6875 C 49.8125 61.75 49.75 61.8125 49.6875 61.875 C 49.6875 62.0625 49.6875 62.246094 49.6875 62.4375 C 49.4375 62.160156 49.1875 61.882812 48.9375 61.605469 C 48.796875 61.449219 48.660156 61.296875 48.515625 61.136719 C 48.1875 60.75 48.1875 60.75 48.1875 60.5625 Z M 48.1875 60.5625 "/>
<path style=" stroke:none;fill-rule:nonzero;fill:rgb(42.352942%,54.901963%,70.980394%);fill-opacity:1;" d="M 144.75 74.25 C 144.875 74.375 144.996094 74.496094 145.125 74.625 C 145.003906 74.742188 144.886719 74.859375 144.761719 74.980469 C 144.609375 75.132812 144.453125 75.289062 144.292969 75.445312 C 144.136719 75.597656 143.984375 75.75 143.824219 75.90625 C 143.242188 76.515625 143.210938 76.917969 143.144531 77.742188 C 143.121094 78.023438 143.121094 78.023438 143.097656 78.3125 C 143.085938 78.457031 143.074219 78.601562 143.0625 78.75 C 142.9375 78.75 142.816406 78.75 142.6875 78.75 C 142.59375 77.4375 142.65625 76.636719 143.4375 75.5625 C 143.929688 75.035156 143.929688 75.035156 144.375 74.625 C 144.5 74.5 144.621094 74.378906 144.75 74.25 Z M 144.75 74.25 "/>
<path style=" stroke:none;fill-rule:nonzero;fill:rgb(42.745098%,54.901963%,70.588237%);fill-opacity:1;" d="M 142.875 56.4375 C 143 56.5625 143.121094 56.683594 143.25 56.8125 C 142.691406 56.75 142.136719 56.6875 141.5625 56.625 C 141.4375 56.871094 141.316406 57.121094 141.1875 57.375 C 140.9375 57.648438 140.679688 57.914062 140.414062 58.171875 C 140.277344 58.304688 140.140625 58.4375 140.003906 58.574219 C 139.898438 58.671875 139.792969 58.773438 139.6875 58.875 C 139.625 58.6875 139.5625 58.503906 139.5 58.3125 C 139.804688 58.003906 140.109375 57.695312 140.414062 57.386719 C 140.582031 57.214844 140.753906 57.042969 140.929688 56.867188 C 141.632812 56.1875 141.933594 56.222656 142.875 56.4375 Z M 142.875 56.4375 "/>
<path style=" stroke:none;fill-rule:nonzero;fill:rgb(91.764706%,96.078432%,98.431373%);fill-opacity:1;" d="M 46.125 58.125 C 46.25 58.1875 46.371094 58.25 46.5 58.3125 C 46.378906 58.429688 46.257812 58.542969 46.132812 58.660156 C 45.972656 58.8125 45.816406 58.964844 45.65625 59.121094 C 45.5 59.269531 45.34375 59.421875 45.179688 59.574219 C 44.75 59.976562 44.75 59.976562 44.8125 60.5625 C 44.566406 60.625 44.316406 60.6875 44.0625 60.75 C 44.0625 60 44.0625 60 44.515625 59.515625 C 44.707031 59.347656 44.898438 59.179688 45.09375 59.015625 C 45.191406 58.929688 45.289062 58.84375 45.390625 58.753906 C 45.632812 58.542969 45.878906 58.332031 46.125 58.125 Z M 46.125 58.125 "/>
<path style=" stroke:none;fill-rule:nonzero;fill:rgb(41.568628%,53.725493%,69.411767%);fill-opacity:1;" d="M 83.25 106.125 C 83.375 106.25 83.496094 106.371094 83.625 106.5 C 83.070312 107.480469 82.570312 107.871094 81.5625 108.375 C 81.835938 107.375 82.515625 106.808594 83.25 106.125 Z M 83.25 106.125 "/>
<path style=" stroke:none;fill-rule:nonzero;fill:rgb(45.09804%,55.686277%,69.411767%);fill-opacity:1;" d="M 86.25 117.5625 C 86.25 118.324219 85.960938 118.660156 85.5 119.25 C 85.3125 119.25 85.128906 119.25 84.9375 119.25 C 84.535156 119.429688 84.535156 119.429688 84.1875 119.625 C 84.820312 118.847656 85.4375 118.160156 86.25 117.5625 Z M 86.25 117.5625 "/>
<path style=" stroke:none;fill-rule:nonzero;fill:rgb(90.588236%,94.901961%,97.647059%);fill-opacity:1;" d="M 87.1875 76.3125 C 87.3125 76.375 87.433594 76.4375 87.5625 76.5 C 86.757812 77.304688 85.953125 78.109375 85.125 78.9375 C 85.125 78.15625 85.542969 77.785156 86.0625 77.25 C 86.425781 76.921875 86.800781 76.617188 87.1875 76.3125 Z M 87.1875 76.3125 "/>
<path style=" stroke:none;fill-rule:nonzero;fill:rgb(42.352942%,54.901963%,71.372551%);fill-opacity:1;" d="M 37.875 75.9375 C 38.492188 76 39.113281 76.0625 39.75 76.125 C 39.441406 76.433594 39.132812 76.742188 38.8125 77.0625 C 38.492188 76.824219 38.179688 76.570312 37.875 76.3125 C 37.875 76.1875 37.875 76.066406 37.875 75.9375 Z M 37.875 75.9375 "/>
<path style=" stroke:none;fill-rule:nonzero;fill:rgb(43.921569%,57.254905%,73.725492%);fill-opacity:1;" d="M 102.5625 149.8125 C 102.5625 149.9375 102.5625 150.058594 102.5625 150.1875 C 102.234375 150.230469 101.90625 150.269531 101.578125 150.304688 C 101.394531 150.328125 101.210938 150.347656 101.023438 150.371094 C 100.476562 150.375 100.210938 150.289062 99.75 150 C 100.699219 149.867188 101.601562 149.792969 102.5625 149.8125 Z M 102.5625 149.8125 "/>
<path style=" stroke:none;fill-rule:nonzero;fill:rgb(42.352942%,54.11765%,69.803923%);fill-opacity:1;" d="M 130.5 133.6875 C 130.5625 133.875 130.625 134.058594 130.6875 134.25 C 130.070312 134.867188 129.449219 135.488281 128.8125 136.125 C 128.6875 136.0625 128.566406 136 128.4375 135.9375 C 128.523438 135.855469 128.609375 135.769531 128.699219 135.683594 C 129.34375 135.046875 129.949219 134.410156 130.5 133.6875 Z M 130.5 133.6875 "/>
<path style=" stroke:none;fill-rule:nonzero;fill:rgb(42.745098%,55.29412%,70.980394%);fill-opacity:1;" d="M 67.6875 76.5 C 67.875 76.5625 68.058594 76.625 68.25 76.6875 C 67.691406 77.246094 67.136719 77.800781 66.5625 78.375 C 66.4375 78.3125 66.316406 78.25 66.1875 78.1875 C 66.683594 77.628906 67.175781 77.074219 67.6875 76.5 Z M 67.6875 76.5 "/>
<path style=" stroke:none;fill-rule:nonzero;fill:rgb(43.921569%,54.11765%,67.450982%);fill-opacity:1;" d="M 87.375 79.3125 C 87.5625 79.6875 87.5625 79.6875 87.417969 80.175781 C 87.34375 80.363281 87.273438 80.550781 87.199219 80.742188 C 87.09375 81.023438 87.09375 81.023438 86.984375 81.3125 C 86.925781 81.457031 86.871094 81.601562 86.8125 81.75 C 86.4375 81.1875 86.4375 81.1875 86.460938 80.742188 C 86.660156 80.148438 86.964844 79.777344 87.375 79.3125 Z M 87.375 79.3125 "/>
<path style=" stroke:none;fill-rule:nonzero;fill:rgb(43.529412%,54.901963%,68.627453%);fill-opacity:1;" d="M 57 52.6875 C 57.609375 53.28125 58.167969 53.886719 58.6875 54.5625 C 57.960938 54.210938 57.960938 54.210938 57.75 54 C 57.625 54.125 57.503906 54.246094 57.375 54.375 C 57.25 53.816406 57.128906 53.261719 57 52.6875 Z M 57 52.6875 "/>
<path style=" stroke:none;fill-rule:nonzero;fill:rgb(44.705883%,55.686277%,69.411767%);fill-opacity:1;" d="M 110.4375 84.1875 C 110.230469 84.472656 110.230469 84.472656 109.875 84.75 C 109.328125 84.765625 109.328125 84.765625 108.714844 84.691406 C 108.511719 84.667969 108.308594 84.644531 108.097656 84.625 C 107.941406 84.601562 107.785156 84.582031 107.625 84.5625 C 107.625 84.5 107.625 84.4375 107.625 84.375 C 108.023438 84.308594 108.421875 84.242188 108.820312 84.175781 C 109.152344 84.121094 109.152344 84.121094 109.492188 84.0625 C 110.0625 84 110.0625 84 110.4375 84.1875 Z M 110.4375 84.1875 "/>
<path style=" stroke:none;fill-rule:nonzero;fill:rgb(89.803922%,94.901961%,98.431373%);fill-opacity:1;" d="M 67.6875 42.75 C 67.316406 42.9375 67.316406 42.9375 66.9375 43.125 C 67.125 43.25 67.308594 43.371094 67.5 43.5 C 67.066406 43.5625 66.632812 43.625 66.1875 43.6875 C 66.1875 43.441406 66.1875 43.191406 66.1875 42.9375 C 67.265625 42.539062 67.265625 42.539062 67.6875 42.75 Z M 67.6875 42.75 "/>
<path style=" stroke:none;fill-rule:nonzero;fill:rgb(90.196079%,94.509804%,98.039216%);fill-opacity:1;" d="M 56.25 49.125 C 56.375 49.1875 56.496094 49.25 56.625 49.3125 C 56.128906 49.808594 55.636719 50.300781 55.125 50.8125 C 55.0625 50.625 55 50.441406 54.9375 50.25 C 55.371094 49.878906 55.804688 49.507812 56.25 49.125 Z M 56.25 49.125 "/>
<path style=" stroke:none;fill-rule:nonzero;fill:rgb(38.431373%,51.764709%,69.01961%);fill-opacity:1;" d="M 56.25 98.0625 C 56.460938 98.367188 56.460938 98.367188 56.625 98.8125 C 56.460938 99.421875 56.460938 99.421875 56.25 99.9375 C 56.1875 99.9375 56.125 99.9375 56.0625 99.9375 C 56.058594 99.660156 56.054688 99.382812 56.050781 99.105469 C 56.046875 98.949219 56.046875 98.796875 56.042969 98.636719 C 56.0625 98.25 56.0625 98.25 56.25 98.0625 Z M 56.25 98.0625 "/>
<path style=" stroke:none;fill-rule:nonzero;fill:rgb(81.176472%,87.058824%,92.54902%);fill-opacity:1;" d="M 54 70.125 C 54.0625 70.125 54.125 70.125 54.1875 70.125 C 54.1875 70.621094 54.1875 71.113281 54.1875 71.625 C 54 71.71875 54 71.71875 53.8125 71.8125 C 53.875 71.253906 53.9375 70.699219 54 70.125 Z M 53.625 71.8125 C 53.8125 72 53.996094 72.183594 54.1875 72.375 C 53.941406 72.3125 53.691406 72.25 53.4375 72.1875 C 53.5 72.0625 53.5625 71.941406 53.625 71.8125 Z M 53.625 71.8125 "/>
</g>
</svg>
