<?xml version="1.0" encoding="UTF-8"?>
<svg xmlns="http://www.w3.org/2000/svg" xmlns:xlink="http://www.w3.org/1999/xlink" width="180px" height="180px" viewBox="0 0 180 180" version="1.1">
<defs><clipPath id="circle"><circle cx="90" cy="90" r="85"/></clipPath></defs>
<g id="surface1" clip-path="url(#circle)">
<path style=" stroke:none;fill-rule:nonzero;fill:rgb(37.64706%,53.333336%,73.725492%);fill-opacity:1;" d="M 0 0 C 59.398438 0 118.800781 0 180 0 C 180 59.398438 180 118.800781 180 180 C 120.601562 180 61.199219 180 0 180 C 0 120.601562 0 61.199219 0 0 Z M 0 0 "/>
<path style=" stroke:none;fill-rule:nonzero;fill:rgb(37.64706%,53.725493%,73.725492%);fill-opacity:1;" d="M 91.933594 57.128906 C 92.066406 57.128906 92.195312 57.132812 92.332031 57.132812 C 95.796875 57.183594 99.382812 57.941406 102.65625 59.0625 C 102.796875 59.109375 102.941406 59.15625 103.085938 59.203125 C 106.65625 60.382812 110.136719 61.964844 113.203125 64.160156 C 113.3125 64.238281 113.421875 64.316406 113.539062 64.398438 C 117.046875 66.925781 120.445312 69.820312 123.046875 73.300781 C 123.253906 73.574219 123.253906 73.574219 123.464844 73.855469 C 127.394531 79.164062 130.011719 85.105469 131.308594 91.582031 C 131.339844 91.734375 131.371094 91.886719 131.402344 92.046875 C 132.21875 96.226562 132.226562 101.09375 131.484375 105.292969 C 131.453125 105.46875 131.421875 105.644531 131.390625 105.828125 C 130.273438 112.089844 127.871094 118.078125 124.101562 123.222656 C 124.027344 123.328125 123.949219 123.433594 123.871094 123.542969 C 122.953125 124.804688 121.949219 125.976562 120.878906 127.117188 C 120.4375 127.585938 120.011719 128.066406 119.585938 128.550781 C 118.910156 129.300781 118.195312 129.960938 117.421875 130.605469 C 117.28125 130.730469 117.140625 130.855469 116.996094 130.984375 C 111.792969 135.515625 105.46875 138.324219 98.832031 139.976562 C 98.582031 140.039062 98.582031 140.039062 98.324219 140.105469 C 95.757812 140.71875 93.160156 140.859375 90.53125 140.847656 C 90.097656 140.84375 89.667969 140.847656 89.234375 140.847656 C 86.46875 140.851562 83.75 140.632812 81.058594 139.976562 C 80.863281 139.929688 80.671875 139.882812 80.472656 139.835938 C 76.003906 138.738281 71.710938 136.996094 67.851562 134.472656 C 67.671875 134.359375 67.496094 134.246094 67.3125 134.128906 C 65.09375 132.699219 63.074219 131.023438 61.171875 129.199219 C 61.0625 129.097656 60.957031 128.992188 60.84375 128.886719 C 59.058594 127.1875 57.5 125.410156 56.074219 123.398438 C 55.984375 123.273438 55.898438 123.152344 55.804688 123.023438 C 53.71875 120.097656 52.046875 116.925781 50.800781 113.554688 C 50.691406 113.296875 50.691406 113.296875 50.582031 113.035156 C 47.261719 105.097656 47.339844 95.523438 49.746094 87.363281 C 49.804688 87.164062 49.804688 87.164062 49.863281 86.964844 C 52.234375 79.019531 57.242188 71.527344 63.808594 66.445312 C 64.027344 66.269531 64.25 66.09375 64.46875 65.914062 C 70.582031 61.058594 77.8125 58.222656 85.542969 57.351562 C 85.808594 57.320312 86.078125 57.289062 86.34375 57.253906 C 88.195312 57.019531 90.070312 57.101562 91.933594 57.128906 Z M 91.933594 57.128906 "/>
<path style=" stroke:none;fill-rule:nonzero;fill:rgb(98.431373%,99.215686%,99.607843%);fill-opacity:1;" d="M 91.933594 57.128906 C 92.066406 57.128906 92.195312 57.132812 92.332031 57.132812 C 95.796875 57.183594 99.382812 57.941406 102.65625 59.0625 C 102.796875 59.109375 102.941406 59.15625 103.085938 59.203125 C 106.65625 60.382812 110.136719 61.964844 113.203125 64.160156 C 113.3125 64.238281 113.421875 64.316406 113.539062 64.398438 C 117.046875 66.925781 120.445312 69.820312 123.046875 73.300781 C 123.253906 73.574219 123.253906 73.574219 123.464844 73.855469 C 127.394531 79.164062 130.011719 85.105469 131.308594 91.582031 C 131.339844 91.734375 131.371094 91.886719 131.402344 92.046875 C 132.21875 96.226562 132.226562 101.09375 131.484375 105.292969 C 131.453125 105.46875 131.421875 105.644531 131.390625 105.828125 C 130.273438 112.089844 127.871094 118.078125 124.101562 123.222656 C 124.027344 123.328125 123.949219 123.433594 123.871094 123.542969 C 122.953125 124.804688 121.949219 125.976562 120.878906 127.117188 C 120.4375 127.585938 120.011719 128.066406 119.585938 128.550781 C 118.910156 129.300781 118.195312 129.960938 117.421875 130.605469 C 117.28125 130.730469 117.140625 130.855469 116.996094 130.984375 C 111.792969 135.515625 105.46875 138.324219 98.832031 139.976562 C 98.582031 140.039062 98.582031 140.039062 98.324219 140.105469 C 95.757812 140.71875 93.160156 140.859375 90.53125 140.847656 C 90.097656 140.84375 89.667969 140.847656 89.234375 140.847656 C 86.46875 140.851562 83.75 140.632812 81.058594 139.976562 C 80.863281 139.929688 80.671875 139.882812 80.472656 139.835938 C 76.003906 138.738281 71.710938 136.996094 67.851562 134.472656 C 67.671875 134.359375 67.496094 134.246094 67.3125 134.128906 C 65.09375 132.699219 63.074219 131.023438 61.171875 129.199219 C 61.0625 129.097656 60.957031 128.992188 60.84375 128.886719 C 59.058594 127.1875 57.5 125.410156 56.074219 123.398438 C 55.984375 123.273438 55.898438 123.152344 55.804688 123.023438 C 53.71875 120.097656 52.046875 116.925781 50.800781 113.554688 C 50.691406 113.296875 50.691406 113.296875 50.582031 113.035156 C 47.261719 105.097656 47.339844 95.523438 49.746094 87.363281 C 49.804688 87.164062 49.804688 87.164062 49.863281 86.964844 C 52.234375 79.019531 57.242188 71.527344 63.808594 66.445312 C 64.027344 66.269531 64.25 66.09375 64.46875 65.914062 C 70.582031 61.058594 77.8125 58.222656 85.542969 57.351562 C 85.808594 57.320312 86.078125 57.289062 86.34375 57.253906 C 88.195312 57.019531 90.070312 57.101562 91.933594 57.128906 Z M 82.441406 61.699219 C 82.199219 61.75 82.199219 61.75 81.949219 61.800781 C 74.0625 63.425781 66.292969 67.890625 61.171875 74.179688 C 61.015625 74.363281 60.859375 74.550781 60.703125 74.734375 C 56.492188 79.789062 53.820312 85.679688 52.558594 92.109375 C 52.511719 92.332031 52.511719 92.332031 52.464844 92.558594 C 51.542969 96.984375 51.773438 102.058594 52.667969 106.457031 C 52.691406 106.570312 52.714844 106.6875 52.738281 106.804688 C 53.152344 108.832031 53.699219 110.761719 54.492188 112.675781 C 54.550781 112.820312 54.613281 112.96875 54.675781 113.117188 C 56.734375 118.015625 59.632812 122.183594 63.28125 126.035156 C 63.394531 126.15625 63.507812 126.273438 63.621094 126.398438 C 64.492188 127.300781 65.460938 128.078125 66.445312 128.847656 C 66.542969 128.921875 66.636719 129 66.738281 129.074219 C 68.53125 130.46875 70.429688 131.628906 72.421875 132.714844 C 72.542969 132.78125 72.664062 132.847656 72.789062 132.917969 C 79.976562 136.789062 89.027344 138.144531 97.03125 136.40625 C 97.351562 136.347656 97.351562 136.347656 97.679688 136.285156 C 98.289062 136.164062 98.890625 136.027344 99.492188 135.878906 C 99.707031 135.824219 99.925781 135.773438 100.148438 135.71875 C 105.480469 134.320312 110.453125 131.570312 114.609375 127.96875 C 114.753906 127.84375 114.894531 127.722656 115.042969 127.59375 C 120.496094 122.78125 124.496094 116.679688 126.5625 109.6875 C 126.621094 109.496094 126.683594 109.300781 126.746094 109.101562 C 127.710938 105.800781 128.035156 102.476562 128.035156 99.054688 C 128.035156 98.84375 128.035156 98.84375 128.035156 98.632812 C 128.035156 95.832031 127.796875 93.089844 127.144531 90.363281 C 127.074219 90.070312 127.074219 90.070312 127.007812 89.773438 C 126.582031 88.035156 126.019531 86.378906 125.332031 84.726562 C 125.277344 84.59375 125.222656 84.460938 125.167969 84.324219 C 123.25 79.65625 120.335938 75.726562 116.894531 72.070312 C 116.785156 71.953125 116.679688 71.839844 116.566406 71.71875 C 115.691406 70.8125 114.71875 70.035156 113.730469 69.257812 C 113.628906 69.175781 113.527344 69.097656 113.421875 69.011719 C 104.769531 62.160156 93.25 59.441406 82.441406 61.699219 Z M 82.441406 61.699219 "/>
<path style=" stroke:none;fill-rule:nonzero;fill:rgb(98.039216%,98.823529%,99.607843%);fill-opacity:1;" d="M 88.441406 69.171875 C 88.597656 69.171875 88.757812 69.171875 88.921875 69.171875 C 92.460938 69.261719 95.035156 71.042969 97.546875 73.390625 C 99.308594 75.027344 100.9375 76.425781 103.4375 76.351562 C 104.402344 76.21875 105.007812 75.570312 105.644531 74.882812 C 105.90625 75.058594 105.90625 75.058594 106.171875 75.410156 C 106.40625 76.980469 105.699219 78.601562 104.796875 79.871094 C 103.667969 81.238281 102.324219 82.28125 100.546875 82.617188 C 97.933594 82.777344 95.875 82.332031 93.859375 80.578125 C 93.09375 79.894531 92.359375 79.183594 91.648438 78.441406 C 90.515625 77.289062 89.007812 76.101562 87.351562 76.058594 C 86.703125 76.078125 86.1875 76.152344 85.605469 76.464844 C 85.695312 75.683594 85.929688 75.261719 86.484375 74.707031 C 87.363281 74.105469 88.226562 73.816406 89.296875 74.003906 C 91.054688 74.464844 92.273438 75.605469 93.570312 76.820312 C 95.273438 78.417969 97.3125 80.308594 99.746094 80.421875 C 100.949219 80.371094 102.023438 80.023438 102.941406 79.234375 C 103.023438 79.132812 103.101562 79.03125 103.183594 78.925781 C 103.082031 78.953125 102.980469 78.980469 102.878906 79.011719 C 101.515625 79.324219 100.355469 79.054688 99.140625 78.398438 C 97.84375 77.554688 96.722656 76.546875 95.601562 75.492188 C 93.492188 73.515625 91.328125 71.949219 88.335938 72.003906 C 86.8125 72.164062 85.785156 72.949219 84.835938 74.113281 C 83.941406 75.421875 83.859375 76.847656 84.023438 78.398438 C 84.5 80.605469 86.261719 81.976562 88.066406 83.144531 C 89.007812 83.703125 89.96875 84.234375 90.929688 84.765625 C 92.257812 85.515625 93.421875 86.359375 94.570312 87.363281 C 94.703125 87.480469 94.835938 87.59375 94.972656 87.710938 C 97.027344 89.550781 98.097656 92.363281 98.246094 95.0625 C 98.253906 95.191406 98.257812 95.316406 98.261719 95.449219 C 100.992188 95.308594 100.992188 95.308594 103.535156 94.394531 C 103.734375 94.289062 103.933594 94.183594 104.140625 94.074219 C 104.71875 93.582031 104.871094 93.175781 105.117188 92.460938 C 105.644531 92.636719 105.644531 92.636719 105.996094 93.164062 C 106.273438 95.714844 105.824219 97.664062 104.269531 99.757812 C 103.042969 101.171875 101.46875 101.984375 99.667969 102.480469 C 99.257812 102.488281 98.847656 102.488281 98.4375 102.480469 C 98.4375 102.757812 98.4375 102.757812 98.441406 103.042969 C 98.453125 104.800781 98.460938 106.558594 98.464844 108.316406 C 98.46875 109.21875 98.472656 110.125 98.476562 111.027344 C 98.484375 111.902344 98.484375 112.777344 98.488281 113.648438 C 98.488281 113.980469 98.492188 114.3125 98.492188 114.644531 C 98.527344 118.726562 97.890625 122.4375 95 125.539062 C 93.265625 127.191406 91.210938 128.023438 88.945312 128.671875 C 88.839844 128.703125 88.730469 128.734375 88.621094 128.765625 C 86.183594 129.289062 83.269531 129.046875 81.035156 127.96875 C 80.757812 127.839844 80.757812 127.839844 80.476562 127.703125 C 77.640625 126.207031 75.953125 123.722656 75.003906 120.730469 C 74.226562 117.558594 74.613281 114.371094 76.234375 111.554688 C 77.167969 110.035156 78.410156 108.78125 79.980469 107.929688 C 80.101562 107.855469 80.222656 107.785156 80.347656 107.710938 C 81.957031 106.894531 84.082031 107.011719 85.824219 107.332031 C 86.96875 107.714844 87.742188 108.527344 88.417969 109.511719 C 88.9375 110.5625 88.976562 111.800781 88.640625 112.925781 C 88.222656 113.835938 87.664062 114.351562 86.78125 114.828125 C 85.972656 115.054688 85.28125 115.136719 84.519531 114.78125 C 83.945312 114.433594 83.402344 114.074219 82.96875 113.554688 C 82.96875 113.378906 82.96875 113.207031 82.96875 113.027344 C 82.851562 113.027344 82.738281 113.027344 82.617188 113.027344 C 81.820312 115.535156 81.757812 118.066406 82.953125 120.453125 C 83.136719 120.777344 83.136719 120.777344 83.429688 121.042969 C 83.671875 121.289062 83.671875 121.289062 83.671875 121.640625 C 83.90625 121.761719 84.140625 121.878906 84.375 121.992188 C 84.566406 122.085938 84.757812 122.179688 84.957031 122.277344 C 86.085938 122.699219 86.960938 122.527344 88.066406 122.167969 C 87.632812 122.960938 87.226562 123.433594 86.390625 123.800781 C 85.34375 124.101562 84.234375 124.15625 83.214844 123.738281 C 81.527344 122.679688 80.582031 121.152344 79.804688 119.355469 C 79.746094 119.21875 79.683594 119.085938 79.621094 118.945312 C 78.8125 116.785156 79.082031 114.050781 79.980469 111.972656 C 80.25 111.429688 80.535156 110.902344 80.859375 110.390625 C 78.949219 111.953125 77.554688 113.875 77.167969 116.367188 C 77.003906 119.085938 77.449219 121.5625 79.222656 123.707031 C 79.957031 124.492188 80.78125 125.03125 81.738281 125.507812 C 81.867188 125.574219 81.996094 125.640625 82.132812 125.707031 C 83.671875 126.191406 85.6875 126.097656 87.144531 125.421875 C 88.894531 124.371094 89.820312 122.835938 90.328125 120.878906 C 90.738281 118.863281 90.785156 116.894531 90.792969 114.839844 C 90.796875 114.480469 90.800781 114.121094 90.800781 113.765625 C 90.8125 112.832031 90.816406 111.898438 90.820312 110.960938 C 90.824219 110.003906 90.835938 109.046875 90.84375 108.089844 C 90.855469 106.222656 90.867188 104.351562 90.878906 102.480469 C 89.570312 102.496094 88.257812 102.511719 86.949219 102.53125 C 86.339844 102.539062 85.734375 102.546875 85.125 102.554688 C 84.421875 102.5625 83.71875 102.574219 83.015625 102.582031 C 82.695312 102.585938 82.695312 102.585938 82.367188 102.589844 C 78.710938 102.632812 78.710938 102.632812 75.617188 104.386719 C 75.28125 104.84375 75.0625 105.28125 74.882812 105.820312 C 74.355469 105.644531 74.355469 105.644531 74.152344 105.261719 C 73.53125 103.167969 74.277344 101.300781 75.257812 99.46875 C 76.566406 97.328125 78.539062 96.117188 80.960938 95.523438 C 81.808594 95.375 82.664062 95.386719 83.523438 95.375 C 83.722656 95.371094 83.925781 95.371094 84.132812 95.367188 C 84.769531 95.355469 85.40625 95.347656 86.046875 95.339844 C 86.480469 95.332031 86.914062 95.324219 87.347656 95.320312 C 88.40625 95.300781 89.46875 95.285156 90.527344 95.273438 C 89.941406 93.148438 88.714844 92.191406 86.84375 91.105469 C 86.296875 90.804688 85.75 90.503906 85.199219 90.207031 C 81.703125 88.28125 79.046875 86.1875 77.703125 82.3125 C 77.601562 81.882812 77.550781 81.476562 77.519531 81.035156 C 77.503906 80.832031 77.492188 80.632812 77.476562 80.421875 C 77.375 77.527344 78.433594 75.054688 80.277344 72.847656 C 82.40625 70.628906 85.347656 69.148438 88.441406 69.171875 Z M 88.441406 69.171875 "/>
<path style=" stroke:none;fill-rule:nonzero;fill:rgb(39.215687%,54.11765%,73.333335%);fill-opacity:1;" d="M 81.914062 74.355469 C 81.972656 74.472656 82.03125 74.585938 82.089844 74.707031 C 81.96875 74.972656 81.96875 74.972656 81.839844 75.246094 C 81.5 76 81.480469 76.679688 81.496094 77.496094 C 81.5 77.636719 81.5 77.777344 81.503906 77.921875 C 81.527344 78.925781 81.625 79.78125 82.089844 80.683594 C 82.191406 80.894531 82.191406 80.894531 82.296875 81.113281 C 83.773438 83.855469 86.753906 85.285156 89.386719 86.71875 C 90.480469 87.320312 91.484375 87.988281 92.460938 88.769531 C 92.636719 88.902344 92.808594 89.039062 92.988281 89.175781 C 93.546875 89.644531 93.945312 90.195312 94.328125 90.8125 C 94.394531 90.921875 94.464844 91.027344 94.535156 91.136719 C 95.59375 92.863281 96.011719 94.558594 95.988281 96.570312 C 95.988281 96.699219 95.984375 96.828125 95.984375 96.960938 C 95.984375 97.277344 95.980469 97.59375 95.976562 97.910156 C 96.761719 97.894531 97.542969 97.875 98.328125 97.855469 C 98.546875 97.851562 98.769531 97.847656 98.996094 97.84375 C 100.734375 97.792969 102.175781 97.527344 103.710938 96.679688 C 103.269531 98.039062 102.410156 98.757812 101.199219 99.433594 C 99.914062 100.0625 98.730469 100.226562 97.316406 100.207031 C 97.125 100.207031 97.125 100.207031 96.925781 100.203125 C 96.609375 100.203125 96.292969 100.199219 95.976562 100.195312 C 95.976562 100.527344 95.976562 100.527344 95.980469 100.867188 C 95.992188 102.96875 96 105.066406 96.003906 107.167969 C 96.007812 108.246094 96.011719 109.328125 96.015625 110.40625 C 96.023438 111.449219 96.023438 112.492188 96.027344 113.535156 C 96.027344 113.929688 96.03125 114.328125 96.03125 114.726562 C 96.058594 118.691406 96.058594 118.691406 95.449219 120.410156 C 95.394531 120.570312 95.34375 120.726562 95.289062 120.890625 C 94.601562 122.894531 93.035156 124.515625 91.242188 125.605469 C 90.976562 125.730469 90.976562 125.730469 90.703125 125.859375 C 90.585938 125.800781 90.472656 125.742188 90.351562 125.683594 C 90.507812 125.519531 90.664062 125.355469 90.824219 125.1875 C 93.167969 122.425781 93.09375 118.726562 93.09375 115.320312 C 93.097656 114.882812 93.101562 114.445312 93.105469 114.003906 C 93.113281 112.863281 93.117188 111.71875 93.117188 110.574219 C 93.121094 109.40625 93.128906 108.234375 93.136719 107.066406 C 93.148438 104.773438 93.15625 102.484375 93.164062 100.195312 C 91.414062 100.203125 89.660156 100.210938 87.910156 100.226562 C 87.097656 100.234375 86.285156 100.238281 85.46875 100.242188 C 84.683594 100.246094 83.898438 100.25 83.109375 100.261719 C 82.8125 100.261719 82.515625 100.265625 82.214844 100.265625 C 80.09375 100.265625 78.3125 100.441406 76.464844 101.601562 C 76.984375 100.109375 78.226562 99.175781 79.609375 98.488281 C 81.296875 97.789062 83.214844 97.859375 85.011719 97.875 C 85.246094 97.875 85.484375 97.878906 85.722656 97.878906 C 86.335938 97.878906 86.953125 97.882812 87.570312 97.886719 C 88.199219 97.890625 88.832031 97.890625 89.464844 97.894531 C 90.699219 97.898438 91.929688 97.902344 93.164062 97.910156 C 93.089844 97.347656 93.007812 96.785156 92.929688 96.226562 C 92.90625 96.066406 92.886719 95.910156 92.863281 95.746094 C 92.53125 93.429688 91.421875 91.738281 89.636719 90.21875 C 88.625 89.46875 87.511719 88.878906 86.417969 88.265625 C 83.613281 86.683594 81.050781 84.953125 79.925781 81.792969 C 79.445312 79.445312 79.902344 77.382812 81.15625 75.378906 C 81.6875 74.582031 81.6875 74.582031 81.914062 74.355469 Z M 81.914062 74.355469 "/>
<path style=" stroke:none;fill-rule:nonzero;fill:rgb(97.254902%,98.431373%,99.215686%);fill-opacity:1;" d="M 76.433594 38.417969 C 77.980469 39.550781 79.007812 41.363281 79.378906 43.226562 C 79.667969 45.332031 79.460938 47.277344 78.167969 49.019531 C 77.957031 49.265625 77.742188 49.507812 77.519531 49.746094 C 77.4375 49.839844 77.351562 49.933594 77.265625 50.027344 C 75.503906 51.746094 72.707031 52.535156 70.429688 53.289062 C 69.972656 53.441406 69.519531 53.59375 69.066406 53.75 C 68.773438 53.847656 68.484375 53.945312 68.195312 54.042969 C 68.058594 54.085938 67.921875 54.132812 67.78125 54.179688 C 66.839844 54.492188 66.839844 54.492188 66.445312 54.492188 C 66.445312 54.261719 66.445312 54.027344 66.445312 53.789062 C 66.558594 53.738281 66.671875 53.6875 66.785156 53.636719 C 67.175781 53.46875 67.175781 53.46875 67.324219 53.085938 C 67.382812 52.050781 67.25 51.257812 66.90625 50.289062 C 66.863281 50.160156 66.820312 50.03125 66.773438 49.898438 C 66.632812 49.484375 66.488281 49.070312 66.347656 48.660156 C 66.25 48.375 66.152344 48.089844 66.054688 47.804688 C 65.910156 47.378906 65.765625 46.957031 65.617188 46.53125 C 65.34375 45.738281 65.078125 44.941406 64.824219 44.140625 C 64.769531 43.96875 64.714844 43.800781 64.660156 43.625 C 64.566406 43.320312 64.46875 43.015625 64.375 42.714844 C 64.136719 41.972656 63.933594 41.429688 63.28125 40.957031 C 62.636719 40.898438 62.636719 40.898438 62.050781 40.957031 C 62.050781 40.726562 62.050781 40.492188 62.050781 40.253906 C 62.925781 39.941406 63.800781 39.628906 64.675781 39.316406 C 64.972656 39.210938 65.269531 39.105469 65.5625 39 C 72.941406 36.347656 72.941406 36.347656 76.433594 38.417969 Z M 76.433594 38.417969 "/>
<path style=" stroke:none;fill-rule:nonzero;fill:rgb(97.647059%,98.823529%,99.215686%);fill-opacity:1;" d="M 55.546875 44.121094 C 55.394531 44.976562 55.394531 44.976562 55.195312 45.175781 C 55.132812 45.847656 55.117188 46.269531 55.460938 46.863281 C 55.585938 47.003906 55.714844 47.148438 55.84375 47.296875 C 56.058594 47.542969 56.058594 47.542969 56.277344 47.792969 C 56.445312 47.976562 56.609375 48.160156 56.777344 48.339844 C 56.914062 48.492188 56.914062 48.492188 57.058594 48.644531 C 57.546875 49.175781 58.039062 49.707031 58.535156 50.234375 C 59.136719 50.878906 59.714844 51.539062 60.292969 52.207031 C 61.550781 53.78125 61.550781 53.78125 63.105469 55.019531 C 63.757812 55.023438 63.757812 55.023438 64.335938 54.84375 C 64.511719 54.84375 64.683594 54.84375 64.863281 54.84375 C 64.582031 55.578125 64.039062 56.035156 63.46875 56.546875 C 63.367188 56.636719 63.265625 56.730469 63.160156 56.824219 C 62.851562 57.105469 62.539062 57.378906 62.226562 57.65625 C 62.132812 57.742188 62.035156 57.824219 61.9375 57.910156 C 60.800781 58.910156 60.800781 58.910156 60.292969 59.238281 C 60.03125 59.152344 60.03125 59.152344 59.765625 59.0625 C 59.824219 58.972656 59.882812 58.882812 59.941406 58.789062 C 60.203125 58.152344 60.226562 57.816406 60.117188 57.128906 C 59.316406 55.828125 58.136719 54.730469 57.097656 53.621094 C 56.613281 53.097656 56.140625 52.566406 55.675781 52.027344 C 55.054688 51.320312 54.421875 50.621094 53.789062 49.921875 C 53.789062 50.414062 53.851562 50.707031 54 51.171875 C 54.042969 51.316406 54.089844 51.460938 54.136719 51.613281 C 54.1875 51.769531 54.238281 51.925781 54.289062 52.085938 C 54.34375 52.25 54.394531 52.414062 54.449219 52.585938 C 54.558594 52.933594 54.671875 53.28125 54.78125 53.628906 C 54.949219 54.152344 55.117188 54.675781 55.28125 55.199219 C 55.390625 55.539062 55.5 55.878906 55.609375 56.21875 C 55.6875 56.46875 55.6875 56.46875 55.769531 56.726562 C 56.023438 57.511719 56.285156 58.292969 56.574219 59.070312 C 56.621094 59.207031 56.671875 59.34375 56.722656 59.484375 C 56.816406 59.734375 56.914062 59.988281 57.011719 60.238281 C 57.261719 60.910156 57.351562 61.359375 57.128906 62.050781 C 56.855469 62.175781 56.855469 62.175781 56.425781 62.226562 C 55.980469 62.054688 55.578125 61.875 55.152344 61.65625 C 55.027344 61.597656 54.902344 61.535156 54.773438 61.472656 C 54.367188 61.269531 53.964844 61.066406 53.558594 60.863281 C 53.28125 60.726562 53 60.589844 52.722656 60.453125 C 52.164062 60.175781 51.609375 59.902344 51.054688 59.625 C 50.011719 59.105469 48.960938 58.601562 47.910156 58.09375 C 47.75 58.015625 47.585938 57.9375 47.417969 57.855469 C 47.269531 57.785156 47.121094 57.714844 46.96875 57.640625 C 46.839844 57.578125 46.714844 57.519531 46.582031 57.453125 C 46.234375 57.304688 45.898438 57.210938 45.527344 57.128906 C 45.730469 57.363281 45.730469 57.363281 45.9375 57.605469 C 47 58.835938 48.035156 60.074219 49.042969 61.347656 C 49.4375 61.84375 49.832031 62.335938 50.230469 62.832031 C 50.328125 62.953125 50.425781 63.078125 50.527344 63.203125 C 51.183594 64.046875 51.183594 64.046875 52.03125 64.6875 C 52.660156 64.644531 53.191406 64.535156 53.789062 64.335938 C 53.789062 65.039062 53.789062 65.039062 53.542969 65.359375 C 53.371094 65.515625 53.371094 65.515625 53.199219 65.679688 C 53.074219 65.792969 52.949219 65.910156 52.824219 66.03125 C 52.691406 66.148438 52.5625 66.269531 52.425781 66.390625 C 52.296875 66.511719 52.171875 66.632812 52.039062 66.757812 C 50.984375 67.730469 50.984375 67.730469 50.273438 67.851562 C 50.273438 67.324219 50.273438 67.324219 50.449219 66.972656 C 50.636719 66.035156 50.59375 65.617188 50.066406 64.800781 C 49.652344 64.257812 49.210938 63.738281 48.765625 63.21875 C 48.429688 62.828125 48.109375 62.421875 47.789062 62.019531 C 47.042969 61.085938 46.289062 60.160156 45.527344 59.238281 C 45.445312 59.136719 45.363281 59.039062 45.277344 58.9375 C 45.015625 58.621094 44.757812 58.308594 44.496094 57.996094 C 44.371094 57.847656 44.371094 57.847656 44.246094 57.699219 C 43.875 57.253906 43.554688 56.925781 43.066406 56.601562 C 42.464844 56.664062 41.890625 56.796875 41.308594 56.953125 C 41.308594 56.25 41.308594 56.25 41.683594 55.839844 C 41.847656 55.695312 42.015625 55.550781 42.1875 55.402344 C 42.367188 55.25 42.542969 55.09375 42.722656 54.941406 C 42.980469 54.71875 42.980469 54.71875 43.242188 54.492188 C 43.375 54.363281 43.507812 54.230469 43.648438 54.097656 C 43.761719 53.984375 43.878906 53.871094 44 53.757812 C 44.101562 53.65625 44.203125 53.554688 44.304688 53.453125 C 44.832031 53.160156 45.117188 53.289062 45.703125 53.4375 C 46.332031 53.707031 46.9375 54.015625 47.542969 54.328125 C 47.71875 54.414062 47.894531 54.503906 48.078125 54.59375 C 48.636719 54.878906 49.199219 55.164062 49.757812 55.449219 C 50.316406 55.730469 50.878906 56.015625 51.4375 56.296875 C 51.789062 56.476562 52.136719 56.652344 52.484375 56.828125 C 52.722656 56.949219 52.722656 56.949219 52.964844 57.070312 C 53.101562 57.144531 53.242188 57.214844 53.382812 57.285156 C 53.804688 57.488281 54.230469 57.664062 54.667969 57.832031 C 54.320312 56.515625 53.933594 55.21875 53.507812 53.925781 C 53.386719 53.558594 53.269531 53.191406 53.148438 52.824219 C 52.960938 52.253906 52.777344 51.683594 52.589844 51.113281 C 52.40625 50.558594 52.226562 50 52.046875 49.445312 C 51.988281 49.273438 51.929688 49.101562 51.871094 48.925781 C 51.820312 48.765625 51.769531 48.609375 51.71875 48.445312 C 51.671875 48.304688 51.625 48.164062 51.578125 48.023438 C 51.492188 47.585938 51.519531 47.34375 51.679688 46.933594 C 52.070312 46.5625 52.070312 46.5625 52.570312 46.175781 C 53.316406 45.585938 54.03125 44.984375 54.726562 44.335938 C 55.019531 44.121094 55.019531 44.121094 55.546875 44.121094 Z M 55.546875 44.121094 "/>
<path style=" stroke:none;fill-rule:nonzero;fill:rgb(97.254902%,98.431373%,99.215686%);fill-opacity:1;" d="M 103.535156 35.507812 C 103.882812 35.570312 104.230469 35.640625 104.574219 35.730469 C 105 35.832031 105.390625 35.890625 105.824219 35.9375 C 106.707031 36.082031 107.441406 36.296875 108.105469 36.914062 C 108.835938 38.148438 109.183594 39.574219 109.558594 40.949219 C 109.910156 42.210938 110.355469 43.429688 110.808594 44.660156 C 111.335938 46.113281 111.839844 47.574219 112.324219 49.042969 C 112.386719 48.871094 112.445312 48.695312 112.507812 48.515625 C 112.738281 47.867188 112.96875 47.214844 113.195312 46.566406 C 113.296875 46.285156 113.394531 46.007812 113.492188 45.726562 C 113.636719 45.320312 113.777344 44.917969 113.921875 44.511719 C 113.984375 44.324219 113.984375 44.324219 114.050781 44.136719 C 114.269531 43.523438 114.492188 42.914062 114.722656 42.308594 C 114.960938 41.664062 115.082031 41.277344 114.960938 40.605469 C 114.539062 40.140625 114.539062 40.140625 114.082031 39.726562 C 113.964844 39.347656 113.964844 39.347656 113.90625 39.023438 C 114.953125 39.269531 115.964844 39.578125 116.984375 39.925781 C 117.128906 39.972656 117.273438 40.023438 117.421875 40.070312 C 117.773438 40.191406 118.125 40.308594 118.476562 40.429688 C 118.476562 40.605469 118.476562 40.777344 118.476562 40.957031 C 118.128906 40.996094 117.777344 41.039062 117.429688 41.078125 C 117.035156 41.128906 117.035156 41.128906 116.542969 41.308594 C 116.351562 41.777344 116.351562 41.777344 116.191406 42.363281 C 116.113281 42.59375 116.03125 42.824219 115.949219 43.054688 C 115.882812 43.246094 115.882812 43.246094 115.816406 43.4375 C 115.769531 43.570312 115.722656 43.707031 115.675781 43.84375 C 115.625 43.984375 115.574219 44.128906 115.523438 44.273438 C 115.25 45.054688 114.976562 45.832031 114.703125 46.609375 C 114.207031 48.027344 113.710938 49.441406 113.242188 50.867188 C 113.171875 51.082031 113.097656 51.292969 113.027344 51.511719 C 112.898438 51.902344 112.773438 52.289062 112.648438 52.679688 C 112.589844 52.851562 112.535156 53.019531 112.476562 53.195312 C 112.429688 53.339844 112.382812 53.488281 112.335938 53.636719 C 112.148438 53.964844 112.148438 53.964844 111.832031 54.121094 C 111.289062 54.148438 111.03125 54.082031 110.566406 53.789062 C 110.332031 53.328125 110.164062 52.917969 110.003906 52.433594 C 109.929688 52.226562 109.929688 52.226562 109.855469 52.015625 C 109.699219 51.566406 109.542969 51.113281 109.390625 50.65625 C 109.28125 50.347656 109.171875 50.035156 109.066406 49.722656 C 108.792969 48.941406 108.523438 48.15625 108.257812 47.375 C 108.03125 46.722656 107.804688 46.070312 107.578125 45.417969 C 106.921875 43.527344 106.277344 41.628906 105.644531 39.726562 C 105.347656 40.167969 105.1875 40.492188 105.015625 40.984375 C 104.960938 41.128906 104.910156 41.273438 104.855469 41.425781 C 104.800781 41.582031 104.746094 41.742188 104.6875 41.902344 C 104.628906 42.066406 104.574219 42.230469 104.511719 42.398438 C 104.390625 42.742188 104.269531 43.089844 104.148438 43.4375 C 103.964844 43.960938 103.777344 44.488281 103.59375 45.011719 C 103.472656 45.347656 103.355469 45.6875 103.238281 46.023438 C 103.183594 46.179688 103.125 46.335938 103.070312 46.496094 C 102.75 47.417969 102.414062 48.402344 102.480469 49.394531 C 102.878906 49.894531 102.878906 49.894531 103.359375 50.273438 C 103.476562 50.648438 103.476562 50.648438 103.535156 50.976562 C 102.417969 50.746094 101.351562 50.445312 100.273438 50.074219 C 100.054688 50.003906 100.054688 50.003906 99.835938 49.929688 C 99.488281 49.808594 99.136719 49.691406 98.789062 49.570312 C 98.847656 49.394531 98.90625 49.222656 98.964844 49.042969 C 99.308594 49.027344 99.652344 49.007812 99.996094 48.992188 C 100.566406 48.804688 100.734375 48.484375 101.074219 47.988281 C 101.3125 47.460938 101.5 46.921875 101.6875 46.375 C 101.773438 46.140625 101.773438 46.140625 101.855469 45.898438 C 102.035156 45.398438 102.207031 44.898438 102.382812 44.394531 C 102.496094 44.066406 102.613281 43.734375 102.730469 43.402344 C 102.957031 42.761719 103.179688 42.125 103.402344 41.480469 C 103.59375 40.9375 103.785156 40.394531 103.988281 39.855469 C 104.070312 39.640625 104.152344 39.425781 104.234375 39.203125 C 104.304688 39.023438 104.371094 38.839844 104.445312 38.652344 C 104.601562 38.097656 104.648438 37.664062 104.589844 37.089844 C 104.167969 36.625 104.167969 36.625 103.710938 36.210938 C 103.59375 35.832031 103.59375 35.832031 103.535156 35.507812 Z M 103.535156 35.507812 "/>
<path style=" stroke:none;fill-rule:nonzero;fill:rgb(96.470588%,98.039216%,99.215686%);fill-opacity:1;" d="M 88.796875 34.066406 C 89.011719 34.074219 89.011719 34.074219 89.230469 34.078125 C 89.445312 34.085938 89.445312 34.085938 89.667969 34.089844 C 89.832031 34.09375 89.832031 34.09375 90 34.101562 C 90.277344 34.738281 90.558594 35.375 90.835938 36.011719 C 90.914062 36.191406 90.992188 36.371094 91.070312 36.554688 C 91.148438 36.730469 91.226562 36.90625 91.304688 37.089844 C 91.375 37.25 91.445312 37.410156 91.515625 37.574219 C 91.777344 38.191406 92.027344 38.8125 92.273438 39.4375 C 92.78125 40.703125 93.304688 41.957031 93.828125 43.214844 C 93.972656 43.5625 94.117188 43.914062 94.257812 44.261719 C 94.46875 44.769531 94.679688 45.277344 94.890625 45.785156 C 94.953125 45.9375 95.015625 46.09375 95.082031 46.253906 C 95.410156 47.039062 95.722656 47.722656 96.328125 48.339844 C 96.875 48.578125 96.875 48.578125 97.382812 48.691406 C 97.382812 48.921875 97.382812 49.15625 97.382812 49.394531 C 95.292969 49.394531 93.207031 49.394531 91.054688 49.394531 C 91.054688 49.164062 91.054688 48.929688 91.054688 48.691406 C 91.488281 48.605469 91.488281 48.605469 91.933594 48.515625 C 92.046875 47.332031 91.742188 46.539062 91.246094 45.464844 C 91.054688 45 91.054688 45 91.054688 44.472656 C 89.257812 44.472656 87.457031 44.472656 85.605469 44.472656 C 85.429688 45.054688 85.257812 45.632812 85.078125 46.230469 C 85.019531 46.40625 84.960938 46.578125 84.902344 46.757812 C 84.890625 47.03125 84.886719 47.308594 84.890625 47.582031 C 84.894531 47.722656 84.894531 47.867188 84.894531 48.011719 C 84.898438 48.121094 84.898438 48.226562 84.902344 48.339844 C 85.25 48.515625 85.597656 48.6875 85.957031 48.867188 C 85.957031 49.042969 85.957031 49.214844 85.957031 49.394531 C 84.449219 49.394531 82.941406 49.394531 81.386719 49.394531 C 81.445312 49.164062 81.503906 48.929688 81.5625 48.691406 C 81.722656 48.617188 81.882812 48.546875 82.046875 48.472656 C 83.46875 47.707031 83.890625 45.8125 84.410156 44.371094 C 84.554688 43.972656 84.699219 43.570312 84.847656 43.167969 C 85.054688 42.605469 85.257812 42.039062 85.464844 41.476562 C 85.9375 40.175781 86.414062 38.875 86.894531 37.578125 C 87.042969 37.171875 87.191406 36.765625 87.339844 36.359375 C 87.429688 36.113281 87.519531 35.863281 87.613281 35.617188 C 87.691406 35.398438 87.769531 35.183594 87.851562 34.960938 C 88.207031 34.121094 88.207031 34.121094 88.796875 34.066406 Z M 88.796875 34.066406 "/>
<path style=" stroke:none;fill-rule:nonzero;fill:rgb(96.862745%,98.431373%,99.215686%);fill-opacity:1;" d="M 33.222656 68.027344 C 34.308594 68.003906 35.335938 68.097656 36.410156 68.246094 C 36.578125 68.269531 36.75 68.292969 36.929688 68.316406 C 37.507812 68.394531 38.089844 68.476562 38.671875 68.554688 C 39.363281 68.648438 40.054688 68.742188 40.746094 68.835938 C 41.199219 68.894531 41.652344 68.957031 42.105469 69.019531 C 43.859375 69.253906 45.601562 69.464844 47.375 69.476562 C 47.492188 69.480469 47.613281 69.484375 47.738281 69.488281 C 48.433594 69.503906 48.433594 69.503906 49.011719 69.164062 C 49.082031 69.078125 49.148438 68.992188 49.21875 68.90625 C 49.601562 68.960938 49.601562 68.960938 49.921875 69.082031 C 49.613281 69.941406 49.167969 70.714844 48.722656 71.511719 C 48.648438 71.644531 48.574219 71.78125 48.496094 71.917969 C 48.003906 72.808594 47.480469 73.675781 46.933594 74.53125 C 46.671875 74.445312 46.671875 74.445312 46.40625 74.355469 C 46.414062 74.160156 46.421875 73.964844 46.429688 73.761719 C 46.480469 73.117188 46.480469 73.117188 46.054688 72.773438 C 45.679688 72.675781 45.679688 72.675781 45.25 72.625 C 45.09375 72.601562 44.9375 72.578125 44.773438 72.554688 C 44.609375 72.53125 44.445312 72.511719 44.273438 72.488281 C 44.109375 72.464844 43.941406 72.441406 43.773438 72.417969 C 43.359375 72.359375 42.949219 72.300781 42.539062 72.246094 C 42.488281 72.375 42.441406 72.503906 42.390625 72.636719 C 42.203125 73.085938 41.996094 73.488281 41.757812 73.910156 C 41.675781 74.054688 41.597656 74.199219 41.515625 74.347656 C 41.347656 74.648438 41.179688 74.945312 41.007812 75.242188 C 40.53125 76.058594 40.53125 76.058594 40.515625 76.960938 C 40.789062 77.355469 41.066406 77.722656 41.386719 78.078125 C 41.492188 78.199219 41.59375 78.316406 41.703125 78.4375 C 42.144531 78.886719 42.433594 79.089844 43.066406 79.15625 C 43.660156 79.09375 43.746094 79.003906 44.121094 78.574219 C 44.296875 78.574219 44.46875 78.574219 44.648438 78.574219 C 44.464844 79.453125 44.023438 80.191406 43.605469 80.980469 C 43.523438 81.136719 43.445312 81.289062 43.363281 81.449219 C 43.285156 81.597656 43.207031 81.742188 43.128906 81.894531 C 43.058594 82.027344 42.984375 82.164062 42.914062 82.300781 C 42.714844 82.617188 42.714844 82.617188 42.363281 82.792969 C 42.1875 82.707031 42.1875 82.707031 42.011719 82.617188 C 42.035156 82.390625 42.0625 82.167969 42.089844 81.9375 C 42.070312 80.015625 39.996094 78.34375 38.792969 76.976562 C 38.332031 76.453125 37.882812 75.925781 37.429688 75.398438 C 37.34375 75.296875 37.257812 75.199219 37.167969 75.09375 C 36.726562 74.578125 36.289062 74.0625 35.847656 73.546875 C 34.761719 72.269531 33.65625 71.015625 32.519531 69.785156 C 32.71875 69.171875 32.917969 68.59375 33.222656 68.027344 Z M 33.222656 68.027344 "/>
<path style=" stroke:none;fill-rule:nonzero;fill:rgb(38.039216%,53.725493%,73.333335%);fill-opacity:1;" d="M 73.597656 39.660156 C 74.917969 41.015625 75.554688 42.519531 76.113281 44.296875 C 76.171875 44.472656 76.230469 44.644531 76.289062 44.824219 C 76.398438 46.71875 76.445312 48.410156 75.222656 49.964844 C 74.296875 50.957031 72.910156 51.679688 71.542969 51.746094 C 71.421875 51.753906 71.304688 51.761719 71.179688 51.773438 C 70.839844 51.679688 70.839844 51.679688 70.589844 51.335938 C 70.226562 50.636719 69.996094 49.921875 69.757812 49.171875 C 69.707031 49.015625 69.65625 48.855469 69.605469 48.691406 C 69.441406 48.183594 69.277344 47.671875 69.113281 47.164062 C 68.953125 46.664062 68.792969 46.167969 68.632812 45.667969 C 68.527344 45.339844 68.421875 45.011719 68.316406 44.683594 C 68.0625 43.890625 67.804688 43.097656 67.53125 42.308594 C 67.480469 42.164062 67.429688 42.019531 67.378906 41.867188 C 67.285156 41.59375 67.1875 41.320312 67.09375 41.050781 C 66.777344 40.136719 66.777344 40.136719 66.972656 39.550781 C 67.382812 39.351562 67.382812 39.351562 67.894531 39.175781 C 68.0625 39.117188 68.230469 39.058594 68.402344 39 C 70.335938 38.414062 71.863281 38.609375 73.597656 39.660156 Z M 73.597656 39.660156 "/>
<path style=" stroke:none;fill-rule:nonzero;fill:rgb(96.862745%,98.431373%,99.215686%);fill-opacity:1;" d="M 141.679688 60.46875 C 142.457031 61.40625 143.050781 62.421875 143.667969 63.46875 C 143.785156 63.660156 143.898438 63.851562 144.019531 64.046875 C 144.128906 64.230469 144.234375 64.417969 144.347656 64.605469 C 144.445312 64.773438 144.546875 64.941406 144.648438 65.113281 C 144.84375 65.566406 144.84375 65.566406 144.785156 65.976562 C 144.746094 66.074219 144.707031 66.171875 144.667969 66.269531 C 144.550781 66.269531 144.4375 66.269531 144.316406 66.269531 C 144.03125 65.917969 144.03125 65.917969 143.789062 65.566406 C 142.625 65.632812 141.824219 66.09375 140.832031 66.6875 C 140.671875 66.78125 140.511719 66.875 140.347656 66.972656 C 139.851562 67.261719 139.359375 67.554688 138.867188 67.851562 C 138.632812 67.992188 138.632812 67.992188 138.394531 68.132812 C 137.957031 68.390625 137.523438 68.652344 137.085938 68.917969 C 136.890625 69.035156 136.890625 69.035156 136.6875 69.15625 C 136.503906 69.269531 136.503906 69.269531 136.316406 69.386719 C 136.210938 69.449219 136.105469 69.515625 135.996094 69.582031 C 135.691406 69.78125 135.691406 69.78125 135.421875 70.074219 C 135.175781 70.3125 135.175781 70.3125 134.824219 70.3125 C 134.777344 70.40625 134.730469 70.5 134.679688 70.597656 C 134.472656 71.015625 134.472656 71.015625 134.1875 71.476562 C 133.800781 72.421875 133.746094 73.304688 134.113281 74.269531 C 134.65625 75.308594 135.316406 76 136.40625 76.464844 C 138.402344 76.820312 139.84375 76.027344 141.503906 75.058594 C 141.695312 74.949219 141.890625 74.835938 142.085938 74.722656 C 144.480469 73.480469 144.480469 73.480469 146.601562 71.894531 C 146.644531 71.425781 146.644531 71.425781 146.625 70.90625 C 146.621094 70.730469 146.617188 70.554688 146.613281 70.371094 C 146.609375 70.234375 146.605469 70.101562 146.601562 69.960938 C 146.832031 69.960938 147.066406 69.960938 147.304688 69.960938 C 147.65625 70.597656 148.007812 71.234375 148.359375 71.871094 C 148.460938 72.054688 148.5625 72.234375 148.664062 72.421875 C 148.757812 72.597656 148.855469 72.769531 148.953125 72.949219 C 149.039062 73.109375 149.128906 73.269531 149.21875 73.433594 C 149.414062 73.828125 149.414062 73.828125 149.414062 74.179688 C 149.183594 74.179688 148.949219 74.179688 148.710938 74.179688 C 148.601562 74.0625 148.492188 73.949219 148.382812 73.828125 C 148.035156 73.429688 148.035156 73.429688 147.523438 73.417969 C 146.84375 73.488281 146.460938 73.691406 145.871094 74.042969 C 145.773438 74.101562 145.671875 74.160156 145.570312 74.21875 C 145.355469 74.34375 145.140625 74.472656 144.929688 74.597656 C 144.382812 74.925781 143.828125 75.25 143.273438 75.570312 C 143.167969 75.632812 143.058594 75.695312 142.949219 75.761719 C 142.097656 76.257812 141.234375 76.722656 140.351562 77.15625 C 140.238281 77.210938 140.128906 77.265625 140.015625 77.324219 C 138.695312 77.960938 137.230469 78.160156 135.792969 77.746094 C 135.445312 77.578125 135.140625 77.390625 134.824219 77.167969 C 134.558594 76.984375 134.558594 76.984375 134.285156 76.792969 C 132.777344 75.4375 131.894531 73.527344 131.574219 71.546875 C 131.492188 69.96875 132.167969 68.753906 133.175781 67.574219 C 133.5625 67.171875 134 66.894531 134.472656 66.597656 C 134.574219 66.535156 134.679688 66.46875 134.785156 66.402344 C 135.925781 65.695312 137.089844 65.039062 138.257812 64.378906 C 139.089844 63.914062 139.902344 63.433594 140.695312 62.910156 C 140.976562 62.753906 140.976562 62.753906 141.328125 62.753906 C 141.328125 62.058594 141.328125 61.363281 141.328125 60.644531 C 141.445312 60.585938 141.558594 60.527344 141.679688 60.46875 Z M 141.679688 60.46875 "/>
<path style=" stroke:none;fill-rule:nonzero;fill:rgb(97.254902%,98.431373%,99.215686%);fill-opacity:1;" d="M 150.46875 78.398438 C 150.699219 78.398438 150.933594 78.398438 151.171875 78.398438 C 151.589844 79.832031 151.898438 81.269531 152.171875 82.738281 C 152.230469 83.050781 152.230469 83.050781 152.292969 83.371094 C 152.386719 83.882812 152.484375 84.390625 152.578125 84.902344 C 152.347656 84.902344 152.113281 84.902344 151.875 84.902344 C 151.699219 84.46875 151.699219 84.46875 151.523438 84.023438 C 150.808594 84.113281 150.460938 84.292969 149.949219 84.792969 C 149.820312 84.917969 149.695312 85.039062 149.566406 85.164062 C 149.433594 85.289062 149.304688 85.417969 149.171875 85.550781 C 148.914062 85.800781 148.65625 86.050781 148.398438 86.300781 C 148.273438 86.421875 148.152344 86.539062 148.023438 86.664062 C 147.675781 86.992188 147.320312 87.300781 146.957031 87.609375 C 146.429688 88.003906 146.429688 88.003906 146.25 88.417969 C 146.472656 88.464844 146.699219 88.511719 146.929688 88.558594 C 148.003906 88.796875 149.046875 89.132812 150.097656 89.464844 C 150.246094 89.511719 150.394531 89.558594 150.546875 89.605469 C 150.679688 89.648438 150.8125 89.691406 150.949219 89.734375 C 151.398438 89.835938 151.765625 89.875 152.226562 89.824219 C 152.601562 89.265625 152.667969 88.898438 152.753906 88.242188 C 152.929688 88.242188 153.101562 88.242188 153.28125 88.242188 C 153.425781 88.828125 153.566406 89.414062 153.710938 90 C 153.75 90.164062 153.789062 90.328125 153.832031 90.496094 C 154.0625 91.445312 154.238281 92.371094 154.335938 93.339844 C 154.105469 93.339844 153.871094 93.339844 153.632812 93.339844 C 153.464844 93.070312 153.464844 93.070312 153.3125 92.703125 C 152.695312 91.65625 151.675781 91.402344 150.578125 91.035156 C 150.03125 90.851562 149.488281 90.652344 148.945312 90.457031 C 148.523438 90.308594 148.101562 90.160156 147.679688 90.011719 C 147.476562 89.9375 147.273438 89.867188 147.0625 89.789062 C 145.886719 89.390625 145.003906 89.191406 143.789062 89.472656 C 143.585938 89.511719 143.585938 89.511719 143.382812 89.554688 C 142.96875 89.636719 142.5625 89.730469 142.152344 89.824219 C 141.945312 89.871094 141.945312 89.871094 141.734375 89.917969 C 141.128906 90.058594 140.523438 90.199219 139.921875 90.351562 C 139.863281 90.929688 139.804688 91.511719 139.746094 92.109375 C 139.515625 92.109375 139.28125 92.109375 139.042969 92.109375 C 138.890625 91.410156 138.742188 90.710938 138.59375 90.007812 C 138.542969 89.769531 138.492188 89.53125 138.4375 89.292969 C 138.363281 88.945312 138.292969 88.601562 138.21875 88.253906 C 138.175781 88.046875 138.128906 87.835938 138.085938 87.621094 C 137.984375 87 137.972656 86.410156 137.988281 85.78125 C 138.164062 85.78125 138.335938 85.78125 138.515625 85.78125 C 138.632812 86.128906 138.746094 86.476562 138.867188 86.835938 C 139.632812 86.808594 140.390625 86.742188 141.152344 86.660156 C 141.328125 86.644531 141.328125 86.644531 141.503906 86.628906 C 143.898438 86.378906 145.15625 85.210938 146.769531 83.511719 C 147.417969 82.847656 148.113281 82.238281 148.804688 81.621094 C 149.589844 80.902344 150.347656 80.152344 150.425781 79.035156 C 150.4375 78.824219 150.453125 78.613281 150.46875 78.398438 Z M 150.46875 78.398438 "/>
<path style=" stroke:none;fill-rule:nonzero;fill:rgb(96.862745%,98.431373%,99.215686%);fill-opacity:1;" d="M 28.476562 79.804688 C 28.988281 79.828125 29.503906 79.855469 30.015625 79.882812 C 30.230469 79.890625 30.230469 79.890625 30.453125 79.902344 C 30.664062 79.914062 30.664062 79.914062 30.878906 79.925781 C 31.007812 79.929688 31.136719 79.9375 31.269531 79.945312 C 31.644531 79.980469 31.984375 80.054688 32.34375 80.15625 C 32.34375 80.386719 32.34375 80.621094 32.34375 80.859375 C 32.226562 80.890625 32.109375 80.921875 31.988281 80.957031 C 30.480469 81.375 30.480469 81.375 29.324219 82.386719 C 28.957031 83.058594 28.808594 83.628906 28.652344 84.375 C 28.765625 84.394531 28.878906 84.414062 28.992188 84.433594 C 30.3125 84.667969 31.625 84.9375 32.9375 85.222656 C 33.152344 85.265625 33.367188 85.3125 33.585938 85.359375 C 34.589844 85.574219 35.589844 85.796875 36.585938 86.046875 C 36.75 86.085938 36.914062 86.128906 37.085938 86.167969 C 37.382812 86.246094 37.683594 86.320312 37.980469 86.402344 C 38.988281 86.65625 39.921875 86.703125 40.957031 86.660156 C 41.132812 86.3125 41.304688 85.964844 41.484375 85.605469 C 41.660156 85.605469 41.832031 85.605469 42.011719 85.605469 C 41.917969 87.023438 41.6875 88.382812 41.386719 89.769531 C 41.34375 89.960938 41.304688 90.152344 41.261719 90.351562 C 41.160156 90.820312 41.058594 91.289062 40.957031 91.757812 C 40.726562 91.816406 40.492188 91.875 40.253906 91.933594 C 40.25 91.585938 40.242188 91.234375 40.238281 90.886719 C 40.097656 90.472656 40.097656 90.472656 39.582031 90.246094 C 38.664062 89.90625 37.707031 89.71875 36.75 89.515625 C 36.546875 89.472656 36.34375 89.429688 36.132812 89.382812 C 35.691406 89.289062 35.25 89.191406 34.8125 89.097656 C 33.675781 88.855469 32.546875 88.605469 31.414062 88.359375 C 31.042969 88.277344 30.667969 88.195312 30.296875 88.113281 C 30.179688 88.089844 30.066406 88.0625 29.945312 88.039062 C 29.628906 87.96875 29.3125 87.898438 28.996094 87.832031 C 28.585938 87.738281 28.179688 87.644531 27.773438 87.539062 C 27.625 89.679688 27.625 89.679688 28.476562 91.582031 C 28.664062 91.78125 28.851562 91.972656 29.046875 92.164062 C 29.207031 92.320312 29.367188 92.476562 29.53125 92.636719 C 29.53125 92.8125 29.53125 92.984375 29.53125 93.164062 C 28.707031 93.035156 27.964844 92.75 27.191406 92.449219 C 27.0625 92.402344 26.929688 92.351562 26.796875 92.300781 C 26.476562 92.179688 26.160156 92.054688 25.839844 91.933594 C 25.941406 91.015625 26.089844 90.136719 26.308594 89.238281 C 26.367188 88.992188 26.425781 88.746094 26.488281 88.5 C 26.515625 88.375 26.546875 88.246094 26.578125 88.117188 C 27.117188 85.902344 27.617188 83.6875 28.042969 81.445312 C 28.074219 81.28125 28.109375 81.113281 28.140625 80.941406 C 28.167969 80.796875 28.195312 80.652344 28.222656 80.503906 C 28.300781 80.15625 28.300781 80.15625 28.476562 79.804688 Z M 28.476562 79.804688 "/>
<path style=" stroke:none;fill-rule:nonzero;fill:rgb(97.647059%,98.823529%,99.607843%);fill-opacity:1;" d="M 130.078125 48.515625 C 130.675781 48.773438 131.058594 49.105469 131.511719 49.570312 C 131.714844 49.777344 131.714844 49.777344 131.925781 49.988281 C 132.136719 50.207031 132.136719 50.207031 132.351562 50.425781 C 132.632812 50.710938 132.910156 50.996094 133.191406 51.28125 C 133.316406 51.410156 133.4375 51.535156 133.566406 51.667969 C 133.964844 52.050781 134.386719 52.394531 134.824219 52.734375 C 134.765625 52.964844 134.707031 53.199219 134.648438 53.4375 C 134.496094 53.347656 134.34375 53.257812 134.1875 53.164062 C 133.492188 52.867188 133.253906 52.878906 132.539062 53.085938 C 132.039062 53.472656 132.039062 53.472656 131.582031 53.976562 C 131.5 54.0625 131.414062 54.152344 131.328125 54.242188 C 130.761719 54.835938 130.214844 55.453125 129.679688 56.082031 C 129.332031 56.476562 128.960938 56.847656 128.585938 57.21875 C 127.992188 57.800781 127.433594 58.398438 126.898438 59.03125 C 126.636719 59.328125 126.371094 59.617188 126.101562 59.902344 C 126.023438 59.984375 125.941406 60.070312 125.859375 60.15625 C 125.628906 60.402344 125.394531 60.644531 125.164062 60.886719 C 124.792969 61.363281 124.671875 61.632812 124.628906 62.226562 C 124.730469 62.621094 124.730469 62.621094 124.980469 62.929688 C 125.089844 62.984375 125.195312 63.035156 125.308594 63.09375 C 125.816406 63.347656 126.183594 63.703125 126.601562 64.082031 C 127.519531 64.824219 128.410156 64.789062 129.550781 64.6875 C 130.207031 64.546875 130.84375 64.367188 131.484375 64.160156 C 131.601562 64.390625 131.714844 64.625 131.835938 64.863281 C 130.734375 65.675781 129.632812 66.488281 128.496094 67.324219 C 127.855469 67.003906 127.546875 66.769531 127.058594 66.273438 C 126.914062 66.128906 126.769531 65.988281 126.625 65.839844 C 126.46875 65.683594 126.316406 65.527344 126.160156 65.367188 C 126.003906 65.207031 125.84375 65.050781 125.679688 64.886719 C 125.261719 64.464844 124.84375 64.042969 124.425781 63.617188 C 123.832031 63.019531 123.242188 62.425781 122.648438 61.828125 C 122.335938 61.511719 122.019531 61.195312 121.707031 60.875 C 121.566406 60.730469 121.421875 60.589844 121.277344 60.441406 C 121.152344 60.316406 121.027344 60.1875 120.898438 60.058594 C 120.601562 59.753906 120.601562 59.753906 120.234375 59.589844 C 120.292969 59.359375 120.351562 59.125 120.410156 58.886719 C 120.546875 58.980469 120.546875 58.980469 120.683594 59.074219 C 121.320312 59.316406 121.683594 59.234375 122.34375 59.0625 C 122.839844 58.699219 123.246094 58.269531 123.664062 57.820312 C 123.835938 57.640625 123.835938 57.640625 124.015625 57.457031 C 124.679688 56.761719 125.332031 56.050781 125.953125 55.316406 C 126.324219 54.890625 126.730469 54.5 127.132812 54.101562 C 127.453125 53.777344 127.75 53.441406 128.046875 53.097656 C 128.597656 52.453125 129.1875 51.859375 129.796875 51.269531 C 130.179688 50.871094 130.25 50.6875 130.285156 50.128906 C 130.253906 49.570312 130.140625 49.195312 129.902344 48.691406 C 129.960938 48.632812 130.019531 48.574219 130.078125 48.515625 Z M 130.078125 48.515625 "/>
<path style=" stroke:none;fill-rule:nonzero;fill:rgb(38.431373%,52.941179%,72.156864%);fill-opacity:1;" d="M 35.507812 71.191406 C 36.078125 71.257812 36.648438 71.324219 37.21875 71.390625 C 37.355469 71.410156 37.492188 71.425781 37.632812 71.441406 C 38.207031 71.507812 38.785156 71.578125 39.359375 71.644531 C 39.496094 71.660156 39.632812 71.675781 39.773438 71.695312 C 40.34375 71.761719 40.914062 71.828125 41.484375 71.894531 C 41.394531 72.832031 40.898438 73.539062 40.417969 74.324219 C 40.335938 74.460938 40.253906 74.601562 40.167969 74.742188 C 39.960938 75.082031 39.757812 75.421875 39.550781 75.761719 C 38.683594 75.058594 37.941406 74.3125 37.234375 73.453125 C 37.054688 73.242188 36.875 73.027344 36.699219 72.816406 C 36.613281 72.71875 36.53125 72.617188 36.445312 72.515625 C 36.242188 72.28125 36.019531 72.058594 35.796875 71.839844 C 35.507812 71.542969 35.507812 71.542969 35.507812 71.191406 Z M 35.507812 71.191406 "/>
<path style=" stroke:none;fill-rule:nonzero;fill:rgb(38.431373%,53.725493%,72.549021%);fill-opacity:1;" d="M 88.066406 37.792969 C 88.597656 38.238281 88.785156 38.710938 89.03125 39.351562 C 89.105469 39.554688 89.183594 39.757812 89.265625 39.964844 C 89.34375 40.175781 89.421875 40.386719 89.503906 40.605469 C 89.628906 40.921875 89.628906 40.921875 89.753906 41.246094 C 90.351562 42.820312 90.351562 42.820312 90.351562 43.417969 C 88.960938 43.417969 87.566406 43.417969 86.132812 43.417969 C 86.253906 42.816406 86.355469 42.367188 86.578125 41.816406 C 86.628906 41.683594 86.679688 41.550781 86.734375 41.414062 C 86.789062 41.277344 86.84375 41.140625 86.902344 41 C 87.324219 39.941406 87.71875 38.878906 88.066406 37.792969 Z M 88.066406 37.792969 "/>
<path style=" stroke:none;fill-rule:nonzero;fill:rgb(49.411765%,60.392159%,73.725492%);fill-opacity:1;" d="M 81.558594 102.460938 C 81.765625 102.460938 81.976562 102.460938 82.1875 102.460938 C 82.410156 102.460938 82.632812 102.460938 82.863281 102.464844 C 83.089844 102.464844 83.320312 102.464844 83.554688 102.464844 C 84.164062 102.464844 84.769531 102.464844 85.375 102.46875 C 85.996094 102.46875 86.617188 102.472656 87.234375 102.472656 C 88.449219 102.472656 89.664062 102.476562 90.878906 102.480469 C 90.886719 104.578125 90.894531 106.679688 90.898438 108.777344 C 90.898438 109.753906 90.902344 110.726562 90.90625 111.703125 C 90.910156 112.644531 90.910156 113.582031 90.914062 114.523438 C 90.914062 114.882812 90.914062 115.242188 90.917969 115.601562 C 90.917969 116.105469 90.917969 116.605469 90.917969 117.109375 C 90.921875 117.257812 90.921875 117.40625 90.921875 117.558594 C 90.921875 118.25 90.917969 118.59375 90.527344 119.179688 C 90.527344 113.785156 90.527344 108.390625 90.527344 102.832031 C 86.929688 102.832031 83.335938 102.832031 79.628906 102.832031 C 79.628906 102.773438 79.628906 102.714844 79.628906 102.65625 C 80.285156 102.503906 80.886719 102.460938 81.558594 102.460938 Z M 81.558594 102.460938 "/>
<path style=" stroke:none;fill-rule:nonzero;fill:rgb(45.09804%,56.470591%,70.980394%);fill-opacity:1;" d="M 81.914062 74.355469 C 81.972656 74.472656 82.03125 74.585938 82.089844 74.707031 C 82.011719 74.863281 81.929688 75.019531 81.847656 75.179688 C 81.363281 76.21875 81.429688 77.445312 81.386719 78.574219 C 81.328125 78.574219 81.269531 78.574219 81.210938 78.574219 C 81.152344 77.992188 81.09375 77.414062 81.035156 76.816406 C 80.773438 77.339844 80.542969 77.851562 80.332031 78.398438 C 80.214844 78.398438 80.101562 78.398438 79.980469 78.398438 C 80.207031 76.898438 80.828125 75.441406 81.914062 74.355469 Z M 81.914062 74.355469 "/>
<path style=" stroke:none;fill-rule:nonzero;fill:rgb(40.392157%,52.549022%,67.843139%);fill-opacity:1;" d="M 89.648438 41.835938 C 90.285156 42.332031 90.199219 42.5 90.351562 43.417969 C 88.960938 43.417969 87.566406 43.417969 86.132812 43.417969 C 86.132812 43.242188 86.132812 43.070312 86.132812 42.890625 C 87.410156 42.949219 88.683594 43.007812 90 43.066406 C 89.882812 42.660156 89.769531 42.253906 89.648438 41.835938 Z M 89.648438 41.835938 "/>
<path style=" stroke:none;fill-rule:nonzero;fill:rgb(40.392157%,52.549022%,67.450982%);fill-opacity:1;" d="M 45.175781 56.777344 C 45.914062 57.007812 46.597656 57.289062 47.292969 57.625 C 47.488281 57.71875 47.683594 57.8125 47.886719 57.910156 C 48.085938 58.007812 48.285156 58.105469 48.492188 58.207031 C 48.699219 58.304688 48.902344 58.402344 49.113281 58.503906 C 49.617188 58.75 50.121094 58.992188 50.625 59.238281 C 49.988281 59.449219 49.898438 59.371094 49.316406 59.085938 C 49.167969 59.011719 49.019531 58.941406 48.863281 58.867188 C 48.710938 58.789062 48.554688 58.714844 48.394531 58.632812 C 48.238281 58.558594 48.082031 58.480469 47.917969 58.402344 C 47.53125 58.214844 47.144531 58.023438 46.757812 57.832031 C 46.699219 57.890625 46.640625 57.949219 46.582031 58.007812 C 46.582031 58.183594 46.582031 58.355469 46.582031 58.535156 C 46.347656 58.277344 46.113281 58.015625 45.878906 57.753906 C 45.75 57.609375 45.617188 57.464844 45.484375 57.316406 C 45.175781 56.953125 45.175781 56.953125 45.175781 56.777344 Z M 45.175781 56.777344 "/>
<path style=" stroke:none;fill-rule:nonzero;fill:rgb(42.352942%,54.901963%,70.980394%);fill-opacity:1;" d="M 135.703125 69.609375 C 135.820312 69.726562 135.933594 69.839844 136.054688 69.960938 C 135.941406 70.070312 135.832031 70.179688 135.714844 70.292969 C 135.570312 70.4375 135.425781 70.582031 135.273438 70.730469 C 135.128906 70.871094 134.984375 71.015625 134.835938 71.164062 C 134.289062 71.734375 134.261719 72.109375 134.199219 72.882812 C 134.175781 73.148438 134.175781 73.148438 134.152344 73.417969 C 134.144531 73.554688 134.132812 73.6875 134.121094 73.828125 C 134.003906 73.828125 133.890625 73.828125 133.769531 73.828125 C 133.679688 72.597656 133.742188 71.847656 134.472656 70.839844 C 134.933594 70.34375 134.933594 70.34375 135.351562 69.960938 C 135.46875 69.84375 135.582031 69.730469 135.703125 69.609375 Z M 135.703125 69.609375 "/>
<path style=" stroke:none;fill-rule:nonzero;fill:rgb(42.745098%,54.901963%,70.588237%);fill-opacity:1;" d="M 133.945312 52.910156 C 134.0625 53.027344 134.175781 53.140625 134.296875 53.261719 C 133.773438 53.203125 133.253906 53.144531 132.714844 53.085938 C 132.597656 53.316406 132.484375 53.550781 132.363281 53.789062 C 132.128906 54.046875 131.886719 54.292969 131.636719 54.535156 C 131.511719 54.660156 131.382812 54.785156 131.253906 54.914062 C 131.15625 55.003906 131.058594 55.097656 130.957031 55.195312 C 130.898438 55.019531 130.839844 54.847656 130.78125 54.667969 C 131.066406 54.378906 131.351562 54.089844 131.636719 53.800781 C 131.796875 53.640625 131.957031 53.476562 132.121094 53.3125 C 132.78125 52.675781 133.0625 52.707031 133.945312 52.910156 Z M 133.945312 52.910156 "/>
<path style=" stroke:none;fill-rule:nonzero;fill:rgb(91.764706%,96.078432%,98.431373%);fill-opacity:1;" d="M 43.242188 54.492188 C 43.359375 54.550781 43.472656 54.609375 43.59375 54.667969 C 43.480469 54.777344 43.367188 54.882812 43.246094 54.996094 C 43.101562 55.136719 42.953125 55.28125 42.804688 55.425781 C 42.65625 55.566406 42.507812 55.707031 42.359375 55.851562 C 41.953125 56.226562 41.953125 56.226562 42.011719 56.777344 C 41.78125 56.835938 41.546875 56.894531 41.308594 56.953125 C 41.308594 56.25 41.308594 56.25 41.730469 55.796875 C 41.910156 55.636719 42.09375 55.480469 42.273438 55.328125 C 42.367188 55.246094 42.460938 55.164062 42.554688 55.082031 C 42.78125 54.882812 43.011719 54.6875 43.242188 54.492188 Z M 43.242188 54.492188 "/>
<path style=" stroke:none;fill-rule:nonzero;fill:rgb(41.568628%,53.725493%,69.411767%);fill-opacity:1;" d="M 78.046875 99.492188 C 78.164062 99.609375 78.277344 99.722656 78.398438 99.84375 C 77.875 100.761719 77.410156 101.128906 76.464844 101.601562 C 76.71875 100.664062 77.359375 100.132812 78.046875 99.492188 Z M 78.046875 99.492188 "/>
<path style=" stroke:none;fill-rule:nonzero;fill:rgb(45.09804%,55.686277%,69.411767%);fill-opacity:1;" d="M 80.859375 110.214844 C 80.859375 110.925781 80.585938 111.242188 80.15625 111.796875 C 79.980469 111.796875 79.808594 111.796875 79.628906 111.796875 C 79.25 111.964844 79.25 111.964844 78.925781 112.148438 C 79.519531 111.421875 80.097656 110.773438 80.859375 110.214844 Z M 80.859375 110.214844 "/>
<path style=" stroke:none;fill-rule:nonzero;fill:rgb(90.588236%,94.901961%,97.647059%);fill-opacity:1;" d="M 81.738281 71.542969 C 81.855469 71.601562 81.96875 71.660156 82.089844 71.71875 C 81.335938 72.472656 80.582031 73.226562 79.804688 74.003906 C 79.804688 73.269531 80.195312 72.925781 80.683594 72.421875 C 81.027344 72.113281 81.375 71.828125 81.738281 71.542969 Z M 81.738281 71.542969 "/>
<path style=" stroke:none;fill-rule:nonzero;fill:rgb(42.352942%,54.901963%,71.372551%);fill-opacity:1;" d="M 35.507812 71.191406 C 36.085938 71.25 36.667969 71.308594 37.265625 71.367188 C 36.976562 71.65625 36.6875 71.945312 36.386719 72.246094 C 36.085938 72.019531 35.792969 71.785156 35.507812 71.542969 C 35.507812 71.425781 35.507812 71.3125 35.507812 71.191406 Z M 35.507812 71.191406 "/>
<path style=" stroke:none;fill-rule:nonzero;fill:rgb(43.921569%,57.254905%,73.725492%);fill-opacity:1;" d="M 96.152344 140.449219 C 96.152344 140.566406 96.152344 140.679688 96.152344 140.800781 C 95.84375 140.839844 95.539062 140.875 95.230469 140.910156 C 95.058594 140.929688 94.886719 140.953125 94.710938 140.972656 C 94.195312 140.976562 93.945312 140.894531 93.515625 140.625 C 94.40625 140.5 95.253906 140.429688 96.152344 140.449219 Z M 96.152344 140.449219 "/>
<path style=" stroke:none;fill-rule:nonzero;fill:rgb(42.352942%,54.11765%,69.803923%);fill-opacity:1;" d="M 122.34375 125.332031 C 122.402344 125.507812 122.460938 125.679688 122.519531 125.859375 C 121.9375 126.4375 121.359375 127.019531 120.761719 127.617188 C 120.644531 127.558594 120.53125 127.5 120.410156 127.441406 C 120.492188 127.363281 120.570312 127.285156 120.65625 127.203125 C 121.261719 126.605469 121.828125 126.011719 122.34375 125.332031 Z M 122.34375 125.332031 "/>
<path style=" stroke:none;fill-rule:nonzero;fill:rgb(42.745098%,55.29412%,70.980394%);fill-opacity:1;" d="M 63.457031 71.71875 C 63.632812 71.777344 63.804688 71.835938 63.984375 71.894531 C 63.460938 72.417969 62.941406 72.9375 62.402344 73.476562 C 62.285156 73.417969 62.171875 73.359375 62.050781 73.300781 C 62.515625 72.777344 62.980469 72.257812 63.457031 71.71875 Z M 63.457031 71.71875 "/>
<path style=" stroke:none;fill-rule:nonzero;fill:rgb(43.921569%,54.11765%,67.450982%);fill-opacity:1;" d="M 81.914062 74.355469 C 82.089844 74.707031 82.089844 74.707031 81.953125 75.164062 C 81.886719 75.339844 81.820312 75.515625 81.75 75.695312 C 81.648438 75.960938 81.648438 75.960938 81.546875 76.230469 C 81.492188 76.367188 81.441406 76.5 81.386719 76.640625 C 81.035156 76.113281 81.035156 76.113281 81.058594 75.695312 C 81.242188 75.140625 81.527344 74.789062 81.914062 74.355469 Z M 81.914062 74.355469 "/>
<path style=" stroke:none;fill-rule:nonzero;fill:rgb(43.529412%,54.901963%,68.627453%);fill-opacity:1;" d="M 53.4375 49.394531 C 54.011719 49.953125 54.53125 50.519531 55.019531 51.152344 C 54.339844 50.824219 54.339844 50.824219 54.140625 50.625 C 54.023438 50.742188 53.910156 50.855469 53.789062 50.976562 C 53.671875 50.453125 53.558594 49.933594 53.4375 49.394531 Z M 53.4375 49.394531 "/>
<path style=" stroke:none;fill-rule:nonzero;fill:rgb(44.705883%,55.686277%,69.411767%);fill-opacity:1;" d="M 103.535156 78.925781 C 103.339844 79.191406 103.339844 79.191406 103.007812 79.453125 C 102.496094 79.464844 102.496094 79.464844 101.921875 79.398438 C 101.730469 79.378906 101.539062 79.355469 101.339844 79.335938 C 101.195312 79.316406 101.050781 79.296875 100.898438 79.277344 C 100.898438 79.21875 100.898438 79.160156 100.898438 79.101562 C 101.273438 79.039062 101.644531 78.976562 102.019531 78.914062 C 102.332031 78.863281 102.332031 78.863281 102.648438 78.808594 C 103.183594 78.75 103.183594 78.75 103.535156 78.925781 Z M 103.535156 78.925781 "/>
<path style=" stroke:none;fill-rule:nonzero;fill:rgb(89.803922%,94.901961%,98.431373%);fill-opacity:1;" d="M 63.457031 40.078125 C 63.109375 40.253906 63.109375 40.253906 62.753906 40.429688 C 62.929688 40.546875 63.101562 40.660156 63.28125 40.78125 C 62.875 40.839844 62.46875 40.898438 62.050781 40.957031 C 62.050781 40.726562 62.050781 40.492188 62.050781 40.253906 C 63.0625 39.878906 63.0625 39.878906 63.457031 40.078125 Z M 63.457031 40.078125 "/>
<path style=" stroke:none;fill-rule:nonzero;fill:rgb(90.196079%,94.509804%,98.039216%);fill-opacity:1;" d="M 52.734375 46.054688 C 52.851562 46.113281 52.964844 46.171875 53.085938 46.230469 C 52.621094 46.695312 52.15625 47.160156 51.679688 47.636719 C 51.621094 47.460938 51.5625 47.289062 51.503906 47.109375 C 51.910156 46.761719 52.316406 46.414062 52.734375 46.054688 Z M 52.734375 46.054688 "/>
<path style=" stroke:none;fill-rule:nonzero;fill:rgb(38.431373%,51.764709%,69.01961%);fill-opacity:1;" d="M 52.734375 91.933594 C 52.933594 92.21875 52.933594 92.21875 53.085938 92.636719 C 52.933594 93.207031 52.933594 93.207031 52.734375 93.691406 C 52.675781 93.691406 52.617188 93.691406 52.558594 93.691406 C 52.554688 93.429688 52.550781 93.171875 52.546875 92.910156 C 52.546875 92.765625 52.542969 92.621094 52.542969 92.472656 C 52.558594 92.109375 52.558594 92.109375 52.734375 91.933594 Z M 52.734375 91.933594 "/>
<path style=" stroke:none;fill-rule:nonzero;fill:rgb(81.176472%,87.058824%,92.54902%);fill-opacity:1;" d="M 50.625 65.742188 C 50.683594 65.742188 50.742188 65.742188 50.800781 65.742188 C 50.800781 66.207031 50.800781 66.671875 50.800781 67.148438 C 50.625 67.234375 50.625 67.234375 50.449219 67.324219 C 50.507812 66.800781 50.566406 66.28125 50.625 65.742188 Z M 50.273438 67.324219 C 50.449219 67.5 50.621094 67.671875 50.800781 67.851562 C 50.570312 67.792969 50.335938 67.734375 50.097656 67.675781 C 50.15625 67.558594 50.214844 67.445312 50.273438 67.324219 Z M 50.273438 67.324219 "/>
</g>
</svg>
